<svg width="242" height="138" viewBox="0 0 242 138" fill="none" xmlns="http://www.w3.org/2000/svg">
<path d="M119.899 40.5L77.5234 106.25" stroke="#B3B0AD" stroke-width="2" stroke-linecap="round"/>
<path d="M77.5254 106.187L171.275 53.625" stroke="#B3B0AD" stroke-width="2" stroke-linecap="round"/>
<line x1="77.4883" y1="106.55" x2="181.186" y2="106.55" stroke="#B3B0AD" stroke-width="2" stroke-linecap="round"/>
<path d="M192.094 100.854L192.085 104.099C192.075 107.742 189.669 111.38 184.865 114.16C175.198 119.752 159.465 119.752 149.73 114.157C144.831 111.341 142.384 107.644 142.395 103.953L142.404 100.709C142.393 104.4 144.84 108.096 149.739 110.913C159.474 116.508 175.207 116.508 184.874 110.915C189.679 108.136 192.084 104.498 192.094 100.854Z" fill="#C8C8C8"/>
<path d="M184.758 91.4021C194.495 97.0299 194.546 106.155 184.873 111.783C175.204 117.408 159.468 117.408 149.731 111.78C139.995 106.152 139.943 97.0272 149.612 91.4024C159.285 85.7744 175.021 85.7743 184.758 91.4021Z" fill="white"/>
<path d="M156.157 96.8641L178.065 102.734L175.457 112.47L153.548 106.6L156.157 96.8641Z" fill="url(#paint0_radial)"/>
<path d="M181.37 100.491C180.136 99.8695 179.519 100.481 179.518 102.327V106.438C179.518 109.234 178.308 109.951 175.887 108.59V106.863C177.412 107.703 177.786 106.882 177.786 105.109V101.149C177.786 99.2209 178.375 98.3917 179.554 98.6613V98.6065C178.955 98.0141 178.488 97.3021 178.184 96.5169C177.879 95.7317 177.744 94.8911 177.786 94.0499V90.0345C177.786 88.262 177.153 86.9919 175.887 86.2241V84.47C177.028 85.0928 177.973 86.0219 178.614 87.1527C179.256 88.2835 179.569 89.571 179.518 90.8702V94.8721C179.518 96.754 180.136 98.097 181.37 98.9011V100.491Z" fill="#0078D4"/>
<path d="M156.464 97.5845C155.325 96.97 154.381 96.0498 153.737 94.9274C153.093 93.8051 152.775 92.5253 152.82 91.2321V87.1208C152.82 85.2751 152.203 83.9505 150.969 83.1469V81.557C152.203 82.1783 152.82 81.5478 152.82 79.6653V75.6636C152.82 72.8313 154.034 72.0982 156.464 73.4644V75.2185C155.205 74.5287 154.576 75.0699 154.576 76.8423V80.858C154.576 82.7765 153.983 83.6125 152.796 83.3658V83.4207C153.4 84.0052 153.872 84.7127 154.179 85.4953C154.486 86.2779 154.622 87.1174 154.576 87.9569V91.9175C154.541 92.7434 154.685 93.5672 154.997 94.3326C155.323 94.976 155.834 95.5072 156.464 95.8577V97.5845Z" fill="#0078D4"/>
<path d="M173.706 100.103C173.18 98.8449 172.525 97.6443 171.752 96.5211C171.481 96.0292 171.088 95.6157 170.61 95.3211C169.7 94.8195 169.36 95.3211 168.875 95.5801C167.935 96.0761 167.982 95.5801 163.687 88.1398C162.631 86.3087 165.616 87.4509 164.836 84.7476C164.321 83.4846 163.665 82.283 162.883 81.1653C162.61 80.6675 162.214 80.2477 161.734 79.9459C160.921 79.4761 160.521 79.8398 159.773 80.3345C155.777 82.9758 165.339 100.962 171.042 102.498C171.444 102.597 171.864 102.598 172.266 102.501C172.668 102.404 173.042 102.211 173.354 101.94C173.832 101.665 173.938 100.936 173.706 100.103Z" fill="#0078D4"/>
<path d="M198.094 51.755L198.085 54.9994C198.075 58.6428 195.669 62.2808 190.865 65.0606C181.198 70.6532 165.465 70.6533 155.73 65.0578C150.831 62.2417 148.384 58.5449 148.395 54.8542L148.404 51.6099C148.393 55.3006 150.84 58.9973 155.739 61.8135C165.474 67.409 181.207 67.4089 190.874 61.8163C195.679 59.0364 198.084 55.3985 198.094 51.755Z" fill="#C8C8C8"/>
<path d="M190.758 42.303C200.495 47.9308 200.546 57.0558 190.873 62.6837C181.204 68.3087 165.468 68.3087 155.731 62.6809C145.995 57.0531 145.943 47.9281 155.612 42.3032C165.285 36.6752 181.021 36.6751 190.758 42.303Z" fill="white"/>
<path d="M163.24 47.2915L185.148 53.1618L182.54 62.8978L160.631 57.0275L163.24 47.2915Z" fill="url(#paint1_radial)"/>
<path d="M187.961 51.188C186.745 50.5758 186.136 51.1786 186.136 52.9965V57.0467C186.136 59.8007 184.944 60.5073 182.559 59.1665V57.4656C183.237 57.8391 183.718 57.8921 184.003 57.6244C184.287 57.3568 184.43 56.7279 184.43 55.7378V51.8361C184.43 49.9369 185.01 49.12 186.171 49.3856V49.3316C185.582 48.7481 185.122 48.0466 184.821 47.2731C184.521 46.4996 184.388 45.6714 184.43 44.8428V40.8871C184.43 39.141 183.806 37.8897 182.559 37.1334V35.4054C183.683 36.0189 184.614 36.9342 185.246 38.0482C185.878 39.1622 186.186 40.4306 186.136 41.7104V45.6528C186.136 47.5067 186.744 48.8297 187.961 49.6219V51.188Z" fill="#0078D4"/>
<path d="M163.425 48.3248C162.303 47.7195 161.373 46.813 160.739 45.7073C160.104 44.6017 159.791 43.3409 159.835 42.0669V38.0167C159.835 36.1985 159.227 34.8936 158.012 34.102V32.5357C159.227 33.1478 159.835 32.5266 159.835 30.6722V26.73C159.835 23.9398 161.032 23.2176 163.425 24.5635V26.2915C162.185 25.6119 161.566 26.1452 161.566 27.8911V31.8471C161.566 33.7371 160.981 34.5606 159.812 34.3177V34.3717C160.407 34.9475 160.872 35.6444 161.174 36.4154C161.477 37.1864 161.61 38.0134 161.565 38.8404V42.7421C161.531 43.5558 161.673 44.3673 161.98 45.1213C162.301 45.7552 162.804 46.2785 163.425 46.6237V48.3248Z" fill="#0078D4"/>
<path d="M180.713 42.6098V50.8373C180.713 52.5363 179.628 53.2598 178.26 52.5167L178.113 52.4304L167.313 45.8128C166.581 45.3057 165.967 44.629 165.516 43.8336C165.066 43.0382 164.791 42.1449 164.713 41.2206V41.0373V33.2961L172.434 42.9853C172.609 43.2039 172.817 43.0834 172.989 43.0834L180.713 42.6098ZM167.313 30.1265L178.113 36.7441C178.825 37.2394 179.426 37.895 179.873 38.6644C180.32 39.4338 180.602 40.2981 180.699 41.1961L172.712 41.4294L164.726 31.4079C164.852 29.9353 165.884 29.3451 167.164 30.0441L167.313 30.1294L178.113 36.7471L167.313 30.1265Z" fill="#0078D4"/>
<path d="M142.207 37.0518L142.197 40.2962C142.187 43.9396 139.782 47.5776 134.977 50.3574C125.31 55.9501 109.577 55.9501 99.8424 50.3546C94.943 47.5385 92.4963 43.8417 92.5069 40.151L92.5161 36.9067C92.5056 40.5974 94.9523 44.2941 99.8516 47.1103C109.587 52.7058 125.32 52.7057 134.986 47.1131C139.791 44.3332 142.196 40.6953 142.207 37.0518Z" fill="#C8C8C8"/>
<path d="M134.87 27.5998C144.607 33.2276 144.658 42.3526 134.985 47.9805C125.316 53.6055 109.581 53.6055 99.8438 47.9777C90.107 42.3499 90.0557 33.2249 99.7241 27.6C109.398 21.972 125.133 21.9719 134.87 27.5998Z" fill="white"/>
<path d="M106.094 31.6628L128.002 37.5331L125.393 47.2691L103.485 41.3988L106.094 31.6628Z" fill="url(#paint2_radial)"/>
<path d="M132.332 35.7133C131.116 35.1011 130.508 35.7039 130.507 37.5218V41.572C130.507 44.326 129.315 45.0325 126.93 43.6917V41.9908C127.608 42.3644 128.09 42.4173 128.374 42.1497C128.658 41.8821 128.801 41.2532 128.801 40.263V36.3614C128.801 34.4621 129.381 33.6453 130.543 33.9108V33.8568C129.953 33.2733 129.493 32.5719 129.192 31.7984C128.892 31.0249 128.759 30.1967 128.801 29.3681V25.4124C128.801 23.6662 128.177 22.415 126.93 21.6587V19.9307C128.054 20.5442 128.985 21.4595 129.617 22.5735C130.249 23.6875 130.557 24.9558 130.507 26.2357V30.1781C130.507 32.032 131.115 33.355 132.332 34.1472V35.7133Z" fill="#0078D4"/>
<path d="M107.794 32.8501C106.672 32.2448 105.742 31.3383 105.108 30.2326C104.473 29.1269 104.161 27.8661 104.204 26.5922V22.542C104.204 20.7238 103.596 19.4189 102.381 18.6273V17.061C103.597 17.6731 104.204 17.0519 104.204 15.1974V11.2553C104.204 8.46507 105.401 7.7429 107.794 9.08875V10.8168C106.555 10.1372 105.935 10.6704 105.935 12.4164V16.3724C105.935 18.2624 105.35 19.0859 104.181 18.8429V18.8969C104.776 19.4727 105.241 20.1697 105.544 20.9406C105.846 21.7117 105.979 22.5387 105.935 23.3657V27.2673C105.9 28.081 106.042 28.8926 106.35 29.6466C106.67 30.2804 107.173 30.8037 107.794 31.149V32.8501Z" fill="#0078D4"/>
<path d="M117.622 27.2805C120.178 28.7121 122.735 31.4731 124.575 35.0521C125.056 35.9346 125.335 36.9123 125.394 37.9153C125.394 39.1424 124.473 39.6537 123.348 39.0401L117.52 35.6656L111.691 32.2909C111.105 31.9329 110.614 31.4396 110.258 30.8525C109.902 30.2653 109.692 29.6014 109.646 28.9164C109.63 28.5522 109.695 28.189 109.836 27.853C109.978 27.517 110.192 27.2166 110.464 26.9736C112.509 25.5421 115.066 25.8489 117.622 27.2805Z" fill="#0078D4"/>
<path d="M117.622 27.894C120.077 29.3257 122.122 28.201 122.122 25.2353C122.122 22.372 120.077 18.8953 117.622 17.3615C115.168 15.93 113.123 17.0546 113.123 20.0202C113.123 22.9859 115.066 26.4624 117.622 27.894Z" fill="#0078D4"/>
<rect x="56.4727" y="97.3786" width="51.2384" height="26.4647" transform="rotate(15 56.4727 97.3786)" fill="url(#paint3_radial)"/>
<path d="M43.7021 36.8031L110.441 75.3345L110.288 129.432L43.5487 90.9003L43.7021 36.8031Z" fill="url(#paint4_linear)" stroke="#A64BA6"/>
<path d="M46.1903 34.203L43.2051 35.9385L110.943 75.0463L110.786 130.296L113.771 128.562L113.928 73.3108L46.1903 34.203Z" fill="url(#paint5_linear)"/>
<circle r="7.56955" transform="matrix(0.866025 0.5 -2.20305e-08 1 101.173 94.606)" fill="#D98FD9"/>
<line x1="91.1797" y1="71.4015" x2="91.1797" y2="112.956" stroke="#D98FD9" stroke-linecap="round"/>
<path d="M72.5568 65.4516L60.3906 58.427V56.5526L72.5568 63.578V65.4516Z" fill="#D98FD9"/>
<path d="M72.5568 69.1058L60.3906 62.0813V60.2068L72.5568 67.2323V69.1058Z" fill="#D98FD9"/>
<path d="M72.5568 83.4556L60.3906 76.4311V74.5566L72.5568 81.5821V83.4556Z" fill="#D98FD9"/>
<path d="M72.5568 98.1314L60.3906 91.1069V89.2325L72.5568 96.2579V98.1314Z" fill="#D98FD9"/>
<path d="M56.2773 91.1468C55.9753 90.4232 55.5989 89.7329 55.1541 89.0872C54.9985 88.8043 54.7722 88.5666 54.4974 88.3972C53.9746 88.1089 53.7789 88.3972 53.5001 88.5462C52.9598 88.8313 52.9868 88.5462 50.5176 84.2686C49.9101 83.2158 51.6267 83.8725 51.1783 82.3183C50.8817 81.5921 50.5049 80.9013 50.055 80.2587C49.8982 79.9725 49.6708 79.7312 49.3944 79.5577C48.927 79.2875 48.6973 79.4967 48.2672 79.781C45.9699 81.2996 51.4674 91.6403 54.7461 92.5235C54.9772 92.5803 55.2185 92.5808 55.4498 92.525C55.6811 92.4692 55.8956 92.3586 56.0754 92.2027C56.3502 92.0443 56.4112 91.6252 56.2773 91.1468Z" fill="#8D308D"/>
<path d="M57.4872 72.7009L57.4872 77.2915C57.4872 78.2686 56.8249 78.6846 55.9904 78.2568L55.9003 78.2077L49.3086 74.4019C48.4624 73.9134 47.7709 72.7493 47.7242 71.7587L47.7217 71.6533L47.7217 67.0627L52.4345 72.6346C52.541 72.7604 52.6679 72.8337 52.7744 72.8308L57.4872 72.7009ZM49.3086 65.3809L55.9003 69.1866C56.7229 69.6615 57.3994 70.7749 57.4793 71.7466L52.6045 71.8807L47.7296 66.1176C47.8066 65.2707 48.4367 64.9313 49.2178 65.3314L49.3086 65.3809L55.9003 69.1866L49.3086 65.3809Z" fill="#8D308D"/>
<path d="M52.7891 55.5533C54.6999 56.7463 56.2317 58.4583 57.2059 60.4894C57.5111 61.0498 57.6886 61.6709 57.7257 62.308C57.7257 63.0875 57.141 63.4121 56.4264 63.0226L52.7242 60.8798L49.022 58.7366C48.6499 58.5094 48.3378 58.1962 48.1118 57.8234C47.8858 57.4505 47.7525 57.0289 47.7232 56.5939C47.713 56.3626 47.7543 56.1319 47.8441 55.9185C47.9339 55.7051 48.07 55.5144 48.2425 55.36C49.5418 54.4497 51.1657 54.6449 52.7891 55.5533Z" fill="#8D308D"/>
<path d="M52.7894 55.9437C54.3484 56.8531 55.6477 56.139 55.6477 54.2549C55.5823 53.259 55.2909 52.2911 54.7957 51.4246C54.3004 50.5581 53.6143 49.8157 52.7894 49.2539C51.231 48.3446 49.9316 49.0587 49.9316 50.9427C49.9676 51.9454 50.2464 52.9243 50.7442 53.7954C51.242 54.6665 51.9438 55.4037 52.7894 55.9437V55.9437Z" fill="#8D308D"/>
<defs>
<radialGradient id="paint0_radial" cx="0" cy="0" r="1" gradientUnits="userSpaceOnUse" gradientTransform="translate(165.807 104.667) rotate(105) scale(5.03971 11.3405)">
<stop stop-opacity="0.15"/>
<stop offset="1" stop-opacity="0"/>
</radialGradient>
<radialGradient id="paint1_radial" cx="0" cy="0" r="1" gradientUnits="userSpaceOnUse" gradientTransform="translate(172.89 55.0946) rotate(105) scale(5.03971 11.3406)">
<stop stop-opacity="0.15"/>
<stop offset="1" stop-opacity="0"/>
</radialGradient>
<radialGradient id="paint2_radial" cx="0" cy="0" r="1" gradientUnits="userSpaceOnUse" gradientTransform="translate(115.744 39.466) rotate(105) scale(5.03971 11.3406)">
<stop stop-opacity="0.15"/>
<stop offset="1" stop-opacity="0"/>
</radialGradient>
<radialGradient id="paint3_radial" cx="0" cy="0" r="1" gradientUnits="userSpaceOnUse" gradientTransform="translate(82.0919 110.611) rotate(90) scale(13.2323 25.6192)">
<stop stop-opacity="0.15"/>
<stop offset="1" stop-opacity="0"/>
</radialGradient>
<linearGradient id="paint4_linear" x1="61.0164" y1="47.0256" x2="95.9489" y2="126.626" gradientUnits="userSpaceOnUse">
<stop stop-color="#FFF5FD"/>
<stop offset="0.692708" stop-color="#EEDBEB"/>
<stop offset="1" stop-color="#E0BEDB"/>
</linearGradient>
<linearGradient id="paint5_linear" x1="79.6454" y1="127.405" x2="79.6454" y2="40.2207" gradientUnits="userSpaceOnUse">
<stop stop-color="#862EB5"/>
<stop offset="0.203125" stop-color="#A864CD"/>
<stop offset="0.559504" stop-color="#A864CD"/>
<stop offset="0.631191" stop-color="#D1ABE6"/>
<stop offset="1" stop-color="#D1ABE6"/>
</linearGradient>
</defs>
</svg>
