<svg width="260" height="153"
    xmlns="http://www.w3.org/2000/svg">
    <defs>
        <radialGradient id="a" cx="0" cy="0" r="1" gradientUnits="userSpaceOnUse" gradientTransform="matrix(-2.14808 7.9424 -18.03952 -4.78887 217.249 105.772)">
            <stop stop-opacity=".15"/>
            <stop offset="1" stop-opacity="0"/>
        </radialGradient>
        <radialGradient id="b" cx="0" cy="0" r="1" gradientUnits="userSpaceOnUse" gradientTransform="matrix(-9.0362 8.32988 -18.73472 -17.33282 152.448 157.935)">
            <stop stop-opacity=".15"/>
            <stop offset="1" stop-opacity="0"/>
        </radialGradient>
        <radialGradient id="d" cx="0" cy="0" r="1" gradientUnits="userSpaceOnUse" gradientTransform="matrix(-3.84286 3.54248 -8.66907 -8.02038 137.176 141.324)">
            <stop stop-opacity=".1"/>
            <stop offset="1" stop-opacity="0"/>
        </radialGradient>
        <linearGradient id="c" x1="1.376" y1=".316" x2="1.376" y2="1.328">
            <stop offset=".229" stop-color="#84ECFD"/>
            <stop offset=".432" stop-color="#45CAF2"/>
            <stop offset=".823" stop-color="#32B0E7"/>
            <stop offset="1" stop-color="#156AB3"/>
        </linearGradient>
        <linearGradient id="e" x1="2.031" y1=".774" x2="2.031" y2="1.801">
            <stop stop-color="#A4E675"/>
            <stop offset=".498" stop-color="#86D633"/>
            <stop offset=".75" stop-color="#4E9528"/>
            <stop offset=".995" stop-color="#0B6A0B"/>
        </linearGradient>
        <linearGradient id="f" x1="2.359" y1="1.753" x2="1.244" y2=".582">
            <stop stop-color="#157315"/>
            <stop offset=".299" stop-color="#4E9528"/>
            <stop offset="1" stop-color="#86D633"/>
        </linearGradient>
    </defs>
    <g stroke="null">
        <path d="M259.728.108H.25V153.04h259.48V.108z" fill="#F2F2F2"/>
        <path d="m207.065 70.425-.014 5.063c-.015 5.687-3.648 11.365-10.904 15.705-14.598 8.728-38.358 8.73-53.059-.005-7.399-4.395-11.094-10.165-11.078-15.926l.014-5.064c-.016 5.76 3.68 11.53 11.078 15.926 14.701 8.734 38.46 8.734 53.06.005 7.255-4.34 10.888-10.018 10.903-15.704z" fill="#C8C8C8"/>
        <path d="M195.986 55.67c14.704 8.785 14.783 23.028.173 31.812-14.601 8.78-38.365 8.78-53.07-.004-14.703-8.784-14.78-23.027-.18-31.806 14.61-8.785 38.374-8.786 53.077 0v-.001z" fill="#fff"/>
        <path d="m151.814 61.567 35.46 9.821-4.221 16.287-35.463-9.82 4.224-16.288z" fill="url(#a)"/>
        <path d="M191.084 66.285c-2.335-1.214-3.502-.02-3.502 3.587v8.036c0 5.462-2.29 6.865-6.867 4.205v-3.374c1.302.74 2.226.845 2.772.314.545-.53.82-1.778.82-3.743v-7.74c0-3.768 1.113-5.388 3.342-4.861v-.107a11.325 11.705 0 0 1-3.343-8.905V45.85c0-3.463-1.197-5.946-3.591-7.446v-3.428a13.206 13.65 0 0 1 6.867 12.507v7.822c0 3.678 1.167 6.302 3.502 7.874V66.285zm-37.567.013a13.137 13.578 0 0 1-6.89-12.415v-8.036c0-3.607-1.168-6.195-3.501-7.766v-3.106c2.333 1.215 3.5-.019 3.5-3.697v-7.82c0-5.536 2.297-6.97 6.89-4.299v3.428c-2.38-1.348-3.569-.29-3.569 3.174v7.848c0 3.749-1.12 5.383-3.366 4.9v.108a11.1 11.473 0 0 1 3.366 8.865v7.74a10.86 11.225 0 0 0 .796 4.72 6.823 7.051 0 0 0 2.774 2.98v3.375zm12.333-34.646-10.892 26.644 2.947 1.758 2.863-7 11.592 6.919 2.506 10.209 4.083 2.442-9.543-38.85-3.556-2.122zm-3.758 18.16 4.857-11.879 4.254 17.32-9.111-5.442z" fill="#0078D4"/>
        <path d="M92.76 116.06h51.157v27.309H92.76V116.06z" fill="url(#b)"/>
        <path opacity=".33" d="M143.032 71.617v58.092l-51.255-29.256V26.95l36.585 20.803 14.67 23.862v.002z" fill="#B1F4FF"/>
        <path opacity=".55" d="m138.432 132.217-51.253-29.25 4.595-2.506 51.255 29.248-4.6 2.508h.003z" fill="#2195DC"/>
        <path opacity=".55" d="M87.18 102.967V29.458l4.595-2.507v73.51l-4.595 2.506z" fill="#45CAF2"/>
        <path opacity=".33" d="M138.432 74.162v58.055l-51.253-29.219V29.496l36.687 20.805 14.564 23.861h.002z" fill="#B1F4FF"/>
        <path d="m123.867 50.301 14.563 23.87-14.563-8.358V50.301z" fill="#84ECFD"/>
        <path d="m128.23 47.751-36.455-20.8-4.595 2.545 36.685 20.802 14.566 23.864v58.055l4.6-2.508V71.617l-14.8-23.866z" fill="url(#c)"/>
        <path d="m129.132 111.595 2.778 1.578v2.632l-2.778-1.578v-2.632zM94.865 92.12l15.52 8.88v2.538l-15.52-8.88V92.12zm37.972-7.368L118.02 76.33V73.7l14.818 8.42v2.632zM100.24 66.227l-5.374-3.056v-2.632l5.376 3.055v2.632l-.002.001zm9.445 15.893-14.82-8.42v-2.633l14.82 8.421v2.632zm8.334 4.737-4.63-2.631v-2.632l4.63 2.632v2.631zm14.818 8.421-11.113-6.316V86.33l11.113 6.315v2.632zm-26.857-4.737-11.115-6.315v-2.632l11.115 6.316v2.63zm25.932 14.737-22.23-12.632v-2.631l22.23 12.632v2.631z" fill="#53C9ED"/>
        <path stroke="#341A6E" d="m126.867 116.303-14.482-8.21v-9.657l14.482 8.21v9.657z" fill="#C3ADF7" stroke-miterlimit="10"/>
        <path d="m115.58 104.11 8.52 4.829v1.932l-8.52-4.83v-1.93z" fill="#341A6E"/>
        <path stroke="#341A6E" d="m114.941 77.86-11.925-6.763V61.44l11.925 6.762v9.657z" fill="#C3ADF7" stroke-miterlimit="10"/>
        <path d="m112.386 72.548-6.816-3.863v-1.932l6.816 3.862V72.548z" fill="#341A6E"/>
        <path d="M82.639 113.232h23.672v11.613H82.639v-11.613z" fill="url(#d)"/>
        <path d="M91.916 16.586c-4.68-2.654-8.92-2.897-11.982-1.151l-2.933 1.675c3.063-1.749 7.303-1.503 11.982 1.15 9.302 5.272 16.815 18.051 16.785 28.542-.015 5.216-1.89 8.887-4.913 10.61l2.933-1.673c3.024-1.724 4.898-5.394 4.914-10.611.03-10.49-7.481-23.269-16.785-28.54v-.002z" fill="url(#e)"/>
        <path d="M88.983 18.261c-9.299-5.269-16.864-1.038-16.894 9.453-.03 10.491 7.485 23.276 16.785 28.55 9.301 5.273 16.864 1.038 16.894-9.462.03-10.499-7.483-23.269-16.785-28.54v-.001z" fill="url(#f)"/>
        <path d="m99.435 44.2-2.753-.268-.488 1.667 1.364 3.706-1.727.96-2.866-3.115-1.665-.166c-1.01 2.84-.87 2.254-.874 3.037l-2.473-1.402-1.06-3.94-1.676-1.73c-.93.05-1.862.05-2.792 0l-1.716-2.93 1.352-2.432-.683-2.416-2.96-2.765.008-2.764 2.964.47.693-1.51-1.436-3.94 1.742-.955 2.825 3.115 1.718.244c.968-2.689.787-2.318.967-2.419l2.426 1.375 1.072 3.696 1.682 1.504 2.79-.035 1.695 3.014-1.44 2.34.634 2.258c2.92 2.793 2.503 2.364 2.682 2.633l-.005 2.768zm-10.517-3.016c1.948 1.105 3.539.222 3.545-1.983a7.099 7.337 0 0 0-1.03-3.403 7.544 7.797 0 0 0-2.488-2.574c-1.95-1.106-3.538-.22-3.538 1.98a7.087 7.325 0 0 0 1.027 3.406 7.533 7.786 0 0 0 2.49 2.578" fill="#E5FFE3"/>
    </g>
</svg>
