<svg width="242" height="138" viewBox="0 0 242 138" fill="none" xmlns="http://www.w3.org/2000/svg">
<path d="M193.191 77.6599L193.178 82.2294C193.163 87.361 189.776 92.4849 183.008 96.4001C169.394 104.277 147.234 104.277 133.523 96.3962C126.623 92.4299 123.177 87.2231 123.191 82.025L123.204 77.4555C123.19 82.6536 126.636 87.8603 133.536 91.8267C147.247 99.7077 169.406 99.7076 183.022 91.8307C189.789 87.9154 193.176 82.7916 193.191 77.6599Z" fill="#C8C8C8"/>
<path d="M182.858 64.3471C196.572 72.2736 196.644 85.1257 183.02 93.0524C169.402 100.975 147.239 100.975 133.525 93.0484C119.811 85.1219 119.739 72.2698 133.357 64.3475C146.981 56.4207 169.144 56.4206 182.858 64.3471Z" fill="white"/>
<rect x="143.767" y="68.5392" width="49.6264" height="30.68" transform="rotate(15 143.767 68.5392)" fill="url(#paint0_radial)"/>
<path opacity="0.3" d="M156.998 11.1675C172.564 20.1544 185.146 41.9468 185.095 59.8373C185.044 77.7278 172.379 84.9412 156.814 75.9536C141.25 66.9659 128.661 45.1728 128.712 27.2868C128.763 9.4009 141.428 2.17764 156.998 11.1675Z" fill="#B1F4FF"/>
<path d="M152.542 78.4344C160.378 82.9577 167.477 83.3778 172.607 80.3986L176.871 77.9189C171.744 80.8974 164.645 80.4781 156.813 75.9509C141.22 66.9489 128.665 45.1316 128.716 27.2812C128.741 18.395 131.879 12.1428 136.94 9.20223L132.669 11.6811C127.609 14.624 124.467 20.8769 124.446 29.7624C124.391 47.7285 137.051 69.4907 152.542 78.4344Z" fill="url(#paint1_linear)" fill-opacity="0.33"/>
<path d="M156.998 11.1683C149.162 6.64501 142.063 6.22492 136.933 9.20414L132.669 11.6838C137.796 8.70534 144.895 9.12467 152.727 13.6518C168.32 22.6538 180.875 44.4712 180.824 62.3215C180.799 71.2077 177.661 77.4599 172.6 80.4005L176.871 77.9216C181.931 74.9787 185.073 68.7258 185.095 59.8404C185.149 41.8742 172.489 20.1121 156.998 11.1683Z" fill="url(#paint2_linear)"/>
<path opacity="0.3" d="M152.732 13.6487C168.298 22.6356 180.88 44.428 180.829 62.3185C180.778 80.209 168.113 87.4224 152.548 78.4348C136.984 69.4471 124.396 47.654 124.446 29.768C124.497 11.8821 137.163 4.65884 152.732 13.6487Z" fill="#B1F4FF"/>
<g opacity="0.75">
<mask id="mask0" style="mask-type:alpha" maskUnits="userSpaceOnUse" x="124" y="9" width="57" height="74">
<path d="M152.617 13.7851C168.183 22.7717 180.765 44.5644 180.714 62.4546C180.663 80.3447 167.998 87.5589 152.433 78.5706C136.868 69.5822 124.28 47.7948 124.331 29.9047C124.382 12.0145 137.047 4.79493 152.617 13.7851Z" fill="#77D672"/>
</mask>
<g mask="url(#mask0)">
<path d="M136.943 38.8429L138.202 38.1117L138.193 40.9884L136.935 41.7197L136.943 38.8429Z" fill="#1D4A79"/>
<path d="M142.221 46.2286L143.48 45.4965L144.278 45.9572L143.019 46.6893L142.221 46.2286Z" fill="#0071C8"/>
<path d="M136.935 41.7197L138.193 40.9884L143.483 44.0429L142.225 44.7741L136.935 41.7197Z" fill="#50E6FF"/>
<path d="M143.023 45.2348L144.281 44.5036L144.277 45.9572L143.019 46.6893L143.023 45.2348Z" fill="#004071"/>
<path d="M142.225 44.7741L143.483 44.0429L144.281 44.5036L143.023 45.2348L142.225 44.7741Z" fill="#0071C8"/>
<path d="M137.58 31.5277C137.301 31.3251 136.973 31.2006 136.63 31.1671C136.287 31.1337 135.942 31.1925 135.629 31.3375L134.37 32.0688C134.683 31.9238 135.029 31.865 135.372 31.8984C135.715 31.9318 136.043 32.0563 136.322 32.259C137.118 32.7762 137.781 33.4746 138.256 34.297C138.731 35.1195 139.005 36.0426 139.055 36.9911C139.089 37.329 139.032 37.6698 138.891 37.9787C138.75 38.2875 138.529 38.5534 138.251 38.7491L139.509 38.0196C139.787 37.8241 140.008 37.5583 140.149 37.2494C140.29 36.9405 140.347 36.5996 140.313 36.2616C140.264 35.3128 139.99 34.3891 139.515 33.5663C139.04 32.7435 138.377 32.0449 137.58 31.5277V31.5277Z" fill="url(#paint3_linear)"/>
<path opacity="0.85" d="M151.812 54.7187L153.071 53.9866C153.284 54.1111 153.486 54.2539 153.675 54.4134C154.302 54.9507 154.814 55.6093 155.179 56.3494C155.545 57.0896 155.757 57.8961 155.804 58.7205C155.837 59.0584 155.781 59.3993 155.639 59.7081C155.498 60.017 155.278 60.2829 155 60.4785L153.742 61.2107C154.019 61.0149 154.24 60.749 154.381 60.4402C154.522 60.1313 154.579 59.7906 154.546 59.4526C154.499 58.6281 154.287 57.8215 153.921 57.0812C153.555 56.3409 153.043 55.6822 152.416 55.1446C152.227 54.9856 152.025 54.8432 151.812 54.7187" fill="url(#paint4_linear)"/>
<path opacity="0.85" d="M149.862 54.5276L151.117 53.7964C151.314 53.6922 151.53 53.6296 151.751 53.6126C151.973 53.5955 152.196 53.6243 152.406 53.6973C152.637 53.7673 152.859 53.8644 153.067 53.9866L151.809 54.7187C151.601 54.5961 151.379 54.499 151.148 54.4294C150.938 54.3561 150.715 54.327 150.493 54.3439C150.271 54.3608 150.055 54.4234 149.858 54.5276" fill="#0078D3"/>
<path d="M143.523 34.0349L144.781 33.3036L144.631 68.624L143.372 69.3553L143.523 34.0349Z" fill="#1D4A79"/>
<path d="M152.443 45.5955L153.702 44.8643L153.675 54.4134L152.416 55.1446L152.443 45.5955Z" fill="#1D4A79"/>
<path d="M158.451 55.317L159.71 54.5848L159.59 79.1437L158.331 79.8749L158.451 55.317Z" fill="#1D4A79"/>
<path d="M142.262 31.8438L143.52 31.1126L148.07 33.7394L146.812 34.4706L142.262 31.8438Z" fill="#50E6FF"/>
<path opacity="0.85" d="M146.811 34.4706L148.069 33.7393C148.017 33.9657 147.992 34.1973 147.992 34.4295C147.993 34.6877 148.017 34.9454 148.065 35.1991L146.806 35.9304C146.759 35.6765 146.735 35.4189 146.734 35.1607C146.733 34.9285 146.759 34.6968 146.811 34.4706" fill="#0078D4"/>
<path opacity="0.85" d="M161.742 55.758L163.001 55.0268C162.95 55.2514 162.925 55.4812 162.926 55.7116C162.926 55.9695 162.95 56.2267 162.996 56.4804L161.738 57.2125C161.691 56.9587 161.667 56.701 161.667 56.4429C161.666 56.2125 161.691 55.9827 161.742 55.758Z" fill="#0078D4"/>
<path opacity="0.85" d="M161.742 55.758L163.001 55.0268C162.95 55.2514 162.925 55.4812 162.926 55.7116C162.926 55.9695 162.95 56.2267 162.996 56.4804L161.738 57.2125C161.691 56.9587 161.667 56.701 161.667 56.4429C161.666 56.2125 161.691 55.9827 161.742 55.758Z" fill="#0078D4"/>
<path d="M157.184 53.1286L158.443 52.3973L162.996 55.0259L161.737 55.758L157.184 53.1286Z" fill="#50E6FF"/>
<path d="M151.182 43.4036L152.44 42.6723L158.46 46.1482L157.201 46.8795L151.182 43.4036Z" fill="#50E6FF"/>
<path d="M150.744 32.8617C150.465 32.659 150.138 32.5345 149.795 32.5011C149.452 32.4677 149.106 32.5265 148.793 32.6715L147.535 33.4027C147.848 33.2577 148.193 33.1989 148.536 33.2323C148.879 33.2658 149.207 33.3903 149.486 33.5929C150.283 34.1101 150.945 34.8085 151.42 35.631C151.895 36.4534 152.169 37.3766 152.219 38.325C152.253 38.6631 152.196 39.004 152.055 39.313C151.914 39.6219 151.693 39.888 151.415 40.084L152.674 39.3518C152.952 39.1562 153.173 38.8903 153.314 38.5814C153.455 38.2726 153.512 37.9317 153.478 37.5938C153.428 36.6452 153.155 35.7218 152.679 34.8993C152.204 34.0768 151.541 33.3785 150.744 32.8617V32.8617Z" fill="url(#paint5_linear)"/>
<path d="M165.671 54.1437C165.392 53.9406 165.064 53.8156 164.721 53.7817C164.378 53.7478 164.032 53.8062 163.719 53.9509L162.46 54.683C162.773 54.5382 163.119 54.4796 163.462 54.5134C163.805 54.5471 164.133 54.672 164.412 54.875C165.209 55.392 165.872 56.0903 166.347 56.9128C166.822 57.7353 167.095 58.6586 167.145 59.6071C167.179 59.9453 167.122 60.2864 166.981 60.5956C166.84 60.9048 166.619 61.1709 166.341 61.3669L167.6 60.6357C167.877 60.4392 168.097 60.1728 168.237 59.8636C168.378 59.5545 168.433 59.2137 168.399 58.8759C168.35 57.9278 168.077 57.0048 167.603 56.1823C167.129 55.3599 166.467 54.6613 165.671 54.1437Z" fill="url(#paint6_linear)"/>
<path d="M158.583 8.76265L159.842 8.0314L159.728 48.3429L158.469 49.0741L158.583 8.76265Z" fill="#1D4A79"/>
<path d="M169.097 72.649C168.941 71.8437 168.626 71.0778 168.168 70.3968C167.711 69.7159 167.122 69.1337 166.435 68.6848C166.157 68.482 165.829 68.3574 165.486 68.3239C165.144 68.2903 164.798 68.3489 164.485 68.4937L163.227 69.2249C163.539 69.0802 163.885 69.0215 164.228 69.0551C164.571 69.0887 164.899 69.2133 165.177 69.416C165.864 69.8651 166.453 70.4473 166.91 71.1283C167.367 71.8092 167.683 72.575 167.839 73.3803C167.886 73.6342 167.91 73.8918 167.91 74.1499C167.912 74.3803 167.886 74.6101 167.835 74.8347C167.784 75.0667 167.69 75.2874 167.56 75.4856C167.444 75.6587 167.292 75.8036 167.113 75.9097V75.9097L168.371 75.1785C168.559 75.0593 168.72 74.9027 168.845 74.7183C168.97 74.534 169.055 74.3259 169.095 74.1071C169.146 73.8824 169.172 73.6526 169.17 73.4222C169.17 73.1628 169.145 72.904 169.097 72.649Z" fill="url(#paint7_linear)"/>
<path d="M167.839 73.3803L169.097 72.6481L183.935 81.2151L182.676 81.9463L167.839 73.3803Z" fill="#50E6FF"/>
<path opacity="0.85" d="M138.349 21.8822L139.608 21.151C139.557 21.3756 139.531 21.6054 139.533 21.8358C139.533 22.0937 139.557 22.351 139.604 22.6045L138.345 23.3367C138.299 23.0827 138.275 22.8252 138.274 22.567C138.273 22.3366 138.298 22.1068 138.349 21.8822" fill="#0078D4"/>
<path d="M134.878 19.8778L136.136 19.1465L139.607 21.151L138.348 21.8822L134.878 19.8778Z" fill="#50E6FF"/>
<path opacity="0.85" d="M138.349 21.8822L139.608 21.151C139.557 21.3756 139.531 21.6054 139.533 21.8358C139.533 22.0937 139.557 22.351 139.604 22.6045L138.345 23.3367C138.299 23.0827 138.275 22.8252 138.274 22.567C138.273 22.3366 138.298 22.1068 138.349 21.8822" fill="#0078D4"/>
<path d="M142.283 20.268C142.004 20.0648 141.677 19.9398 141.333 19.9059C140.99 19.872 140.644 19.9304 140.331 20.0751L139.073 20.8073C139.386 20.6624 139.732 20.6039 140.075 20.6376C140.418 20.6714 140.746 20.7962 141.025 20.9992C141.822 21.5164 142.485 22.2148 142.96 23.0372C143.435 23.8597 143.708 24.7829 143.758 25.7314C143.792 26.0691 143.736 26.41 143.596 26.7191C143.456 27.0283 143.236 27.2947 142.959 27.4912L144.217 26.7599C144.495 26.5639 144.715 26.2978 144.857 25.9886C144.998 25.6794 145.054 25.3383 145.021 25.0001C144.971 24.0511 144.697 23.1275 144.221 22.3049C143.745 21.4824 143.081 20.7843 142.283 20.268V20.268Z" fill="url(#paint8_linear)"/>
<path d="M136.943 38.8429L136.935 41.7233L142.225 44.7777L143.023 45.2384V46.6929L142.225 46.2322L135.659 42.4375L135.671 38.1081C135.869 38.2754 136.08 38.4248 136.304 38.5545C136.505 38.6751 136.719 38.7719 136.943 38.8429V38.8429ZM133.571 33.8269C133.617 34.6454 133.826 35.4465 134.187 36.1827C134.547 36.9188 135.052 37.5751 135.671 38.1126C135.869 38.2798 136.08 38.4292 136.304 38.559C136.505 38.6774 136.72 38.7721 136.943 38.8411C138.152 39.2072 139.051 38.4751 139.055 36.9911C139.005 36.0427 138.732 35.1195 138.257 34.2971C137.782 33.4746 137.119 32.7762 136.322 32.259C134.811 31.3876 133.576 32.0849 133.571 33.8269V33.8269ZM151.151 54.4295C149.953 54.0795 149.065 54.8116 149.061 56.2857C149.111 57.2343 149.384 58.1577 149.859 58.9802C150.334 59.8027 150.997 60.501 151.794 61.0178C153.305 61.8902 154.54 61.1964 154.545 59.4509C154.499 58.6264 154.286 57.8198 153.92 57.0795C153.554 56.3392 153.043 55.6805 152.416 55.1429C152.227 54.9839 152.025 54.8414 151.812 54.717C151.604 54.595 151.382 54.4984 151.151 54.4295V54.4295ZM142.261 31.8403L142.225 44.7706L143.023 45.2313V46.6857L142.225 46.225L142.111 68.158L143.377 69.3526L143.528 34.0313L146.811 35.9269C146.763 35.673 146.739 35.4154 146.739 35.1572C146.737 34.9249 146.763 34.6933 146.816 34.467L142.261 31.8403ZM157.188 53.1286L157.064 79.3196L158.335 79.8749L158.455 55.3214L161.738 57.217C161.691 56.9631 161.667 56.7055 161.667 56.4473C161.666 56.2169 161.691 55.9872 161.742 55.7625L157.188 53.1286ZM146.816 34.4679C146.763 34.6942 146.737 34.9258 146.739 35.1581C146.739 35.4163 146.763 35.6739 146.811 35.9277C146.967 36.7328 147.283 37.4984 147.74 38.1793C148.197 38.8602 148.786 39.4425 149.472 39.892C150.99 40.7679 152.218 40.0599 152.223 38.3242C152.173 37.3757 151.899 36.4525 151.424 35.6301C150.949 34.8077 150.287 34.1093 149.49 33.592C148.194 32.8474 147.103 33.2492 146.811 34.4706L146.816 34.4679ZM161.742 55.758C161.691 55.9827 161.666 56.2125 161.667 56.4429C161.667 56.701 161.691 56.9586 161.738 57.2125C161.893 58.018 162.209 58.784 162.666 59.465C163.123 60.146 163.713 60.7282 164.4 61.1768C165.918 62.0518 167.146 61.3553 167.151 59.6089C167.101 58.6604 166.827 57.7371 166.352 56.9146C165.877 56.0921 165.214 55.3938 164.418 54.8768C163.115 54.125 162.027 54.5313 161.742 55.758ZM157.311 8.02962L157.202 46.8795L151.182 43.4045L151.151 54.4295C151.382 54.499 151.604 54.5961 151.812 54.7188C152.025 54.8432 152.227 54.9857 152.416 55.1446L152.443 45.5956L158.469 49.0777L158.583 8.76712L157.311 8.02962ZM162.427 70.9839C162.476 71.9325 162.749 72.8558 163.224 73.6784C163.699 74.5009 164.363 75.1992 165.16 75.716C166.458 76.466 167.546 76.0598 167.838 74.8339C167.89 74.6093 167.915 74.3795 167.914 74.149C167.913 73.8909 167.889 73.6333 167.843 73.3794C167.687 72.5741 167.371 71.8083 166.914 71.1274C166.457 70.4464 165.867 69.8642 165.181 69.4151C163.66 68.5401 162.431 69.2473 162.427 70.9839ZM167.839 73.3803C167.886 73.6342 167.91 73.8918 167.91 74.1499C167.912 74.3804 167.886 74.6101 167.835 74.8348L182.673 83.4008V81.9472L167.839 73.3803ZM138.349 21.8823C138.298 22.1069 138.273 22.3367 138.274 22.5671C138.274 22.8252 138.298 23.0828 138.344 23.3367C138.5 24.1423 138.815 24.9084 139.273 25.5894C139.73 26.2705 140.32 26.8526 141.007 27.301C142.525 28.176 143.753 27.4796 143.758 25.7331C143.708 24.7847 143.434 23.8615 142.959 23.039C142.484 22.2166 141.821 21.5182 141.025 21.001C139.726 20.2492 138.638 20.6519 138.349 21.8823ZM133.683 -5.61319L133.609 20.6019L138.341 23.3367C138.295 23.0828 138.271 22.8252 138.27 22.5671C138.269 22.3367 138.294 22.1069 138.345 21.8823L134.875 19.8787L134.948 -4.88373L133.683 -5.61319Z" fill="#0078D4"/>
<path d="M134.948 -4.88196L136.206 -5.61411L136.136 19.1465L134.878 19.8778L134.948 -4.88196Z" fill="#1D4A79"/>
</g>
</g>
<rect x="172.203" y="86.5797" width="26.973" height="12.8039" transform="rotate(15 172.203 86.5797)" fill="url(#paint9_radial)"/>
<path d="M186.916 18.4256C182.549 15.9027 178.597 15.6717 175.741 17.331L173.006 18.9214C175.862 17.2612 179.816 17.495 184.18 20.015C192.854 25.023 199.863 37.163 199.834 47.1285C199.821 52.0841 198.072 55.5706 195.252 57.2085L197.988 55.6191C200.807 53.9802 202.556 50.4937 202.57 45.5381C202.599 35.5726 195.594 23.4336 186.916 18.4256Z" fill="url(#paint10_linear)"/>
<path d="M184.18 20.0158C175.507 15.0107 168.452 19.029 168.424 28.9954C168.396 38.9619 175.405 51.1078 184.079 56.1167C192.753 61.1257 199.806 57.1036 199.834 47.1293C199.862 37.1551 192.854 25.0238 184.18 20.0158Z" fill="url(#paint11_linear)"/>
<path d="M193.927 44.6561L191.36 44.4018L190.905 45.9864L192.177 49.5069L190.566 50.419L187.893 47.4594L186.34 47.3022C185.398 49.9988 185.528 49.4428 185.526 50.1861L183.218 48.8548L182.23 45.1112L180.666 43.4693C179.799 43.5168 178.93 43.5168 178.063 43.4693L176.462 40.6844L177.723 38.375L177.087 36.0801L174.325 33.4524L174.333 30.8266L177.097 31.274L177.745 29.8398L176.405 26.0962L178.03 25.1899L180.664 28.1485L182.267 28.3804C183.169 25.8255 183 26.1777 183.168 26.0816L185.431 27.3877L186.43 30.8985L187.999 32.3278L190.602 32.2948L192.183 35.1573L190.839 37.3814L191.431 39.5258C194.154 42.1788 193.765 41.7712 193.932 42.0274L193.927 44.6561ZM184.119 41.7916C185.936 42.8415 187.418 42.0022 187.424 39.9082C187.363 38.7701 187.034 37.6625 186.464 36.6757C185.894 35.6889 185.099 34.8508 184.143 34.2297C182.325 33.1797 180.844 34.021 180.844 36.1102C180.903 37.2495 181.231 38.3587 181.801 39.3469C182.371 40.3351 183.167 41.1742 184.124 41.7955" fill="#DBFAD9"/>
<rect x="125.221" y="110.749" width="35.9723" height="17.0593" transform="rotate(15 125.221 110.749)" fill="url(#paint12_radial)"/>
<path d="M123.752 108.49V63.1681L145.825 75.883L154.694 90.6927V126.427L123.752 108.49Z" fill="url(#paint13_linear)"/>
<path d="M124.082 63.7384L145.586 76.1266L154.364 90.7838V125.854L124.082 108.3V63.7384ZM123.422 62.5966V108.68L155.024 127V90.601L146.064 75.6401L123.422 62.5966Z" fill="#ACACAC"/>
<path d="M123.422 62.5965L126.194 61L148.757 74.0416L146.063 75.6381L123.422 62.5965Z" fill="#CCCCCC"/>
<path d="M146.063 75.6401L148.759 74.0436L157.801 89.0025L155.029 90.599L146.063 75.6401Z" fill="#BABABA"/>
<path d="M155.025 90.601L157.797 89.0045V125.345L155.025 127V90.601Z" fill="url(#paint14_linear)"/>
<path d="M146.063 75.6401L155.024 90.6063L146.063 85.3659V75.6401Z" fill="#D8D8D8"/>
<path d="M132.368 81.0224L126.652 77.7224V71.1224L132.368 74.4224V81.0224Z" fill="#949494"/>
<path d="M143.8 82.3424L134.654 77.0624V75.7424L143.8 81.0224V82.3424Z" fill="#949494"/>
<path d="M140.942 83.9924L134.654 80.3624V79.0424L140.942 82.6724V83.9924Z" fill="#949494"/>
<path d="M126.652 83.6624L151.802 98.1824V95.5424L126.652 81.0224V83.6624Z" fill="#0078D4"/>
<path d="M126.652 87.6224L135.797 92.9024V91.5824L126.652 86.3024V87.6224Z" fill="#0078D4"/>
<path d="M138.084 94.2224L151.802 102.142V100.822L138.084 92.9024V94.2224Z" fill="#0078D4"/>
<path d="M126.652 91.5824L135.797 96.8624V95.5424L126.652 90.2624V91.5824Z" fill="#0078D4"/>
<path d="M126.652 95.5424L135.797 100.822V99.5024L126.652 94.2224V95.5424Z" fill="#0078D4"/>
<path d="M126.652 99.8324L135.797 105.112V103.792L126.652 98.5124V99.8324Z" fill="#0078D4"/>
<path d="M126.652 104.122L135.797 109.402V108.082L126.652 102.802V104.122Z" fill="#0078D4"/>
<path d="M148.532 105.725C147.619 104.069 146.297 102.673 144.692 101.672V107.942L148.532 105.725Z" fill="#50E6FF"/>
<path d="M144.693 101.672C141.694 99.94 139.263 101.344 139.263 104.807C139.328 106.697 139.876 108.539 140.853 110.159L144.693 107.942V101.672Z" fill="#8277DC"/>
<path d="M148.533 105.725L144.693 107.942L140.854 110.159C141.767 111.815 143.089 113.21 144.693 114.212C147.692 115.943 150.123 114.542 150.123 111.077C150.057 109.186 149.51 107.344 148.533 105.725V105.725Z" fill="#0078D4"/>
<rect x="84.0322" y="87.1235" width="35.9723" height="17.0593" transform="rotate(15 84.0322 87.1235)" fill="url(#paint15_radial)"/>
<path d="M81.8721 39.5257L84.6441 37.9292L107.207 50.9708L104.513 52.5673L81.8721 39.5257Z" fill="#CCCCCC"/>
<path d="M104.514 52.5693L107.209 50.9728L116.251 65.9317L113.479 67.5282L104.514 52.5693Z" fill="#BABABA"/>
<path d="M113.476 67.5302L116.248 65.9337V102.275L113.476 103.929V67.5302Z" fill="url(#paint16_linear)"/>
<path d="M104.514 52.5693L113.474 67.5355L104.514 62.2951V52.5693Z" fill="#D8D8D8"/>
<path d="M82.2021 85.4189V40.0973L104.275 52.8122L113.144 67.622V103.356L82.2021 85.4189Z" fill="url(#paint17_linear)"/>
<path d="M82.5321 40.6675L104.036 53.0557L112.814 67.713V102.783L82.5321 85.2294V40.6675ZM81.8721 39.5257V85.6096L113.474 103.929V67.5302L104.514 52.5693L81.8721 39.5257Z" fill="#ACACAC"/>
<path d="M91.3982 65.2044L85.6826 61.9044V55.3044L91.3982 58.6044V65.2044Z" fill="#0078D4"/>
<path d="M97.1143 73.7844L110.832 81.7043V80.3843L97.1143 72.4644V73.7844Z" fill="#949494"/>
<path d="M85.6826 67.1843L94.8276 72.4643V71.1443L85.6826 65.8643V67.1843Z" fill="#949494"/>
<path d="M102.83 66.5243L93.6846 61.2443V59.9243L102.83 65.2043V66.5243Z" fill="#949494"/>
<path d="M99.9717 68.1744L93.6846 64.5444V63.2244L99.9717 66.8544V68.1744Z" fill="#949494"/>
<path d="M97.1133 77.4044L110.831 85.3243V84.0043L97.1133 76.0844V77.4044Z" fill="#949494"/>
<path d="M85.6826 70.8043L94.8276 76.0843V74.7643L85.6826 69.4843V70.8043Z" fill="#949494"/>
<path d="M97.1133 81.4618L110.831 89.3819V88.0619L97.1133 80.1418V81.4618Z" fill="#949494"/>
<path d="M85.6826 74.8618L94.8276 80.1418V78.8218L85.6826 73.5418V74.8618Z" fill="#949494"/>
<path d="M109.263 93.5472C108.084 93.208 106.887 92.0549 106.748 91.2246C106.696 91.085 106.606 90.9628 106.488 90.8717C106.37 90.7806 106.229 90.7243 106.081 90.7092C105.528 90.6937 104.975 90.7348 104.431 90.8319C104.431 90.8319 105.553 89.4816 104.864 88.8678C104.21 88.2837 103.02 88.256 102.246 88.2078C102.486 87.5813 102.539 86.8986 102.4 86.2423C102.343 86.0913 102.24 85.9619 102.106 85.8721C101.972 85.7823 101.813 85.7366 101.652 85.7414C99.1857 86.0434 96.8502 87.0169 94.8998 88.5556C94.6529 88.7622 95.4218 89.3542 95.6674 89.1496C97.3954 87.7814 99.4444 86.8774 101.62 86.5235C101.629 87.1026 101.504 87.676 101.256 88.1992C100.352 88.2083 99.4644 88.4364 98.6684 88.8638C98.2473 89.1047 97.58 89.4308 97.8889 90.1126C98.0456 90.4149 98.281 90.6693 98.5703 90.849C98.8595 91.0287 99.1919 91.127 99.5323 91.1336C100.918 91.0379 101.551 89.7878 101.969 88.8671C102.76 88.8445 103.551 88.9272 104.321 89.1133C104.475 89.2255 103.156 90.9686 102.884 91.3573C102.743 91.5599 103.302 92.1355 103.593 91.9823C104.365 91.6061 105.211 91.4083 106.069 91.4035C106.824 92.753 108.075 93.7561 109.556 94.2012C110.085 94.3537 109.791 93.697 109.263 93.5472ZM99.4848 90.3356C99.1132 90.5587 98.6268 90.2954 98.7588 89.9627C99.0472 89.2367 100.01 89.1318 100.844 88.978C100.495 89.5237 100.031 89.9869 99.4848 90.3356Z" fill="#0078D4"/>
<rect x="42.8447" y="63.4985" width="35.9723" height="17.0593" transform="rotate(15 42.8447 63.4985)" fill="url(#paint18_radial)"/>
<path d="M40.7549 62.47V17.147L62.8279 29.863L71.6969 44.673V80.407L40.7549 62.47Z" fill="url(#paint19_linear)" stroke="#ACACAC" stroke-linecap="round" stroke-linejoin="round"/>
<path d="M40.4238 16.58L43.1958 14.98L65.7548 28.022L63.0608 29.622L40.4238 16.58Z" fill="#CCCCCC"/>
<path d="M63.0664 29.62L65.7664 28.02L74.8044 42.98L72.0324 44.58L63.0664 29.62Z" fill="#BABABA"/>
<path d="M72.0273 44.58L74.7993 42.98V79.325L72.0273 80.98V44.58Z" fill="url(#paint20_linear)"/>
<path d="M63.0664 29.62L72.0264 44.586L63.0664 39.346V29.62Z" fill="#D8D8D8"/>
<path d="M56.9601 44.671L49.6191 40.432V34.377L56.9601 38.616V44.671Z" fill="#FFC483" stroke="#D15900" stroke-miterlimit="10"/>
<path d="M63.1738 70.057L54.2598 64.91V58.855L63.1738 64.002V70.057Z" fill="#FFC483" stroke="#D15900" stroke-miterlimit="10"/>
<path d="M67.2377 48.183L58.8477 43.339V42.128L67.2377 46.972V48.183Z" fill="#949494"/>
<path d="M55.3874 41.341L51.1924 38.919V37.708L55.3874 40.13V41.341Z" fill="#D15900"/>
<path d="M47.7329 36.921L45.2139 35.467V34.256L47.7329 35.71V36.921Z" fill="#949494"/>
<path d="M53.0799 47.274L45.2139 42.733V41.522L53.0799 46.063V47.274Z" fill="#949494"/>
<path d="M58.8478 50.605L55.1768 48.485V47.274L58.8478 49.394V50.605Z" fill="#949494"/>
<path d="M67.2373 55.449L60.9443 51.816V50.605L67.2373 54.238V55.449Z" fill="#949494"/>
<path d="M50.4579 53.027L45.2139 49.999V48.788L50.4579 51.816V53.027Z" fill="#949494"/>
<path d="M67.2377 62.715L52.5547 54.238V53.027L67.2377 61.504V62.715Z" fill="#949494"/>
<path d="M65.1406 67.559L67.2376 68.77V69.981L65.1406 68.77V67.559Z" fill="#949494"/>
<path d="M56.2256 62.412L61.4696 65.44V66.651L56.2256 63.623V62.412Z" fill="#D15900"/>
<path d="M45.2139 56.054L52.5549 60.293V61.504L45.2139 57.265V56.054Z" fill="#949494"/>
<defs>
<radialGradient id="paint0_radial" cx="0" cy="0" r="1" gradientUnits="userSpaceOnUse" gradientTransform="translate(168.58 83.8792) rotate(90) scale(15.34 24.8132)">
<stop stop-opacity="0.15"/>
<stop offset="1" stop-opacity="0"/>
</radialGradient>
<linearGradient id="paint1_linear" x1="150.658" y1="8.3242" x2="150.658" y2="81.4227" gradientUnits="userSpaceOnUse">
<stop stop-color="#156AB3"/>
<stop offset="0.4" stop-color="#45CAF2"/>
<stop offset="0.485" stop-color="#45CAF2"/>
<stop offset="1" stop-color="#45CAF2"/>
</linearGradient>
<linearGradient id="paint2_linear" x1="158.882" y1="81.2785" x2="158.882" y2="8.18003" gradientUnits="userSpaceOnUse">
<stop stop-color="#156AB3"/>
<stop offset="0.4" stop-color="#45CAF2"/>
<stop offset="0.485" stop-color="#45CAF2"/>
<stop offset="1" stop-color="#45CAF2"/>
</linearGradient>
<linearGradient id="paint3_linear" x1="137.342" y1="38.7509" x2="137.342" y2="31.1527" gradientUnits="userSpaceOnUse">
<stop stop-color="#156AB3"/>
<stop offset="0.347" stop-color="#32B0E7"/>
<stop offset="0.732" stop-color="#50E6FF"/>
<stop offset="1" stop-color="#50E6FF"/>
</linearGradient>
<linearGradient id="paint4_linear" x1="283.886" y1="489.064" x2="283.886" y2="430.614" gradientUnits="userSpaceOnUse">
<stop stop-color="#156AB3"/>
<stop offset="0.347" stop-color="#32B0E7"/>
<stop offset="0.732" stop-color="#50E6FF"/>
<stop offset="1" stop-color="#50E6FF"/>
</linearGradient>
<linearGradient id="paint5_linear" x1="322.027" y1="310.1" x2="322.027" y2="245.485" gradientUnits="userSpaceOnUse">
<stop stop-color="#156AB3"/>
<stop offset="0.347" stop-color="#32B0E7"/>
<stop offset="0.732" stop-color="#50E6FF"/>
<stop offset="1" stop-color="#50E6FF"/>
</linearGradient>
<linearGradient id="paint6_linear" x1="436.325" y1="512.511" x2="436.325" y2="447.85" gradientUnits="userSpaceOnUse">
<stop stop-color="#156AB3"/>
<stop offset="0.347" stop-color="#32B0E7"/>
<stop offset="0.732" stop-color="#50E6FF"/>
<stop offset="1" stop-color="#50E6FF"/>
</linearGradient>
<linearGradient id="paint7_linear" x1="441.936" y1="650.775" x2="441.936" y2="586.118" gradientUnits="userSpaceOnUse">
<stop stop-color="#156AB3"/>
<stop offset="0.347" stop-color="#32B0E7"/>
<stop offset="0.732" stop-color="#50E6FF"/>
<stop offset="1" stop-color="#50E6FF"/>
</linearGradient>
<linearGradient id="paint8_linear" x1="257.25" y1="190.487" x2="257.25" y2="125.826" gradientUnits="userSpaceOnUse">
<stop stop-color="#156AB3"/>
<stop offset="0.347" stop-color="#32B0E7"/>
<stop offset="0.732" stop-color="#50E6FF"/>
<stop offset="1" stop-color="#50E6FF"/>
</linearGradient>
<radialGradient id="paint9_radial" cx="0" cy="0" r="1" gradientUnits="userSpaceOnUse" gradientTransform="translate(185.69 92.9817) rotate(90) scale(6.40197 13.4865)">
<stop stop-opacity="0.1"/>
<stop offset="1" stop-opacity="0"/>
</radialGradient>
<linearGradient id="paint10_linear" x1="187.788" y1="16.2714" x2="187.788" y2="57.2095" gradientUnits="userSpaceOnUse">
<stop stop-color="#A4E675"/>
<stop offset="0.498" stop-color="#86D633"/>
<stop offset="0.75" stop-color="#4E9528"/>
<stop offset="0.995" stop-color="#0B6A0B"/>
</linearGradient>
<linearGradient id="paint11_linear" x1="197.099" y1="55.9168" x2="171.159" y2="20.2147" gradientUnits="userSpaceOnUse">
<stop stop-color="#157315"/>
<stop offset="0.241" stop-color="#4E9528"/>
<stop offset="1" stop-color="#86D633"/>
</linearGradient>
<radialGradient id="paint12_radial" cx="0" cy="0" r="1" gradientUnits="userSpaceOnUse" gradientTransform="translate(143.207 119.278) rotate(90) scale(8.52963 17.9861)">
<stop stop-opacity="0.15"/>
<stop offset="1" stop-opacity="0"/>
</radialGradient>
<linearGradient id="paint13_linear" x1="118.408" y1="75.3259" x2="157.876" y2="115.95" gradientUnits="userSpaceOnUse">
<stop offset="0.375" stop-color="#FEFEFE"/>
<stop offset="1" stop-color="#D5D5D5"/>
</linearGradient>
<linearGradient id="paint14_linear" x1="156.411" y1="127" x2="156.411" y2="89.0045" gradientUnits="userSpaceOnUse">
<stop stop-color="#797775"/>
<stop offset="0.157" stop-color="#868482"/>
<stop offset="1" stop-color="#AFACA9"/>
</linearGradient>
<radialGradient id="paint15_radial" cx="0" cy="0" r="1" gradientUnits="userSpaceOnUse" gradientTransform="translate(102.018 95.6532) rotate(90) scale(8.52963 17.9861)">
<stop stop-opacity="0.15"/>
<stop offset="1" stop-opacity="0"/>
</radialGradient>
<linearGradient id="paint16_linear" x1="114.862" y1="103.929" x2="114.862" y2="65.9337" gradientUnits="userSpaceOnUse">
<stop stop-color="#797775"/>
<stop offset="0.157" stop-color="#868482"/>
<stop offset="1" stop-color="#AFACA9"/>
</linearGradient>
<linearGradient id="paint17_linear" x1="76.8581" y1="52.2552" x2="116.326" y2="92.8788" gradientUnits="userSpaceOnUse">
<stop offset="0.375" stop-color="#FEFEFE"/>
<stop offset="1" stop-color="#D5D5D5"/>
</linearGradient>
<radialGradient id="paint18_radial" cx="0" cy="0" r="1" gradientUnits="userSpaceOnUse" gradientTransform="translate(60.8309 72.0282) rotate(90) scale(8.52963 17.9861)">
<stop stop-opacity="0.15"/>
<stop offset="1" stop-opacity="0"/>
</radialGradient>
<linearGradient id="paint19_linear" x1="35.4109" y1="29.307" x2="74.8789" y2="69.93" gradientUnits="userSpaceOnUse">
<stop offset="0.375" stop-color="#FEFEFE"/>
<stop offset="1" stop-color="#D5D5D5"/>
</linearGradient>
<linearGradient id="paint20_linear" x1="73.4133" y1="80.98" x2="73.4133" y2="42.985" gradientUnits="userSpaceOnUse">
<stop stop-color="#797775"/>
<stop offset="0.157" stop-color="#868482"/>
<stop offset="1" stop-color="#AFACA9"/>
</linearGradient>
</defs>
</svg>
