<svg width="260" height="153" viewBox="0 0 260 153" fill="none"
    xmlns="http://www.w3.org/2000/svg">
    <path d="M0 8C0 3.58172 3.58172 0 8 0H252C256.418 0 260 3.58172 260 8V153H0V8Z" fill="#F2F2F2"/>
    <path d="M131.286 50.2192L88.9102 115.969" stroke="#8C8C8C" stroke-width="2" stroke-linecap="round"/>
    <path d="M88.9121 115.906L182.662 63.3441" stroke="#8C8C8C" stroke-width="2" stroke-linecap="round"/>
    <line x1="88.875" y1="116.27" x2="192.573" y2="116.27" stroke="#8C8C8C" stroke-width="2" stroke-linecap="round"/>
    <path d="M211.321 62.4802L211.312 65.7246C211.301 69.368 208.896 73.006 204.091 75.7858C194.425 81.3784 178.692 81.3785 168.957 75.783C164.057 72.9669 161.611 69.2701 161.621 65.5794L161.63 62.3351C161.62 66.0258 164.067 69.7225 168.966 72.5387C178.701 78.1342 194.434 78.1341 204.1 72.5414C208.905 69.7616 211.31 66.1237 211.321 62.4802Z" fill="#C8C8C8"/>
    <path d="M203.985 53.0282C213.721 58.656 213.773 67.781 204.099 73.4089C194.431 79.0339 178.695 79.034 168.958 73.4061C159.221 67.7783 159.17 58.6533 168.838 53.0284C178.512 47.4004 194.248 47.4003 203.985 53.0282Z" fill="white"/>
    <path d="M174.727 58.1096L196.635 63.9799L194.026 73.7159L172.118 67.8456L174.727 58.1096Z" fill="url(#paint0_radial)"/>
    <path d="M199.566 61.0857C198.313 60.4549 197.686 61.076 197.686 62.9492V67.1224C197.686 69.96 196.458 70.688 194 69.3065V67.5539C194.699 67.9388 195.195 67.9934 195.488 67.7176C195.781 67.4419 195.928 66.7939 195.928 65.7736V61.7534C195.928 59.7966 196.526 58.9549 197.723 59.2285V59.1729C197.115 58.5717 196.641 57.8489 196.332 57.0519C196.022 56.2549 195.885 55.4016 195.928 54.5478V50.4719C195.928 48.6728 195.285 47.3835 194 46.6042V44.8237C195.158 45.4559 196.117 46.399 196.769 47.5468C197.42 48.6946 197.738 50.0015 197.686 51.3202V55.3824C197.686 57.2926 198.313 58.6558 199.566 59.472V61.0857Z" fill="#0078D4"/>
    <path d="M174.285 58.1355C173.129 57.5118 172.17 56.5777 171.517 55.4385C170.863 54.2993 170.541 53.0001 170.586 51.6875V47.5143C170.586 45.6408 169.96 44.2963 168.707 43.4807V41.8668C169.96 42.4975 170.586 41.8574 170.586 39.9467V35.8848C170.586 33.0098 171.819 32.2657 174.285 33.6524V35.4329C173.007 34.7327 172.369 35.2822 172.369 37.0812V41.1573C172.369 43.1047 171.767 43.9532 170.562 43.7029V43.7585C171.175 44.3518 171.654 45.07 171.966 45.8643C172.277 46.6587 172.415 47.5109 172.369 48.363V52.3832C172.333 53.2216 172.479 54.0578 172.796 54.8346C173.127 55.4878 173.645 56.027 174.285 56.3827V58.1355Z" fill="#0078D4"/>
    <path d="M201.771 59.3854C200.898 58.8479 200.18 58.0928 199.686 57.194C199.193 56.2952 198.942 55.2837 198.958 54.2586C198.958 51.8059 200.215 51.2374 201.949 52.2383C202.834 52.7686 203.56 53.5268 204.052 54.4338C204.544 55.3409 204.783 56.3633 204.745 57.3944C204.745 59.5628 203.621 60.4538 201.771 59.3854ZM201.889 53.5738C200.828 52.9612 200.39 53.7858 200.39 55.0169C200.39 56.225 200.814 57.4924 201.864 58.0988C202.923 58.7098 203.33 57.8537 203.33 56.6362C203.33 55.448 202.909 54.1625 201.889 53.5738ZM209.998 57.0911L202.203 66.7184L200.991 66.0188L208.778 56.3867L209.998 57.0911ZM208.905 70.7054C208.032 70.1679 207.314 69.4128 206.821 68.514C206.328 67.6152 206.076 66.6037 206.092 65.5786C206.092 63.1254 207.349 62.5575 209.083 63.5582C209.968 64.0885 210.695 64.8468 211.186 65.7538C211.678 66.6608 211.917 67.6832 211.879 68.7143C211.879 70.8784 210.759 71.776 208.905 70.7054ZM209.024 64.8937C207.962 64.2808 207.524 65.1064 207.524 66.3368C207.524 67.5456 207.948 68.8124 208.998 69.4187C210.057 70.0297 210.464 69.1738 210.464 67.9561C210.464 66.7678 210.044 65.4823 209.024 64.8937H209.024Z" fill="#0078D4"/>
    <path d="M194.204 64.8321L174.492 53.4298V38.7611L194.203 50.1633L194.204 64.8321Z" fill="#0078D4"/>
    <line x1="176.084" y1="52.41" x2="192.527" y2="61.9932" stroke="#F8F8F8" stroke-width="0.5" stroke-linecap="round"/>
    <path d="M191.554 58.0215C191.521 57.8774 191.446 57.7283 191.345 57.6054C191.243 57.4825 191.123 57.3955 191.011 57.3626C190.124 57.0601 189.072 55.5452 189.069 54.4028C189.067 54.3157 189.046 54.2189 189.007 54.1218C188.967 54.0247 188.911 53.9308 188.844 53.8491C188.777 53.7674 188.702 53.7008 188.624 53.6558C188.547 53.6108 188.471 53.5889 188.404 53.5923C187.955 53.6091 187.528 53.6778 187.125 53.7977C187.557 52.9476 187.694 52.7986 187.81 52.409C187.919 52.0429 187.882 51.4876 187.502 51.0208C187.134 50.5674 186.678 50.522 186.312 50.4537C185.982 50.3932 185.659 50.3564 185.344 50.3432C185.597 49.5736 185.701 48.6753 185.651 47.6907C185.648 47.5928 185.621 47.4836 185.572 47.3762C185.523 47.2689 185.454 47.1678 185.375 47.0851C185.295 47.0023 185.208 46.9415 185.123 46.9097C185.039 46.8779 184.96 46.8766 184.897 46.9059C182.326 47.7121 180.137 49.2312 178.434 51.3927C178.138 51.7671 178.902 52.7053 179.197 52.3319C180.69 50.4381 182.568 49.0527 184.76 48.2284C184.674 49.0231 184.5 49.7527 184.241 50.4022C183.298 50.5491 182.472 50.9455 181.801 51.573C181.358 51.9799 180.7 52.5422 181.027 53.5987C181.103 53.8753 181.252 54.1552 181.446 54.3863C181.641 54.6174 181.867 54.7839 182.083 54.8549C182.466 54.9619 182.786 54.7821 183.048 54.6162C183.559 54.2674 183.97 53.7696 184.264 53.1435C184.528 52.619 184.756 52.0537 184.967 51.4732C185.59 51.4041 186.261 51.458 186.963 51.6335C186.837 51.9761 186.683 52.2921 186.504 52.5788L185.398 54.7566C185.142 55.2595 185.855 55.9607 186.092 55.756C186.707 55.2201 187.453 54.8822 188.298 54.7567C188.68 56.3172 189.968 58.0154 191.245 58.4511C191.358 58.4799 191.453 58.451 191.511 58.3707C191.568 58.2904 191.584 58.1651 191.554 58.0215ZM181.864 53.7721C181.903 53.7891 181.884 53.8205 181.864 53.7721V53.7721ZM182.5 53.506C182.333 53.6223 182.107 53.8113 181.863 53.768C181.861 53.7632 181.859 53.7585 181.858 53.7538C181.869 53.7928 181.839 53.6965 181.833 53.6743C181.85 53.7336 181.827 53.5834 181.821 53.5848C181.819 53.2427 182.162 52.9229 182.332 52.7425C182.718 52.3349 183.171 52.0206 183.681 51.8068C183.398 52.4605 183.017 53.1456 182.5 53.506L182.5 53.506ZM187.124 51.6792C187.137 51.6871 187.138 51.6915 187.124 51.6792V51.6792ZM186.982 51.4441C186.982 51.4441 186.983 51.4661 186.983 51.4894C186.968 51.4611 186.962 51.4406 186.982 51.4441Z" fill="#F8F8F8"/>
    <path d="M156.516 46.8326L156.507 50.077C156.496 53.7204 154.091 57.3584 149.287 60.1382C139.62 65.7308 123.887 65.7309 114.152 60.1354C109.253 57.3193 106.806 53.6225 106.816 49.9318L106.826 46.6875C106.815 50.3782 109.262 54.0749 114.161 56.8911C123.896 62.4866 139.629 62.4865 149.296 56.8939C154.101 54.114 156.506 50.4761 156.516 46.8326Z" fill="#C8C8C8"/>
    <path d="M149.18 37.3806C158.917 43.0084 158.968 52.1334 149.294 57.7613C139.626 63.3863 123.89 63.3864 114.153 57.7585C104.417 52.1307 104.365 43.0057 114.034 37.3809C123.707 31.7528 139.443 31.7528 149.18 37.3806Z" fill="white"/>
    <path d="M119.404 42L141.313 47.8703L138.704 57.6063L116.796 51.736L119.404 42Z" fill="url(#paint1_radial)"/>
    <path d="M144.247 45.2855C143.027 44.6709 142.416 45.2761 142.416 47.1011V51.1671C142.416 53.9319 141.219 54.6412 138.824 53.2951V51.5876C139.505 51.9626 139.989 52.0158 140.274 51.7471C140.56 51.4784 140.702 50.8471 140.703 49.853V45.9361C140.703 44.0295 141.286 43.2094 142.451 43.476V43.4218C141.859 42.836 141.397 42.1318 141.096 41.3553C140.795 40.5787 140.661 39.7473 140.703 38.9155V34.9443C140.703 33.1913 140.077 31.9352 138.824 31.1759V29.4412C139.953 30.0571 140.887 30.976 141.522 32.0943C142.156 33.2126 142.466 34.486 142.416 35.7708V39.7287C142.416 41.5898 143.026 42.918 144.247 43.7133V45.2855Z" fill="#0078D4"/>
    <path d="M119.614 42.4112C118.488 41.8036 117.554 40.8935 116.917 39.7835C116.28 38.6735 115.966 37.4078 116.01 36.1288V32.0628C116.01 30.2375 115.4 28.9274 114.18 28.1327V26.5603C115.4 27.1748 116.01 26.5512 116.01 24.6895V20.7319C116.01 17.9308 117.212 17.2058 119.614 18.5569V20.2917C118.37 19.6095 117.748 20.1448 117.748 21.8976V25.8691C117.748 27.7665 117.161 28.5932 115.987 28.3493V28.4035C116.585 28.9815 117.051 29.6812 117.355 30.4552C117.658 31.2292 117.792 32.0594 117.747 32.8897V36.8066C117.713 37.6235 117.855 38.4382 118.164 39.1951C118.486 39.8315 118.991 40.3568 119.614 40.7034V42.4112Z" fill="#0078D4"/>
    <path d="M146.861 44.5195C146.01 43.9958 145.31 43.2601 144.83 42.3844C144.349 41.5087 144.105 40.5232 144.12 39.5244C144.12 37.1346 145.345 36.5808 147.034 37.556C147.896 38.0726 148.604 38.8114 149.083 39.6951C149.563 40.5788 149.796 41.5751 149.758 42.5797C149.758 44.6924 148.664 45.5605 146.861 44.5195ZM146.976 38.8571C145.942 38.2603 145.515 39.0637 145.515 40.2632C145.515 41.4403 145.928 42.6751 146.951 43.2659C147.983 43.8613 148.38 43.0272 148.38 41.8409C148.38 40.6833 147.97 39.4308 146.976 38.8571ZM154.877 42.2841L147.282 51.6642L146.101 50.9826L153.688 41.5978L154.877 42.2841ZM153.812 55.5488C152.961 55.0251 152.261 54.2894 151.781 53.4137C151.3 52.538 151.056 51.5524 151.071 50.5537C151.071 48.1635 152.296 47.6102 153.985 48.5852C154.848 49.1018 155.555 49.8406 156.034 50.7243C156.514 51.6081 156.747 52.6042 156.709 53.6088C156.709 55.7174 155.618 56.5919 153.812 55.5488ZM153.927 49.8864C152.893 49.2892 152.466 50.0936 152.466 51.2924C152.466 52.4701 152.879 53.7044 153.903 54.2952C154.934 54.8905 155.331 54.0565 155.331 52.8701C155.331 51.7124 154.921 50.4599 153.927 49.8864H153.927Z" fill="#0078D4"/>
    <path d="M138.697 47.5784L119.492 36.469V25.1L138.697 36.2094L138.697 47.5784Z" fill="#0078D4"/>
    <path d="M135.264 38.9921L122.594 31.6766V29.7261L135.264 37.0413V38.9921Z" fill="#F8F8F8"/>
    <path d="M131.968 41.0296L122.594 35.5968V33.6462L131.968 39.079V41.0296Z" fill="#F8F8F8"/>
    <path d="M201.321 110.407L201.312 113.651C201.301 117.295 198.896 120.932 194.091 123.712C184.425 129.305 168.692 129.305 158.957 123.71C154.057 120.893 151.611 117.197 151.621 113.506L151.63 110.262C151.62 113.952 154.067 117.649 158.966 120.465C168.701 126.061 184.434 126.061 194.1 120.468C198.905 117.688 201.31 114.05 201.321 110.407Z" fill="#C8C8C8"/>
    <path d="M193.985 100.955C203.721 106.582 203.773 115.708 194.099 121.335C184.431 126.96 168.695 126.96 158.958 121.333C149.221 115.705 149.17 106.58 158.838 100.955C168.512 95.3269 184.248 95.3269 193.985 100.955Z" fill="white"/>
    <path d="M164.641 106.55L186.549 112.42L183.94 122.156L162.032 116.286L164.641 106.55Z" fill="url(#paint2_radial)"/>
    <path d="M189.484 109.618C188.263 109.003 187.652 109.608 187.652 111.433V115.499C187.652 118.264 186.455 118.973 184.061 117.627V115.92C185.569 116.75 185.939 115.939 185.939 114.185V110.268C185.939 108.362 186.522 107.542 187.688 107.808V107.754C187.095 107.168 186.634 106.464 186.332 105.687C186.031 104.911 185.897 104.08 185.939 103.248V99.2765C185.939 97.5236 185.313 96.2674 184.061 95.5081V93.7733C185.189 94.3893 186.123 95.3082 186.758 96.4265C187.393 97.5448 187.702 98.8181 187.652 100.103V104.061C187.652 105.922 188.263 107.25 189.484 108.045V109.618Z" fill="#0078D4"/>
    <path d="M164.851 106.743C163.724 106.136 162.79 105.225 162.154 104.115C161.517 103.006 161.203 101.74 161.247 100.461V96.3948C161.247 94.5695 160.636 93.2595 159.416 92.4648V90.8924C160.636 91.5069 161.247 90.8833 161.247 89.0216V85.064C161.247 82.2628 162.448 81.5378 164.85 82.889V84.6237C163.606 83.9415 162.984 84.4768 162.984 86.2296V90.2011C162.984 92.0985 162.397 92.9252 161.223 92.6813V92.7355C161.821 93.3136 162.287 94.0133 162.591 94.7873C162.895 95.5613 163.029 96.3915 162.984 97.2217V101.139C162.949 101.956 163.091 102.77 163.4 103.527C163.722 104.164 164.227 104.689 164.851 105.035V106.743Z" fill="#0078D4"/>
    <path d="M192.378 108.408C191.528 107.885 190.828 107.149 190.347 106.273C189.867 105.398 189.622 104.412 189.637 103.413C189.637 101.023 190.862 100.47 192.552 101.445C193.414 101.961 194.122 102.7 194.601 103.584C195.08 104.468 195.313 105.464 195.276 106.468C195.276 108.581 194.181 109.449 192.378 108.408ZM192.494 102.746C191.46 102.149 191.033 102.952 191.033 104.152C191.033 105.329 191.446 106.564 192.469 107.155C193.501 107.75 193.897 106.916 193.897 105.73C193.897 104.572 193.487 103.32 192.494 102.746ZM200.394 106.173L192.799 115.553L191.619 114.871L199.206 105.487L200.394 106.173ZM199.329 119.438C198.479 118.914 197.779 118.178 197.298 117.302C196.818 116.427 196.573 115.441 196.589 114.442C196.589 112.052 197.814 111.499 199.503 112.474C200.365 112.991 201.073 113.729 201.552 114.613C202.031 115.497 202.264 116.493 202.227 117.498C202.227 119.606 201.136 120.481 199.329 119.438ZM199.445 113.775C198.411 113.178 197.984 113.982 197.984 115.181C197.984 116.359 198.397 117.593 199.42 118.184C200.452 118.779 200.848 117.945 200.848 116.759C200.848 115.601 200.438 114.349 199.445 113.775H199.445Z" fill="#0078D4"/>
    <path d="M166.031 86.7499V104.115L183.031 113.929V96.5647L166.031 86.7499ZM167.339 95.8097L171.265 98.0747V101.095L167.339 98.8296V95.8097ZM172.569 98.8296L176.495 101.095V104.115L172.569 101.85V98.8296ZM172.569 97.3197V94.2997L176.495 96.5647V99.5846L172.569 97.3197ZM171.262 93.5447V96.5647L167.336 94.2997V91.2798L171.262 93.5447ZM167.336 103.36V100.34L171.262 102.605V105.625L167.336 103.36ZM172.569 106.379V103.36L176.495 105.625V108.644L172.569 106.379ZM181.724 111.664L177.798 109.399V106.379L181.724 108.644V111.664ZM181.724 107.134L177.798 104.87V101.85L181.724 104.115V107.134ZM181.724 102.605L177.798 100.34V97.3197L181.724 99.5846V102.605Z" fill="#0078D4"/>
    <rect x="64.3047" y="108.872" width="47.711" height="24.6427" transform="rotate(15 64.3047 108.872)" fill="url(#paint3_radial)"/>
    <path opacity="0.33" d="M111.762 73.8026V128.99L63.9609 101.196V31.3716L98.0809 51.1346L111.762 73.8026Z" fill="#B1F4FF"/>
    <path opacity="0.55" d="M107.471 131.372L59.6719 103.586L63.9587 101.205L111.762 128.99L107.471 131.372Z" fill="url(#paint4_linear)"/>
    <path opacity="0.55" d="M59.6719 103.586V33.7536L63.9587 31.3716V101.205L59.6719 103.586Z" fill="url(#paint5_linear)"/>
    <path opacity="0.33" d="M107.471 76.2215V131.372L59.6719 103.615V33.7905L93.8895 53.5535L107.471 76.2215Z" fill="#B1F4FF"/>
    <path d="M93.8887 53.5536L107.47 76.2296L93.8887 68.2896V53.5536Z" fill="#84ECFD"/>
    <path d="M97.9579 51.1316L63.9587 31.3716L59.6719 33.7906L93.8875 53.5506L107.471 76.2216V131.372L111.762 128.99V73.8026L97.9579 51.1316Z" fill="url(#paint6_linear)"/>
    <path d="M101.392 115.781L97.0723 113.281V110.781L101.392 113.281V115.781Z" fill="#53C9ED"/>
    <path d="M102.255 86.2808L88.4336 78.2808V75.7808L102.255 83.7808V86.2808Z" fill="#53C9ED"/>
    <path d="M86.1892 76.9805L75.8242 70.9805V68.4805L86.1892 74.4805V76.9805Z" fill="#53C9ED"/>
    <path d="M71.8538 68.6828L66.8398 65.7808V63.2808L71.8538 66.1828V68.6828Z" fill="#53C9ED"/>
    <path d="M80.6608 83.7808L66.8398 75.7808V73.2808L80.6608 81.2808V83.7808Z" fill="#53C9ED"/>
    <path d="M88.434 88.2808L84.1152 85.7808V83.2808L88.434 85.7808V88.2808Z" fill="#53C9ED"/>
    <path d="M102.255 96.2808L91.8887 90.2808V87.7808L102.255 93.7808V96.2808Z" fill="#53C9ED"/>
    <path d="M77.2058 91.7808L66.8398 85.7808V83.2808L77.2058 89.2808V91.7808Z" fill="#53C9ED"/>
    <path d="M101.391 105.781L80.6602 93.7808V91.2808L101.391 103.281V105.781Z" fill="#53C9ED"/>
    <path d="M66.8398 93.2808L83.252 102.781V105.281L66.8398 95.7808V93.2808Z" fill="#53C9ED"/>
    <path d="M94.4809 109.281L85.7168 104.208V106.708L94.4809 111.781V109.281Z" fill="#53C9ED"/>
    <rect x="54.2109" y="106.734" width="22.0772" height="10.4799" transform="rotate(15 54.2109 106.734)" fill="url(#paint7_radial)"/>
    <path d="M63.8162 22.8813C59.4496 20.3584 55.4974 20.1274 52.6417 21.7867L49.9062 23.3771C52.762 21.7168 56.7162 21.9507 61.0808 24.4707C69.7548 29.4787 76.7636 41.6187 76.7345 51.5842C76.7209 56.5398 74.9723 60.0263 72.1525 61.6642L74.8879 60.0748C77.7078 58.4359 79.4563 54.9494 79.4709 49.9938C79.499 40.0283 72.4941 27.8892 63.8162 22.8813Z" fill="url(#paint8_linear)"/>
    <path d="M61.0809 24.4715C52.4079 19.4664 45.3524 23.4847 45.3243 33.4511C45.2962 43.4176 52.305 55.5635 60.979 60.5724C69.6529 65.5814 76.7064 61.5593 76.7345 51.585C76.7627 41.6108 69.7548 29.4795 61.0809 24.4715Z" fill="url(#paint9_linear)"/>
    <path d="M70.8286 49.1117L68.2611 48.8575L67.806 50.4421L69.0781 53.9625L67.4673 54.8746L64.794 51.9151L63.2414 51.7579C62.2992 54.4545 62.4293 53.8984 62.4273 54.6417L60.1198 53.3104L59.131 49.5668L57.5678 47.925C56.7006 47.9725 55.8315 47.9725 54.9644 47.925L53.3633 45.1401L54.6247 42.8306L53.9882 40.5358L51.2266 37.908L51.2343 35.2823L53.9989 35.7296L54.6461 34.2954L53.306 30.5518L54.9314 29.6455L57.5649 32.6041L59.1679 32.836C60.0703 30.2811 59.9015 30.6333 60.0694 30.5373L62.3322 31.8434L63.3317 35.3541L64.9007 36.7834L67.5032 36.7504L69.0839 39.6129L67.74 41.837L68.3319 43.9815C71.0557 46.6344 70.6666 46.2269 70.8335 46.483L70.8286 49.1117ZM61.0203 46.2472C62.8378 47.2972 64.3195 46.4578 64.3253 44.3638C64.2645 43.2257 63.9356 42.1182 63.3655 41.1313C62.7954 40.1445 62.0001 39.3064 61.0446 38.6853C59.2261 37.6354 57.7454 38.4767 57.7454 40.5658C57.8043 41.7051 58.1322 42.8143 58.7022 43.8025C59.2723 44.7907 60.0684 45.6298 61.0252 46.2511" fill="#E5FFE3"/>
    <defs>
        <radialGradient id="paint0_radial" cx="0" cy="0" r="1" gradientUnits="userSpaceOnUse" gradientTransform="translate(184.376 65.9128) rotate(105) scale(5.03971 11.3406)">
            <stop stop-opacity="0.15"/>
            <stop offset="1" stop-opacity="0"/>
        </radialGradient>
        <radialGradient id="paint1_radial" cx="0" cy="0" r="1" gradientUnits="userSpaceOnUse" gradientTransform="translate(129.054 49.8031) rotate(105) scale(5.03971 11.3406)">
            <stop stop-opacity="0.15"/>
            <stop offset="1" stop-opacity="0"/>
        </radialGradient>
        <radialGradient id="paint2_radial" cx="0" cy="0" r="1" gradientUnits="userSpaceOnUse" gradientTransform="translate(174.29 114.353) rotate(105) scale(5.03971 11.3406)">
            <stop stop-opacity="0.15"/>
            <stop offset="1" stop-opacity="0"/>
        </radialGradient>
        <radialGradient id="paint3_radial" cx="0" cy="0" r="1" gradientUnits="userSpaceOnUse" gradientTransform="translate(88.1602 121.193) rotate(90) scale(12.3214 23.8555)">
            <stop stop-opacity="0.15"/>
            <stop offset="1" stop-opacity="0"/>
        </radialGradient>
        <linearGradient id="paint4_linear" x1="51.8623" y1="60.5916" x2="96.916" y2="134.327" gradientUnits="userSpaceOnUse">
            <stop stop-color="#45CAF2"/>
            <stop offset="0.516" stop-color="#32B0E7"/>
            <stop offset="0.818" stop-color="#32B0E7"/>
            <stop offset="1" stop-color="#156AB3"/>
        </linearGradient>
        <linearGradient id="paint5_linear" x1="44.0936" y1="1953.64" x2="752.134" y2="2022.6" gradientUnits="userSpaceOnUse">
            <stop stop-color="#45CAF2"/>
            <stop offset="0.516" stop-color="#32B0E7"/>
            <stop offset="0.818" stop-color="#32B0E7"/>
            <stop offset="1" stop-color="#156AB3"/>
        </linearGradient>
        <linearGradient id="paint6_linear" x1="85.7169" y1="30.9856" x2="85.7169" y2="129.498" gradientUnits="userSpaceOnUse">
            <stop offset="0.229167" stop-color="#84ECFD"/>
            <stop offset="0.432292" stop-color="#45CAF2"/>
            <stop offset="0.822917" stop-color="#32B0E7"/>
            <stop offset="1" stop-color="#156AB3"/>
        </linearGradient>
        <radialGradient id="paint7_radial" cx="0" cy="0" r="1" gradientUnits="userSpaceOnUse" gradientTransform="translate(65.2495 111.974) rotate(90) scale(5.23997 11.0386)">
            <stop stop-opacity="0.1"/>
            <stop offset="1" stop-opacity="0"/>
        </radialGradient>
        <linearGradient id="paint8_linear" x1="64.6886" y1="20.7271" x2="64.6886" y2="61.6652" gradientUnits="userSpaceOnUse">
            <stop stop-color="#A4E675"/>
            <stop offset="0.498" stop-color="#86D633"/>
            <stop offset="0.75" stop-color="#4E9528"/>
            <stop offset="0.995" stop-color="#0B6A0B"/>
        </linearGradient>
        <linearGradient id="paint9_linear" x1="73.9991" y1="60.3725" x2="39.5894" y2="14.3176" gradientUnits="userSpaceOnUse">
            <stop stop-color="#157315"/>
            <stop offset="0.298703" stop-color="#4E9528"/>
            <stop offset="1" stop-color="#86D633"/>
        </linearGradient>
    </defs>
</svg>
