<svg width="260" height="153" viewBox="0 0 260 153" fill="none"
    xmlns="http://www.w3.org/2000/svg">
    <path d="M0 8C0 3.58172 3.58172 0 8 0H252C256.418 0 260 3.58172 260 8V153H0V8Z" fill="#F2F2F2"/>
    <path d="M196.197 73.5129L196.18 79.3881C196.161 85.9858 191.806 92.5737 183.105 97.6076C165.6 107.735 137.11 107.735 119.481 97.6025C110.609 92.503 106.178 85.8085 106.197 79.1252L106.214 73.2501C106.195 79.9334 110.626 86.6277 119.498 91.7275C137.126 101.86 165.617 101.86 183.122 91.7325C191.823 86.6986 196.178 80.1108 196.197 73.5129Z" fill="#C8C8C8"/>
    <path d="M182.912 57.3259C200.544 67.517 200.637 84.0412 183.119 94.2327C165.611 104.419 137.116 104.419 119.483 94.2276C101.851 84.0364 101.759 67.5122 119.267 57.3263C136.784 47.1347 165.28 47.1346 182.912 57.3259Z" fill="white"/>
    <rect x="162.07" y="51.5447" width="17.7372" height="9.80216" transform="rotate(15 162.07 51.5447)" fill="url(#paint0_radial)"/>
    <path d="M183.001 54.6219C181.72 53.977 181.079 54.612 181.079 56.527V60.7934C181.079 63.6944 179.823 64.4387 177.311 63.0263V61.2346C178.025 61.6281 178.532 61.6839 178.832 61.402C179.131 61.1201 179.281 60.4576 179.282 59.4146V55.3046C179.282 53.304 179.893 52.4435 181.116 52.7233V52.6664C180.495 52.0517 180.01 51.3128 179.694 50.498C179.378 49.6832 179.237 48.8108 179.282 47.9379V43.7711C179.282 41.9317 178.625 40.6137 177.311 39.817V37.9967C178.495 38.643 179.475 39.6071 180.141 40.7806C180.807 41.9541 181.132 43.2901 181.079 44.6383V48.7912C181.079 50.7441 181.72 52.1377 183.001 52.9722V54.6219Z" fill="#8A8886"/>
    <path d="M162.384 54.6287C161.202 53.991 160.222 53.0361 159.554 51.8714C158.886 50.7067 158.556 49.3786 158.602 48.0366V43.7702C158.602 41.8549 157.962 40.4803 156.682 39.6465V37.9966C157.962 38.6413 158.603 37.987 158.602 36.0335V31.8809C158.602 28.9417 159.863 28.181 162.384 29.5987V31.419C161.078 30.7031 160.425 31.2648 160.425 33.104V37.2712C160.425 39.2621 159.81 40.1296 158.578 39.8737V39.9305C159.205 40.5371 159.694 41.2713 160.013 42.0834C160.332 42.8955 160.472 43.7667 160.425 44.6379V48.7478C160.389 49.605 160.538 50.4598 160.862 51.2541C161.2 51.9218 161.73 52.473 162.384 52.8367V54.6287Z" fill="#8A8886"/>
    <path d="M188.022 56.0107C187.066 55.422 186.279 54.5947 185.738 53.6101C185.198 52.6256 184.923 51.5175 184.94 50.3945C184.94 47.7076 186.318 47.0848 188.217 48.1813C189.186 48.7622 189.982 49.5928 190.521 50.5864C191.06 51.5801 191.322 52.7001 191.28 53.8297C191.28 56.2051 190.049 57.1812 188.022 56.0107ZM188.152 49.6443C186.99 48.9732 186.509 49.8765 186.509 51.2252C186.509 52.5486 186.973 53.937 188.124 54.6013C189.284 55.2706 189.73 54.3328 189.73 52.999C189.73 51.6974 189.269 50.2892 188.152 49.6443ZM197.035 53.4974L188.495 64.0439L187.168 63.2775L195.698 52.7257L197.035 53.4974ZM195.837 68.4115C194.881 67.8227 194.094 66.9955 193.554 66.0109C193.014 65.0263 192.739 63.9182 192.756 62.7952C192.756 60.1078 194.133 59.4857 196.032 60.582C197.002 61.1629 197.798 61.9935 198.336 62.9872C198.875 63.9808 199.137 65.1008 199.095 66.2303C199.095 68.6011 197.869 69.5843 195.837 68.4115ZM195.967 62.045C194.804 61.3736 194.324 62.278 194.324 63.6259C194.324 64.9501 194.789 66.3378 195.94 67.002C197.099 67.6714 197.545 66.7337 197.545 65.3997C197.545 64.098 197.084 62.6898 195.967 62.045H195.967Z" fill="#8A8886"/>
    <path d="M168.803 37.2192L163.445 49.7761L164.893 50.6051L166.301 47.306L172.003 50.5673L173.236 55.3781L175.245 56.5296L170.552 38.2196L168.803 37.2192ZM166.954 45.7775L169.344 40.1794L171.436 48.342L166.954 45.7775Z" fill="#8A8886"/>
    <path d="M119.512 69.2687L152.585 78.1306L148.647 92.8283L115.573 83.9664L119.512 69.2687Z" fill="url(#paint1_radial)"/>
    <path d="M156.137 73.5255C153.96 72.4295 152.872 73.5087 152.871 76.763V84.0133C152.871 88.9432 150.736 90.2081 146.467 87.8079V84.7631C147.681 85.4317 148.543 85.5265 149.052 85.0475C149.561 84.5684 149.816 83.4426 149.816 81.6701V74.6856C149.816 71.2858 150.856 69.8236 152.934 70.2989V70.2022C151.878 69.1577 151.055 67.902 150.517 66.5173C149.98 65.1327 149.741 63.6501 149.816 62.1668V55.0856C149.816 51.9598 148.7 49.72 146.467 48.366V45.2727C148.479 46.371 150.145 48.0095 151.277 50.0036C152.409 51.9978 152.961 54.2684 152.871 56.5594V63.6169C152.871 66.9355 153.96 69.3039 156.137 70.722V73.5255Z" fill="#0078D4"/>
    <path d="M121.101 73.5371C119.093 72.4535 117.427 70.8307 116.292 68.8514C115.156 66.8722 114.596 64.6152 114.674 62.3347V55.0843C114.674 51.8295 113.586 49.4935 111.41 48.0765V45.2726C113.586 46.3683 114.674 45.2564 114.674 41.9367V34.8797C114.674 29.8849 116.816 28.5921 121.101 31.0014V34.0947C118.882 32.8782 117.772 33.8328 117.772 36.9583V44.04C117.772 47.4233 116.726 48.8975 114.633 48.4625V48.5592C115.698 49.59 116.53 50.8376 117.072 52.2177C117.613 53.5979 117.852 55.0783 117.772 56.5588V63.5433C117.71 64.9999 117.963 66.4526 118.515 67.8023C119.089 68.937 119.989 69.8738 121.101 70.4919V73.5371Z" fill="#0078D4"/>
    <path d="M164.168 75.2624C162.492 74.2305 161.113 72.7807 160.166 71.0552C159.219 69.3297 158.737 67.3877 158.767 65.4196C158.767 60.7106 161.181 59.6192 164.509 61.5408C166.209 62.5589 167.603 64.0147 168.548 65.756C169.492 67.4974 169.951 69.4604 169.878 71.4399C169.878 75.603 167.721 77.3137 164.168 75.2624ZM164.395 64.1048C162.358 62.9288 161.516 64.5117 161.516 66.8754C161.516 69.1948 162.33 71.6281 164.347 72.7922C166.379 73.9653 167.161 72.3218 167.161 69.9842C167.161 67.7031 166.353 65.2351 164.395 64.1048ZM179.963 70.8576L164.997 89.3409L162.671 87.9977L177.621 69.5052L179.963 70.8576ZM177.865 96.9954C176.189 95.9635 174.81 94.5137 173.863 92.7882C172.916 91.0626 172.434 89.1206 172.464 87.1526C172.464 82.4428 174.878 81.3525 178.206 83.2737C179.906 84.2918 181.3 85.7476 182.245 87.4889C183.189 89.2302 183.648 91.1932 183.574 93.1727C183.574 97.3276 181.425 99.0508 177.865 96.9954ZM178.093 85.8377C176.054 84.661 175.213 86.246 175.213 88.6083C175.213 90.929 176.027 93.3611 178.044 94.5252C180.076 95.6982 180.858 94.0549 180.858 91.7171C180.858 89.4358 180.05 86.9678 178.092 85.8377H178.093Z" fill="#0078D4"/>
    <path d="M144.997 65.9021C145.911 69.0799 145.801 71.8718 144.699 73.3684C142.566 76.2648 140.453 76.0102 139.053 75.8373C138.775 75.8378 138.502 75.7671 138.259 75.6318C137.674 75.2553 137.247 74.6791 137.057 74.0108C136.783 73.0846 137.102 72.3938 137.767 72.4645C137.875 72.475 137.987 72.4884 138.103 72.5036C139.297 72.6484 140.789 72.8306 142.463 70.5497C143.153 69.6154 143.195 67.7672 142.58 65.6165C141.97 63.4376 140.828 61.4441 139.258 59.815C138.901 61.9651 138.148 64.3324 136.78 65.8425C136.049 66.6173 135.192 67.2631 134.246 67.7526C134.383 68.2867 134.549 68.813 134.742 69.3293C135.277 70.6274 134.657 71.5716 133.632 70.9801C133.132 70.6603 132.747 70.19 132.531 69.637C132.401 69.3263 132.26 68.9188 132.108 68.4323C130.593 68.5558 129.08 68.1765 127.802 67.3532C125.831 66.2005 124.335 64.382 123.585 62.225C123.089 60.7242 122.426 56.6384 125.256 54.3201C126.54 53.2502 128.141 52.6329 129.811 52.5636C129.934 51.0011 130.163 49.4488 130.496 47.9171C128.146 46.5355 126.449 45.3431 126.296 45.2345C125.933 44.9675 125.64 44.6173 125.44 44.2134C125.241 43.8095 125.141 43.3637 125.15 42.9133C125.232 42.1589 125.866 41.9171 126.597 42.431C127.881 43.3197 129.524 44.3627 131.133 45.2865C131.688 43.2508 132.211 41.8318 132.256 41.704C132.444 41.1936 132.949 41.0984 133.488 41.412C134.381 41.9276 135.009 43.3127 134.71 44.1104C134.703 44.1361 134.319 45.1802 133.866 46.7516C135.822 47.7986 137.927 48.5391 140.108 48.9472C140.845 49.0436 141.558 49.9499 141.787 50.775C142.045 51.697 141.711 52.3709 141.039 52.2833C138.621 51.9592 135.748 50.7429 133.175 49.408C132.926 50.504 132.698 51.69 132.546 52.8807C134.137 53.3227 135.642 54.0292 136.998 54.9706C137.01 54.81 137.011 54.7201 137.011 54.7114C137.024 53.9055 137.604 53.5849 138.332 54.0147C138.715 54.2605 139.033 54.5966 139.257 54.9936C139.481 55.3906 139.604 55.8364 139.616 56.2921C139.616 56.3417 139.605 56.5899 139.581 56.9841C139.626 57.0267 139.667 57.0629 139.711 57.1009C142.272 59.474 144.105 62.5265 144.997 65.9021ZM127.921 64.3611C128.396 64.6865 128.931 64.9126 129.495 65.0257C130.06 65.1387 130.641 65.1365 131.204 65.0192C130.519 62.076 130.057 59.0853 129.822 56.0725C128.882 56.3107 128.007 56.7578 127.264 57.3806C125.937 58.4667 125.585 60.1251 126.188 61.9499C126.486 62.9216 127.095 63.7686 127.921 64.3611ZM134.853 63.0483C135.779 61.8472 136.403 59.6229 136.699 57.7777C135.399 56.8695 133.918 56.252 132.358 55.9674C132.477 58.7792 132.829 61.5763 133.409 64.3301C133.943 63.9665 134.429 63.5357 134.853 63.0483Z" fill="#0078D4"/>
    <rect x="65.4766" y="109.5" width="47.711" height="24.6427" transform="rotate(15 65.4766 109.5)" fill="url(#paint2_radial)"/>
    <path d="M95.305 68.492L108.88 76.431V131.581L60.998 103.824V34L95.305 53.763V68.492Z" fill="url(#paint3_linear)"/>
    <path d="M60.7148 34.419L64.9148 32L99.1008 51.76L95.0198 54.179L60.7148 34.419Z" fill="#DAC7FF"/>
    <path d="M95.0215 54.1819L99.1025 51.7629L112.802 74.4279L108.602 76.8469L95.0215 54.1819Z" fill="#C1A2F9"/>
    <path d="M108.6 76.85L112.8 74.431V129.493L108.6 132V76.85Z" fill="#844CE3"/>
    <path d="M95.0215 54.182L108.596 76.858L95.0215 68.918V54.182Z" fill="#E3DAF2"/>
    <path d="M102.904 85.6792L89.0469 77.6792V75.1792L102.904 83.1792V85.6792Z" fill="#F3EDFD"/>
    <path d="M86.7953 76.3789L76.4023 70.3789V67.8789L86.7953 73.8789V76.3789Z" fill="#F3EDFD"/>
    <path d="M72.4225 68.0802L67.3965 65.1792V62.6792L72.4225 65.5802V68.0802Z" fill="#F3EDFD"/>
    <path d="M81.2525 83.1792L67.3965 75.1792V72.6792L81.2525 80.6792V83.1792Z" fill="#F3EDFD"/>
    <path d="M89.0468 87.6792L84.7168 85.1792V82.6792L89.0468 85.1792V87.6792Z" fill="#F3EDFD"/>
    <path d="M102.904 95.6792L92.5117 89.6792V87.1792L102.904 93.1792V95.6792Z" fill="#F3EDFD"/>
    <path d="M77.7885 91.1792L67.3965 85.1792V82.6792L77.7885 88.6792V91.1792Z" fill="#F3EDFD"/>
    <path d="M102.037 105.179L81.252 93.1792V90.6792L102.037 102.679V105.179Z" fill="#F3EDFD"/>
    <path d="M99.4395 111.179L102.037 112.679V115.179L99.4395 113.679V111.179Z" fill="#F3EDFD"/>
    <path d="M87.4102 104.242L96.9372 109.742V112.242L87.4102 106.742V104.242Z" fill="#F3EDFD"/>
    <path d="M67.3965 92.6792L83.8505 102.179V104.679L67.3965 95.1792V92.6792Z" fill="#F3EDFD"/>
    <defs>
        <radialGradient id="paint0_radial" cx="0" cy="0" r="1" gradientUnits="userSpaceOnUse" gradientTransform="translate(170.939 56.4458) rotate(90) scale(4.90108 8.86862)">
            <stop stop-opacity="0.15"/>
            <stop offset="1" stop-opacity="0"/>
        </radialGradient>
        <radialGradient id="paint1_radial" cx="0" cy="0" r="1" gradientUnits="userSpaceOnUse" gradientTransform="translate(134.079 81.0485) rotate(105) scale(7.60808 17.12)">
            <stop stop-opacity="0.15"/>
            <stop offset="1" stop-opacity="0"/>
        </radialGradient>
        <radialGradient id="paint2_radial" cx="0" cy="0" r="1" gradientUnits="userSpaceOnUse" gradientTransform="translate(89.3321 121.821) rotate(90) scale(12.3214 23.8555)">
            <stop stop-opacity="0.15"/>
            <stop offset="1" stop-opacity="0"/>
        </radialGradient>
        <linearGradient id="paint3_linear" x1="63.3396" y1="38.9614" x2="131.321" y2="98.1662" gradientUnits="userSpaceOnUse">
            <stop stop-color="#C9ADFF"/>
            <stop offset="1" stop-color="#9567E6"/>
        </linearGradient>
    </defs>
</svg>
