<svg width="260" height="153" viewBox="0 0 260 153" fill="none" xmlns="http://www.w3.org/2000/svg">
<path d="M183.382 84.6126L183.369 89.1821C183.354 94.3137 179.967 99.4376 173.199 103.353C159.584 111.23 137.425 111.23 123.714 103.349C116.814 99.3826 113.368 94.1758 113.382 88.9777L113.395 84.4082C113.381 89.6063 116.827 94.813 123.727 98.7794C137.438 106.66 159.597 106.66 173.212 98.7834C179.98 94.8681 183.367 89.7443 183.382 84.6126Z" fill="#C8C8C8"/>
<path d="M173.049 71.2998C186.763 79.2263 186.836 92.0784 173.211 100.005C159.593 107.928 137.43 107.928 123.716 100.001C110.003 92.0746 109.93 79.2225 123.548 71.3002C137.173 63.3734 159.336 63.3733 173.049 71.2998Z" fill="white"/>
<path d="M132.85 75.5903L165.923 84.4523L161.985 99.15L128.912 90.288L132.85 75.5903Z" fill="url(#paint0_radial)"/>
<path d="M184.936 54.1208L151.402 34.7598V48.3128L184.936 67.6738V54.1208Z" fill="#0B6A0B"/>
<path d="M184.936 71.5461L151.402 52.1851V65.7371L184.936 85.1001V71.5461Z" fill="#0B6A0B"/>
<path d="M184.936 88.9699L151.402 69.6089V83.1619L184.936 102.523V88.9699Z" fill="#0B6A0B"/>
<path d="M157.767 46.4621L178.853 58.6371V56.6081L157.767 44.4331V46.4621Z" fill="#E5FFE3"/>
<path d="M157.767 81.2121L178.853 93.3861V91.3571L157.767 79.1821V81.2121Z" fill="#E5FFE3"/>
<path d="M173.475 72.8861L163.144 66.9211V64.9331L173.475 70.9001V72.8861Z" fill="#E5FFE3"/>
<path d="M138.326 35.1418L146.886 40.0838L145.867 40.6698C145.747 40.7323 145.641 40.8184 145.556 40.9228C145.471 41.0272 145.407 41.1477 145.37 41.2773C145.332 41.4068 145.321 41.5426 145.337 41.6765C145.354 41.8104 145.397 41.9396 145.464 42.0563C145.532 42.1731 145.622 42.275 145.73 42.3559C145.838 42.4368 145.961 42.4951 146.092 42.5272C146.223 42.5593 146.359 42.5645 146.492 42.5426C146.626 42.5208 146.753 42.4722 146.867 42.3998L149.376 40.9528H149.383L149.393 40.9448C149.487 40.8863 149.571 40.8122 149.642 40.7258C149.661 40.7028 149.679 40.6808 149.696 40.6558C149.713 40.6308 149.734 40.6128 149.749 40.5868C149.765 40.5468 149.779 40.5057 149.791 40.4638C149.812 40.4257 149.832 40.3863 149.849 40.3458C149.855 40.3228 149.849 40.2998 149.849 40.2778C149.86 40.2118 149.865 40.1448 149.863 40.0778C149.844 39.9101 149.805 39.7455 149.745 39.5878L147.237 35.2278C147.171 35.114 147.084 35.0143 146.979 34.9343C146.875 34.8543 146.756 34.7956 146.629 34.7616C146.502 34.7275 146.37 34.7188 146.24 34.7359C146.11 34.753 145.984 34.7957 145.87 34.8613C145.756 34.927 145.657 35.0144 145.577 35.1186C145.497 35.2228 145.438 35.3418 145.404 35.4687C145.37 35.5956 145.361 35.7279 145.378 35.8582C145.395 35.9884 145.438 36.114 145.504 36.2278L146.153 37.3508L139.326 33.4088C139.096 33.2762 138.823 33.2403 138.566 33.3091C138.31 33.3778 138.092 33.5455 137.959 33.7753C137.827 34.0051 137.791 34.2782 137.859 34.5345C137.928 34.7907 138.096 35.0092 138.326 35.1418V35.1418Z" fill="#003067"/>
<path d="M149.857 57.3178C149.842 57.2524 149.821 57.1887 149.793 57.1278C149.782 57.0873 149.768 57.0475 149.752 57.0088L147.237 52.6518C147.104 52.422 146.886 52.2543 146.629 52.1855C146.373 52.1168 146.1 52.1527 145.87 52.2853C145.64 52.4179 145.473 52.6364 145.404 52.8926C145.335 53.1489 145.371 53.422 145.504 53.6518L146.153 54.7758L139.326 50.8348C139.096 50.7043 138.824 50.6699 138.57 50.739C138.315 50.8082 138.098 50.9754 137.966 51.2041C137.833 51.4328 137.797 51.7044 137.865 51.9597C137.932 52.215 138.098 52.4332 138.326 52.5668L146.886 57.5088L145.867 58.0998C145.752 58.165 145.652 58.2522 145.571 58.3564C145.49 58.4606 145.431 58.5798 145.396 58.7071C145.361 58.8344 145.352 58.9672 145.369 59.098C145.386 59.2288 145.429 59.3549 145.495 59.4691C145.561 59.5833 145.649 59.6834 145.754 59.7635C145.858 59.8436 145.978 59.9022 146.105 59.9359C146.233 59.9696 146.366 59.9777 146.497 59.9599C146.627 59.942 146.753 59.8985 146.867 59.8318L149.383 58.3798L149.396 58.3688C149.489 58.3109 149.572 58.2379 149.641 58.1528C149.661 58.1302 149.679 58.1065 149.696 58.0818C149.715 58.0602 149.732 58.0375 149.749 58.0138C149.766 57.9738 149.78 57.9327 149.791 57.8908C149.813 57.8527 149.832 57.8133 149.849 57.7728C149.855 57.7498 149.849 57.7268 149.849 57.7038C149.862 57.6366 149.868 57.5682 149.867 57.4998C149.869 57.4389 149.866 57.378 149.857 57.3178Z" fill="#003067"/>
<path d="M149.867 74.9241C149.868 74.8638 149.864 74.8036 149.854 74.7441C149.839 74.6784 149.818 74.6144 149.79 74.5531C149.779 74.5129 149.765 74.4735 149.749 74.4351L147.237 70.0781C147.171 69.9643 147.084 69.8645 146.979 69.7845C146.875 69.7045 146.756 69.6459 146.629 69.6118C146.503 69.5778 146.37 69.5691 146.24 69.5862C146.11 69.6033 145.984 69.6459 145.87 69.7116C145.757 69.7772 145.657 69.8647 145.577 69.9689C145.497 70.0731 145.438 70.192 145.404 70.3189C145.37 70.4458 145.361 70.5782 145.378 70.7084C145.396 70.8387 145.438 70.9643 145.504 71.0781L146.153 72.2021L139.326 68.2601C139.096 68.1296 138.824 68.0951 138.57 68.1643C138.315 68.2335 138.098 68.4007 137.966 68.6294C137.833 68.8581 137.797 69.1297 137.865 69.385C137.932 69.6403 138.098 69.8585 138.326 69.9921L146.885 74.9341L145.867 75.5201C145.752 75.5853 145.652 75.6725 145.571 75.7767C145.49 75.8809 145.431 76.0001 145.396 76.1274C145.361 76.2547 145.352 76.3875 145.369 76.5183C145.386 76.6491 145.429 76.7752 145.495 76.8894C145.561 77.0036 145.649 77.1037 145.754 77.1838C145.858 77.2639 145.978 77.3225 146.105 77.3562C146.233 77.3899 146.366 77.398 146.497 77.3802C146.627 77.3623 146.753 77.3188 146.867 77.2521L149.375 75.8051H149.382L149.392 75.7961C149.486 75.738 149.57 75.6646 149.64 75.5791C149.66 75.5551 149.678 75.5321 149.695 75.5071C149.712 75.4821 149.733 75.4641 149.748 75.4391C149.765 75.3991 149.779 75.358 149.79 75.3161C149.812 75.2777 149.831 75.238 149.848 75.1971C149.854 75.1751 149.848 75.1521 149.848 75.1291C149.861 75.0616 149.868 74.9929 149.867 74.9241Z" fill="#003067"/>
<path d="M136.311 26.0479L117.867 15.3999V28.9529L136.311 39.5999V26.0479Z" fill="#0078D4"/>
<path d="M136.311 43.4717L117.867 32.8237V46.3757L136.311 57.0247V43.4717Z" fill="#0078D4"/>
<path d="M136.311 60.9L117.867 50.249V63.8L136.311 74.45V60.9Z" fill="#0078D4"/>
<path d="M124.015 22.2217L126.672 23.2277C127.143 24.3423 127.485 25.5072 127.692 26.6997C128.034 26.2899 128.41 25.9105 128.818 25.5657C129.052 25.3545 129.343 25.2156 129.655 25.1657C129.905 25.1617 130.151 25.2312 130.363 25.3657C130.629 25.515 130.85 25.7338 131.003 25.9987C131.153 26.2547 131.231 26.5461 131.231 26.8427C131.245 26.9482 131.232 27.0557 131.192 27.1545C131.152 27.2532 131.086 27.3398 131.003 27.4057C130.914 27.449 130.815 27.4666 130.716 27.4563C130.618 27.446 130.525 27.4084 130.447 27.3477C130.246 27.2258 130.057 27.0848 129.884 26.9267C129.75 26.7952 129.605 26.6761 129.45 26.5707C129.361 26.512 129.26 26.4737 129.155 26.4584C129.05 26.4432 128.942 26.4515 128.841 26.4827C128.43 26.7081 128.092 27.0464 127.867 27.4577C128.096 28.7579 128.443 30.0347 128.902 31.2727C128.996 31.5159 129.157 31.7277 129.366 31.8837C129.466 31.9528 129.588 31.9824 129.709 31.9667C129.972 31.8431 130.203 31.6612 130.386 31.4347L130.66 31.7777C130.35 32.2505 129.888 32.6033 129.351 32.7777C129.023 32.853 128.678 32.7963 128.392 32.6197C128.075 32.4388 127.798 32.1952 127.578 31.9037C127.334 31.5505 127.141 31.1643 127.007 30.7567C126.839 30.2787 126.641 29.5577 126.413 28.5937C125.977 29.001 125.509 29.3716 125.013 29.7017C124.767 29.8774 124.477 29.9813 124.176 30.0017C123.922 29.9864 123.676 29.9077 123.461 29.7727C123.201 29.6244 122.985 29.4089 122.837 29.1487C122.684 28.9014 122.603 28.6171 122.601 28.3267C122.585 28.2144 122.6 28.0999 122.644 27.9955C122.689 27.8911 122.76 27.8006 122.852 27.7337C122.955 27.6878 123.07 27.671 123.182 27.6849C123.295 27.6988 123.401 27.743 123.491 27.8127C123.665 27.9244 123.822 28.0624 123.955 28.2217C124.114 28.4203 124.298 28.5975 124.503 28.7487C124.622 28.8256 124.761 28.8681 124.903 28.8717C125.114 28.849 125.315 28.7668 125.482 28.6347C125.758 28.4158 126.02 28.1793 126.266 27.9267C126.016 26.4292 125.634 24.9568 125.124 23.5267C124.991 23.2046 124.761 22.9314 124.467 22.7447C124.308 22.6553 124.14 22.5816 123.967 22.5247L124.015 22.2217Z" fill="#C9F0FF"/>
<path d="M124.015 39.8267L126.672 40.8337C127.143 41.948 127.485 43.1126 127.692 44.3047C128.034 43.8954 128.411 43.5161 128.818 43.1707C129.053 42.9599 129.343 42.821 129.655 42.7707C129.905 42.7668 130.151 42.8363 130.363 42.9707C130.63 43.1194 130.851 43.3383 131.003 43.6037C131.153 43.8596 131.232 44.151 131.231 44.4477C131.245 44.5531 131.232 44.6604 131.192 44.759C131.152 44.8576 131.087 44.944 131.003 45.0097C130.914 45.0534 130.815 45.0712 130.717 45.0611C130.618 45.051 130.525 45.0134 130.447 44.9527C130.246 44.83 130.058 44.6887 129.884 44.5307C129.75 44.3998 129.604 44.2807 129.45 44.1747C129.361 44.1162 129.26 44.0781 129.155 44.0628C129.05 44.0476 128.943 44.0558 128.841 44.0867C128.43 44.3123 128.092 44.651 127.867 45.0627C128.097 46.3625 128.443 47.639 128.902 48.8767C128.996 49.1201 129.157 49.3319 129.366 49.4877C129.466 49.5564 129.588 49.5863 129.709 49.5717C129.972 49.4474 130.203 49.2655 130.386 49.0397L130.66 49.3827C130.351 49.8559 129.889 50.2089 129.351 50.3827C129.023 50.459 128.678 50.4022 128.392 50.2247C128.075 50.0441 127.798 49.8004 127.578 49.5087C127.334 49.1556 127.141 48.7694 127.007 48.3617C126.839 47.8837 126.641 47.163 126.413 46.1997C125.977 46.6064 125.509 46.9767 125.013 47.3067C124.767 47.4824 124.477 47.5863 124.176 47.6067C123.922 47.5913 123.677 47.513 123.461 47.3787C123.201 47.2299 122.986 47.0145 122.837 46.7547C122.685 46.5073 122.603 46.223 122.601 45.9327C122.585 45.8203 122.6 45.7058 122.644 45.6013C122.688 45.4969 122.76 45.4064 122.852 45.3397C122.956 45.2936 123.07 45.2766 123.182 45.2905C123.295 45.3045 123.402 45.3487 123.491 45.4187C123.666 45.53 123.822 45.6676 123.955 45.8267C124.114 46.0253 124.299 46.2027 124.503 46.3547C124.622 46.4316 124.761 46.4741 124.903 46.4777C125.115 46.455 125.315 46.3724 125.482 46.2397C125.758 46.0212 126.02 45.785 126.266 45.5327C126.016 44.0351 125.634 42.5627 125.124 41.1327C124.991 40.8101 124.761 40.5366 124.467 40.3497C124.308 40.2607 124.14 40.1873 123.967 40.1307L124.015 39.8267Z" fill="#C9F0FF"/>
<path d="M124.015 57.1221L126.672 58.1281C127.143 59.2427 127.485 60.4076 127.692 61.6001C128.034 61.1903 128.41 60.8109 128.818 60.4661C129.052 60.2545 129.343 60.1155 129.655 60.0661C129.905 60.0621 130.151 60.1316 130.363 60.2661C130.625 60.4134 130.844 60.6277 130.996 60.8872C131.149 61.1467 131.23 61.4421 131.231 61.7431C131.245 61.8485 131.232 61.9559 131.192 62.0545C131.152 62.1531 131.087 62.2395 131.003 62.3051C130.914 62.3488 130.815 62.3666 130.717 62.3565C130.618 62.3464 130.525 62.3089 130.447 62.2481C130.246 62.1261 130.057 61.9848 129.884 61.8261C129.75 61.6952 129.604 61.5761 129.45 61.4701C129.361 61.4115 129.26 61.3734 129.155 61.3584C129.05 61.3433 128.942 61.3518 128.841 61.3831C128.429 61.6082 128.091 61.9466 127.867 62.3581C128.097 63.6582 128.443 64.935 128.902 66.1731C128.996 66.4162 129.156 66.6277 129.366 66.7831C129.466 66.8529 129.588 66.8829 129.709 66.8671C129.972 66.7435 130.203 66.5616 130.386 66.3351L130.66 66.6781C130.35 67.1509 129.888 67.5037 129.351 67.6781C129.023 67.7534 128.678 67.6967 128.392 67.5201C128.075 67.3388 127.798 67.0948 127.578 66.8031C127.333 66.4502 127.141 66.0639 127.007 65.6561C126.839 65.1794 126.641 64.4587 126.413 63.4941C125.977 63.9014 125.509 64.272 125.013 64.6021C124.767 64.7774 124.477 64.8812 124.176 64.9021C123.922 64.8868 123.676 64.8081 123.461 64.6731C123.201 64.5248 122.985 64.3093 122.837 64.0491C122.685 63.8017 122.603 63.5175 122.601 63.2271C122.585 63.1148 122.6 63.0003 122.644 62.8959C122.689 62.7915 122.76 62.701 122.852 62.6341C122.955 62.5882 123.07 62.5714 123.182 62.5853C123.295 62.5992 123.401 62.6434 123.491 62.7131C123.665 62.8248 123.822 62.9628 123.955 63.1221C124.114 63.3207 124.298 63.4979 124.503 63.6491C124.622 63.726 124.761 63.7685 124.903 63.7721C125.114 63.7494 125.315 63.6672 125.482 63.5351C125.758 63.3159 126.02 63.0794 126.266 62.8271C126.016 61.3295 125.634 59.8571 125.124 58.4271C124.99 58.1085 124.761 57.8388 124.469 57.6541C124.31 57.5647 124.142 57.491 123.969 57.4341L124.015 57.1221Z" fill="#C9F0FF"/>
<rect x="73.7735" y="108.086" width="47.711" height="24.6427" transform="rotate(15 73.7735 108.086)" fill="url(#paint1_radial)"/>
<path d="M71.5197 103.031V34.3594L104.964 53.626L118.402 76.0654V130.208L71.5197 103.031Z" fill="url(#paint2_linear)" stroke="#ACACAC" stroke-linecap="round" stroke-linejoin="round"/>
<path d="M71.0183 33.5004L75.2183 31.0762L109.399 50.8368L105.317 53.261L71.0183 33.5004Z" fill="#CCCCCC"/>
<path d="M105.326 53.2582L109.417 50.834L123.111 73.5007L118.911 75.9249L105.326 53.2582Z" fill="#BABABA"/>
<path d="M118.903 75.9247L123.103 73.5005V128.569L118.903 131.076V75.9247Z" fill="url(#paint3_linear)"/>
<path d="M105.326 53.2578L118.902 75.9336L105.326 67.9942V53.2578Z" fill="#D8D8D8"/>
<path d="M96.0731 76.0628L84.9504 69.6401V60.4658L96.0731 66.8885V76.0628Z" fill="#AAE2A6" stroke="#1B9117" stroke-miterlimit="10"/>
<path d="M105.488 114.526L91.9817 106.727V97.5532L105.488 105.352V114.526Z" fill="#AAE2A6" stroke="#1B9117" stroke-miterlimit="10"/>
<path d="M111.645 81.3837L98.9333 74.0443V72.2095L111.645 79.5489V81.3837Z" fill="#949494"/>
<path d="M93.6898 71.0172L87.3337 67.3475V65.5127L93.6898 69.1824V71.0172Z" fill="#1B9117"/>
<path d="M82.0928 64.3201L78.2761 62.1171V60.2822L82.0928 62.4853V64.3201Z" fill="#949494"/>
<path d="M90.1943 80.0067L78.2761 73.1264V71.2915L90.1943 78.1718V80.0067Z" fill="#949494"/>
<path d="M98.9334 85.0533L93.3713 81.8412V80.0063L98.9334 83.2185V85.0533Z" fill="#949494"/>
<path d="M111.645 92.3926L102.111 86.8881V85.0532L111.645 90.5578V92.3926Z" fill="#949494"/>
<path d="M86.2215 88.723L78.2761 84.1351V82.3003L86.2215 86.8882V88.723Z" fill="#949494"/>
<path d="M111.646 103.402L89.3987 90.558V88.7231L111.646 101.567V103.402Z" fill="#949494"/>
<path d="M108.468 110.741L111.646 112.576V114.411L108.468 112.576V110.741Z" fill="#949494"/>
<path d="M94.9607 102.943L102.906 107.531V109.366L94.9607 104.778V102.943Z" fill="#1B9117"/>
<path d="M78.2761 93.3096L89.3988 99.7323V101.567L78.2761 95.1444V93.3096Z" fill="#949494"/>
<defs>
<radialGradient id="paint0_radial" cx="0" cy="0" r="1" gradientUnits="userSpaceOnUse" gradientTransform="translate(147.418 87.3702) rotate(105) scale(7.60808 17.12)">
<stop stop-opacity="0.15"/>
<stop offset="1" stop-opacity="0"/>
</radialGradient>
<radialGradient id="paint1_radial" cx="0" cy="0" r="1" gradientUnits="userSpaceOnUse" gradientTransform="translate(97.629 120.407) rotate(90) scale(12.3214 23.8555)">
<stop stop-opacity="0.15"/>
<stop offset="1" stop-opacity="0"/>
</radialGradient>
<linearGradient id="paint2_linear" x1="63.4228" y1="52.7836" x2="123.223" y2="114.334" gradientUnits="userSpaceOnUse">
<stop offset="0.375" stop-color="#FEFEFE"/>
<stop offset="1" stop-color="#D5D5D5"/>
</linearGradient>
<linearGradient id="paint3_linear" x1="121.003" y1="131.076" x2="121.003" y2="73.5081" gradientUnits="userSpaceOnUse">
<stop stop-color="#797775"/>
<stop offset="0.157" stop-color="#868482"/>
<stop offset="1" stop-color="#AFACA9"/>
</linearGradient>
</defs>
</svg>
