<svg width="260" height="153" viewBox="0 0 260 153" fill="none" xmlns="http://www.w3.org/2000/svg">
<path d="M126.836 44.605L84.4604 110.355" stroke="#B3B0AD" stroke-width="2" stroke-linecap="round"/>
<path d="M84.4614 110.292L178.211 57.7298" stroke="#B3B0AD" stroke-width="2" stroke-linecap="round"/>
<line x1="84.4248" y1="110.655" x2="188.122" y2="110.655" stroke="#B3B0AD" stroke-width="2" stroke-linecap="round"/>
<path d="M154.143 43.3849L154.134 46.6292C154.124 50.2727 151.718 53.9106 146.914 56.6904C137.247 62.2831 121.514 62.2832 111.779 56.6877C106.88 53.8716 104.433 50.1747 104.444 46.4841L104.453 43.2397C104.442 46.9304 106.889 50.6271 111.788 53.4433C121.523 59.0388 137.256 59.0388 146.923 53.4461C151.728 50.6663 154.133 47.0283 154.143 43.3849Z" fill="#C8C8C8"/>
<path d="M146.807 33.9327C156.544 39.5605 156.595 48.6855 146.922 54.3135C137.253 59.9384 121.518 59.9385 111.781 54.3107C102.044 48.6829 101.993 39.5579 111.661 33.933C121.335 28.305 137.07 28.3049 146.807 33.9327Z" fill="white"/>
<path d="M118.031 37.9956L139.939 43.8659L137.33 53.6019L115.422 47.7316L118.031 37.9956Z" fill="url(#paint0_radial)"/>
<path d="M144.268 42.046C143.052 41.4338 142.444 42.0367 142.444 43.8546V47.9048C142.444 50.6587 141.252 51.3653 138.866 50.0245V48.3236C139.545 48.6971 140.026 48.7501 140.311 48.4825C140.595 48.2148 140.737 47.5859 140.738 46.5958V42.6941C140.738 40.7949 141.318 39.9781 142.479 40.2436V40.1896C141.889 39.6061 141.429 38.9047 141.129 38.1311C140.829 37.3576 140.696 36.5295 140.738 35.7008V31.7451C140.738 29.999 140.114 28.7478 138.866 27.9914V26.2634C139.991 26.8769 140.921 27.7922 141.554 28.9062C142.186 30.0202 142.494 31.2886 142.444 32.5684V36.5109C142.444 38.3647 143.052 39.6878 144.268 40.4799V42.046Z" fill="#0078D4"/>
<path d="M119.731 39.1829C118.61 38.5776 117.679 37.6711 117.045 36.5654C116.411 35.4597 116.098 34.1989 116.141 32.925V28.8748C116.141 27.0566 115.534 25.7517 114.318 24.9601V23.3938C115.534 24.0059 116.141 23.3847 116.141 21.5302V17.5881C116.141 14.7979 117.338 14.0757 119.731 15.4216V17.1496C118.492 16.47 117.872 17.0032 117.872 18.7492V22.7052C117.872 24.5952 117.287 25.4187 116.118 25.1757V25.2297C116.713 25.8055 117.178 26.5025 117.481 27.2735C117.783 28.0445 117.917 28.8715 117.872 29.6985V33.6002C117.837 34.4138 117.979 35.2254 118.287 35.9794C118.607 36.6132 119.111 37.1365 119.731 37.4818V39.1829Z" fill="#0078D4"/>
<path d="M129.155 31.8465C131.711 33.2781 134.267 36.0391 136.108 39.6181C136.589 40.5006 136.868 41.4784 136.926 42.4814C136.926 43.7084 136.006 44.2198 134.881 43.6062L129.053 40.2316L123.224 36.8569C122.638 36.4989 122.147 36.0057 121.791 35.4185C121.435 34.8314 121.225 34.1675 121.179 33.4825C121.163 33.1182 121.228 32.755 121.369 32.419C121.511 32.083 121.725 31.7826 121.997 31.5396C124.042 30.1082 126.598 30.4149 129.155 31.8465Z" fill="#0078D4"/>
<path d="M129.155 32.4601C131.609 33.8917 133.654 32.767 133.654 29.8014C133.654 26.9381 131.609 23.4614 129.155 21.9276C126.701 20.496 124.655 21.6206 124.655 24.5863C124.655 27.5519 126.598 31.0285 129.155 32.4601Z" fill="#0078D4"/>
<path d="M199.031 106.959L199.022 110.203C199.012 113.847 196.606 117.485 191.802 120.265C182.135 125.857 166.402 125.857 156.667 120.262C151.768 117.446 149.321 113.749 149.332 110.058L149.341 106.814C149.33 110.505 151.777 114.201 156.676 117.018C166.411 122.613 182.144 122.613 191.811 117.02C196.616 114.24 199.021 110.603 199.031 106.959Z" fill="#C8C8C8"/>
<path d="M191.695 97.507C201.432 103.135 201.483 112.26 191.81 117.888C182.141 123.513 166.406 123.513 156.669 117.885C146.932 112.257 146.881 103.132 156.549 97.5072C166.223 91.8792 181.959 91.8791 191.695 97.507Z" fill="white"/>
<path d="M163.094 102.969L185.002 108.839L182.394 118.575L160.485 112.705L163.094 102.969Z" fill="url(#paint1_radial)"/>
<path d="M188.307 106.596C187.073 105.974 186.455 106.586 186.455 108.432V112.543C186.455 115.338 185.245 116.056 182.823 114.695V112.968C184.349 113.808 184.723 112.987 184.723 111.214V107.254C184.723 105.326 185.312 104.496 186.491 104.766V104.711C185.892 104.119 185.425 103.407 185.12 102.622C184.816 101.836 184.68 100.996 184.723 100.155V96.1392C184.723 94.3667 184.09 93.0966 182.823 92.3289V90.5747C183.965 91.1975 184.909 92.1267 185.551 93.2575C186.193 94.3882 186.506 95.6758 186.455 96.9749V100.977C186.455 102.859 187.072 104.202 188.307 105.006V106.596Z" fill="#0078D4"/>
<path d="M163.4 103.689C162.262 103.075 161.317 102.155 160.673 101.032C160.03 99.9099 159.712 98.6301 159.756 97.3369V93.2255C159.756 91.3799 159.139 90.0552 157.905 89.2517V87.6618C159.139 88.2831 159.756 87.6525 159.756 85.7701V81.7684C159.756 78.9361 160.971 78.203 163.4 79.5692V81.3233C162.142 80.6335 161.513 81.1747 161.513 82.9471V86.9628C161.513 88.8813 160.92 89.7173 159.733 89.4706V89.5255C160.337 90.1099 160.809 90.8174 161.116 91.6001C161.423 92.3827 161.558 93.2222 161.513 94.0617V98.0222C161.478 98.8482 161.621 99.672 161.934 100.437C162.259 101.081 162.77 101.612 163.4 101.962V103.689Z" fill="#0078D4"/>
<path d="M173.444 87.0159C178.227 89.7779 182.105 96.4949 182.105 102.016C182.105 107.537 178.227 109.779 173.444 107.016C168.661 104.253 164.782 97.5399 164.782 92.0169C164.782 86.4939 168.66 84.2539 173.444 87.0159ZM175.989 102.987L170.898 100.048C171.463 102.788 172.445 104.942 173.444 105.519C174.443 106.096 175.424 105.075 175.989 102.987ZM169.554 99.2719L167.196 97.9109C168.029 99.9341 169.231 101.785 170.742 103.368C170.26 102.189 169.891 100.967 169.642 99.7179L169.554 99.2719ZM179.691 105.125L177.334 103.764C177.139 104.747 176.733 105.676 176.145 106.488C176.762 106.59 177.395 106.536 177.987 106.332C178.578 106.127 179.109 105.778 179.531 105.316L179.691 105.125ZM169.194 92.5639L166.287 90.8849V90.8999C166.149 91.5125 166.082 92.1389 166.087 92.7669C166.098 93.8737 166.256 94.9741 166.559 96.0389L169.307 97.6259C169.179 96.5944 169.114 95.5562 169.112 94.5169C169.112 93.8329 169.14 93.1799 169.194 92.5639ZM176.382 96.7149L170.502 93.3179C170.443 93.9249 170.411 94.5759 170.411 95.2669C170.412 96.3103 170.482 97.3525 170.619 98.3869L176.268 101.649C176.411 100.695 176.48 99.7321 176.476 98.7679C176.476 98.0779 176.444 97.3899 176.382 96.7149ZM180.598 99.1479L177.69 97.4699C177.744 98.1489 177.772 98.8339 177.772 99.5179C177.776 100.485 177.713 101.451 177.584 102.409L180.332 103.996C180.661 103.125 180.821 102.199 180.803 101.268C180.8 100.557 180.733 99.8469 180.601 99.1479H180.598ZM170.743 87.5469H170.723C169.92 87.4153 169.096 87.5492 168.375 87.9281C167.655 88.3071 167.078 88.9105 166.732 89.6469L169.372 91.1669C169.526 89.8662 169.996 88.6231 170.743 87.5469V87.5469ZM173.443 88.5159L173.343 88.4629C172.248 87.9459 171.189 89.3329 170.697 91.9329L176.19 95.1029C175.7 91.9499 174.646 89.3419 173.553 88.5849L173.443 88.5159ZM176.143 90.6669L176.235 90.8939C176.855 92.4961 177.284 94.166 177.512 95.8689L180.152 97.3919C179.374 94.9963 178.094 92.7943 176.398 90.9329L176.143 90.6669Z" fill="#0078D4"/>
<path d="M209.031 58.0321L209.022 61.2765C209.011 64.9199 206.606 68.5578 201.802 71.3377C192.135 76.9303 176.402 76.9304 166.667 71.3349C161.768 68.5188 159.321 64.822 159.331 61.1313L159.341 57.887C159.33 61.5776 161.777 65.2743 166.676 68.0905C176.411 73.6861 192.144 73.686 201.811 68.0933C206.616 65.3135 209.021 61.6756 209.031 58.0321Z" fill="#C8C8C8"/>
<path d="M201.695 48.58C211.432 54.2077 211.483 63.3327 201.81 68.9607C192.141 74.5856 176.405 74.5857 166.669 68.9579C156.932 63.3301 156.881 54.2051 166.549 48.5802C176.223 42.9522 191.958 42.9521 201.695 48.58Z" fill="white"/>
<path d="M174.177 53.5684L196.085 59.4387L193.476 69.1746L171.568 63.3043L174.177 53.5684Z" fill="url(#paint2_radial)"/>
<path d="M198.897 56.465C197.681 55.8528 197.073 56.4556 197.073 58.2735V62.3237C197.073 65.0777 195.88 65.7842 193.495 64.4434V62.7425C194.174 63.1161 194.655 63.169 194.939 62.9014C195.224 62.6338 195.366 62.0049 195.366 61.0147V57.113C195.366 55.2138 195.947 54.397 197.108 54.6625V54.6085C196.518 54.025 196.058 53.3236 195.758 52.5501C195.458 51.7766 195.324 50.9484 195.366 50.1198V46.1641C195.366 44.4179 194.743 43.1667 193.495 42.4104V40.6824C194.62 41.2959 195.55 42.2112 196.182 43.3252C196.814 44.4392 197.123 45.7075 197.073 46.9874V50.9298C197.073 52.7837 197.681 54.1067 198.897 54.8989V56.465Z" fill="#0078D4"/>
<path d="M174.362 53.6019C173.24 52.9966 172.31 52.09 171.675 50.9843C171.041 49.8787 170.728 48.6179 170.772 47.344V43.2937C170.772 41.4755 170.164 40.1706 168.949 39.379V37.8127C170.164 38.4248 170.772 37.8036 170.772 35.9492V32.007C170.772 29.2168 171.969 28.4946 174.362 29.8405V31.5685C173.122 30.889 172.503 31.4222 172.503 33.1681V37.1241C172.503 39.0141 171.918 39.8376 170.749 39.5947V39.6487C171.344 40.2245 171.809 40.9214 172.111 41.6924C172.414 42.4634 172.547 43.2904 172.502 44.1174V48.0191C172.468 48.8328 172.609 49.6443 172.917 50.3983C173.238 51.0322 173.741 51.5555 174.362 51.9007V53.6019Z" fill="#0078D4"/>
<path d="M192.462 49.5271L183.971 36.2769L175.462 39.0994L177.154 40.1371V52.0084L178.988 53.1331V45.5886L182.555 47.7765V55.3209L190.77 60.3577V48.4875L192.462 49.5271ZM189.075 55.5269L184.524 52.6206V48.8733L189.075 51.7795V55.5269Z" fill="#0078D4"/>
<rect x="61.7295" y="113.572" width="44.8331" height="24.6427" transform="rotate(15 61.7295 113.572)" fill="url(#paint3_radial)"/>
<path d="M103.929 59.1587L60.3397 34L57.2049 35.8234L100.78 60.9822C101.426 61.4054 101.964 61.9748 102.349 62.6443C102.735 63.3138 102.958 64.0646 102.999 64.8361L102.808 132.133C102.837 132.426 102.788 132.721 102.666 132.989C102.544 133.257 102.354 133.488 102.114 133.659L105.252 131.835C105.492 131.665 105.683 131.434 105.804 131.166C105.926 130.898 105.975 130.603 105.946 130.31L106.138 62.9993C106.097 62.2306 105.876 61.4823 105.492 60.815C105.109 60.1478 104.573 59.5803 103.929 59.1587Z" fill="url(#paint4_linear)"/>
<path d="M103.929 59.1587L60.3397 34L57.2049 35.8235L58.3181 36.4658L60.3464 35.2869L103.372 60.1283C103.845 60.4524 104.239 60.8786 104.525 61.3753C104.811 61.872 104.981 62.4266 105.024 62.9982L104.839 132.074L105.252 131.834C105.492 131.663 105.683 131.433 105.804 131.165C105.926 130.897 105.975 130.602 105.946 130.309L106.138 62.9982C106.096 62.2298 105.875 61.4819 105.491 60.8149C105.108 60.1479 104.572 59.5805 103.929 59.1587Z" fill="url(#paint5_linear)"/>
<path d="M100.779 60.9813C101.426 61.4047 101.964 61.9743 102.349 62.644C102.735 63.3137 102.958 64.0647 102.999 64.8364L102.807 132.61C102.807 133.848 101.923 134.356 100.85 133.736L57.1392 108.502C57.0967 108.478 57.0615 108.442 57.037 108.4C57.0126 108.357 56.9998 108.309 57 108.26L57.2048 35.8237L100.779 60.9813Z" fill="url(#paint6_linear)"/>
<path d="M81.5543 72.9728C82.8723 72.3338 85.0053 74.3688 85.3615 76.5997C85.4853 77.3448 85.7761 78.0523 86.2119 78.6692C86.6478 79.286 87.2175 79.7964 87.8785 80.162C89.6596 80.9501 90.9777 83.8111 90.2318 85.2594C89.7342 86.2268 90.1528 87.9534 91.1936 89.2314C92.7522 91.1461 92.7522 93.741 91.1936 93.8546C90.1528 93.9303 89.7342 95.1737 90.2318 96.7155C90.9777 99.0266 89.6574 100.362 87.8785 99.0967C86.6918 98.2529 85.5975 98.5401 85.3615 99.7557C85.0086 101.578 82.8723 101.146 81.5543 98.9854C80.6749 97.5438 79.3279 96.7589 78.444 97.1898C77.1259 97.8287 74.993 95.7938 74.6357 93.5629C74.5124 92.8176 74.2219 92.1099 73.7859 91.4929C73.35 90.876 72.78 90.3658 72.1187 90.0006C70.3375 89.2124 69.0195 86.3504 69.7664 84.9021C70.264 83.9347 69.8455 82.2081 68.8046 80.9301C67.2461 79.0154 67.2461 76.4205 68.8046 76.308C69.8455 76.2323 70.264 74.9877 69.7664 73.4459C69.0195 71.136 70.3409 69.799 72.1187 71.0648C73.3065 71.9086 74.4008 71.6214 74.6357 70.4069C74.9897 68.5834 77.1259 69.0153 78.444 71.1761C79.3223 72.6188 80.6749 73.4003 81.5543 72.9728Z" fill="#FFCA82"/>
<path d="M86.0834 95.6219C89.4437 93.6819 89.4437 87.391 86.0834 81.5709C82.7231 75.7507 77.2751 72.6053 73.9148 74.5453C70.5546 76.4854 70.5546 82.7763 73.9149 88.5964C77.2751 94.4165 82.7232 97.562 86.0834 95.6219Z" fill="#FEAE3F"/>
<path d="M61.9703 51.6577L98.0275 72.4749V68.69L61.9703 47.8728V51.6577Z" fill="#FFD399"/>
<path d="M70.165 108.514L89.8322 119.868V117.976L70.165 106.621V108.514Z" fill="#FFCA82"/>
<path d="M70.1651 102.891L89.8323 114.245V112.353L70.1651 100.998V102.891Z" fill="#FFCA82"/>
<defs>
<radialGradient id="paint0_radial" cx="0" cy="0" r="1" gradientUnits="userSpaceOnUse" gradientTransform="translate(127.681 45.7987) rotate(105) scale(5.03971 11.3406)">
<stop stop-opacity="0.15"/>
<stop offset="1" stop-opacity="0"/>
</radialGradient>
<radialGradient id="paint1_radial" cx="0" cy="0" r="1" gradientUnits="userSpaceOnUse" gradientTransform="translate(172.744 110.772) rotate(105) scale(5.03971 11.3405)">
<stop stop-opacity="0.15"/>
<stop offset="1" stop-opacity="0"/>
</radialGradient>
<radialGradient id="paint2_radial" cx="0" cy="0" r="1" gradientUnits="userSpaceOnUse" gradientTransform="translate(183.826 61.3715) rotate(105) scale(5.03971 11.3406)">
<stop stop-opacity="0.15"/>
<stop offset="1" stop-opacity="0"/>
</radialGradient>
<radialGradient id="paint3_radial" cx="0" cy="0" r="1" gradientUnits="userSpaceOnUse" gradientTransform="translate(84.1461 125.893) rotate(90) scale(12.3214 22.4166)">
<stop stop-opacity="0.15"/>
<stop offset="1" stop-opacity="0"/>
</radialGradient>
<linearGradient id="paint4_linear" x1="60.1825" y1="34" x2="87.0484" y2="137.396" gradientUnits="userSpaceOnUse">
<stop stop-color="#ACF3FD"/>
<stop offset="0.317081" stop-color="#ACF3FD"/>
<stop offset="0.953125" stop-color="#54B5F0"/>
<stop offset="1" stop-color="#40B6FF"/>
</linearGradient>
<linearGradient id="paint5_linear" x1="57.2049" y1="35.8067" x2="98.1207" y2="131.858" gradientUnits="userSpaceOnUse">
<stop stop-color="#219AFF"/>
<stop offset="0.484375" stop-color="#0082E6"/>
<stop offset="1" stop-color="#0063B3"/>
</linearGradient>
<linearGradient id="paint6_linear" x1="57" y1="37.6323" x2="99.7363" y2="131.845" gradientUnits="userSpaceOnUse">
<stop stop-color="#219AFF"/>
<stop offset="0.484375" stop-color="#0082E6"/>
<stop offset="1" stop-color="#0063B3"/>
</linearGradient>
</defs>
</svg>
