<svg width="242" height="138" viewBox="0 0 242 138" fill="none" xmlns="http://www.w3.org/2000/svg">
<path d="M117.307 39.5L74.9316 105.25" stroke="#B3B0AD" stroke-width="2" stroke-linecap="round"/>
<path d="M74.9336 105.187L168.683 52.625" stroke="#B3B0AD" stroke-width="2" stroke-linecap="round"/>
<line x1="74.8965" y1="105.55" x2="178.594" y2="105.55" stroke="#B3B0AD" stroke-width="2" stroke-linecap="round"/>
<path d="M144.615 39.0517L144.605 42.2961C144.595 45.9395 142.19 49.5775 137.385 52.3573C127.719 57.9499 111.986 57.95 102.251 52.3545C97.3512 49.5384 94.9045 45.8416 94.9151 42.1509L94.9243 38.9066C94.9138 42.5973 97.3605 46.294 102.26 49.1102C111.995 54.7057 127.728 54.7056 137.394 49.1129C142.199 46.3331 144.604 42.6952 144.615 39.0517Z" fill="#C8C8C8"/>
<path d="M137.278 29.5997C147.015 35.2275 147.067 44.3525 137.393 49.9804C127.725 55.6053 111.989 55.6054 102.252 49.9776C92.5152 44.3498 92.4639 35.2248 102.132 29.5999C111.806 23.9719 127.542 23.9718 137.278 29.5997Z" fill="white"/>
<path d="M108.502 33.6627L130.41 39.533L127.801 49.269L105.893 43.3987L108.502 33.6627Z" fill="url(#paint0_radial)"/>
<path d="M134.74 36.7132C133.524 36.1009 132.916 36.7038 132.916 38.5217V42.5719C132.916 45.3258 131.723 46.0324 129.338 44.6916V42.9907C130.016 43.3642 130.498 43.4172 130.782 43.1496C131.067 42.882 131.209 42.2531 131.209 41.2629V37.3612C131.209 35.462 131.79 34.6452 132.951 34.9107V34.8567C132.361 34.2732 131.901 33.5718 131.601 32.7983C131.301 32.0247 131.167 31.1966 131.209 30.3679V26.4123C131.209 24.6661 130.585 23.4149 129.338 22.6586V20.9306C130.462 21.5441 131.393 22.4594 132.025 23.5734C132.657 24.6873 132.966 25.9557 132.916 27.2356V31.178C132.916 33.0319 133.524 34.3549 134.74 35.1471V36.7132Z" fill="#0078D4"/>
<path d="M110.202 33.85C109.081 33.2447 108.15 32.3381 107.516 31.2325C106.882 30.1268 106.569 28.866 106.612 27.5921V23.5419C106.612 21.7236 106.005 20.4187 104.789 19.6271V18.0609C106.005 18.6729 106.613 18.0518 106.612 16.1973V12.2551C106.612 9.46495 107.809 8.74277 110.202 10.0886V11.8166C108.963 11.1371 108.343 11.6703 108.343 13.4163V17.3723C108.343 19.2623 107.759 20.0858 106.589 19.8428V19.8968C107.185 20.4726 107.649 21.1696 107.952 21.9405C108.254 22.7115 108.388 23.5385 108.343 24.3656V28.2672C108.308 29.0809 108.45 29.8925 108.758 30.6464C109.078 31.2803 109.582 31.8036 110.202 32.1489V33.85Z" fill="#0078D4"/>
<path d="M120.624 35.5846V37.4445C120.624 37.8507 120.339 38.0148 119.991 37.8127C119.805 37.6917 119.651 37.5288 119.54 37.3371C119.43 37.1454 119.366 36.9304 119.354 36.7094V34.9445C118.163 34.2723 117.084 33.4169 116.159 32.4098C115.831 32.0498 115.638 31.5865 115.615 31.0999V30.9947C115.615 30.207 116.306 30.0904 116.938 30.752C117.649 31.5231 118.462 32.194 119.354 32.7463V27.4232C118.12 26.1564 117.056 24.7342 116.19 23.1927C115.725 22.2517 115.478 21.2181 115.467 20.1687C115.467 17.6972 117.172 16.8525 119.351 17.7707V16.3538C119.351 15.9476 119.636 15.7835 119.988 15.9856C120.172 16.1069 120.326 16.27 120.436 16.4616C120.546 16.6533 120.61 16.8682 120.621 17.0889V18.4583C121.458 18.9494 122.245 19.5198 122.972 20.1617C123.365 20.5327 123.6 21.0421 123.625 21.5824C123.625 22.5102 122.945 22.5203 122.372 21.9848C121.836 21.4854 121.25 21.0413 120.624 20.6591V26.1723C121.827 27.4314 122.874 28.8308 123.742 30.3401C124.963 32.7146 124.828 35.0402 123.535 35.7576C122.838 36.1441 121.867 36.0865 120.624 35.5846ZM119.351 24.7553V19.983C119.156 19.8907 118.943 19.8474 118.728 19.8568C118.513 19.8662 118.304 19.928 118.118 20.0368C117.478 20.4906 117.563 21.8746 118.035 22.8593C118.396 23.542 118.837 24.1786 119.351 24.7553V24.7553ZM120.624 28.8034V33.4078C121.798 33.7982 122.385 33.4313 122.385 32.3071C122.385 31.3667 121.798 30.1988 120.624 28.8034Z" fill="#0078D4"/>
<path d="M199.419 52.9274L199.41 56.1718C199.4 59.8152 196.995 63.4531 192.19 66.233C182.523 71.8256 166.79 71.8257 157.055 66.2302C152.156 63.4141 149.709 59.7173 149.72 56.0266L149.729 52.7823C149.718 56.4729 152.165 60.1696 157.065 62.9858C166.799 68.5813 182.532 68.5813 192.199 62.9886C197.004 60.2088 199.409 56.5709 199.419 52.9274Z" fill="#C8C8C8"/>
<path d="M192.083 43.4754C201.82 49.1031 201.871 58.2281 192.198 63.8561C182.529 69.481 166.793 69.4811 157.057 63.8533C147.32 58.2255 147.269 49.1005 156.937 43.4756C166.61 37.8476 182.346 37.8475 192.083 43.4754Z" fill="white"/>
<path d="M166.422 47.7898L188.33 53.6601L185.721 63.396L163.813 57.5257L166.422 47.7898Z" fill="url(#paint1_radial)"/>
<path d="M191.258 50.7658C190.005 50.135 189.379 50.7562 189.379 52.6293V56.8025C189.379 59.6401 188.15 60.3681 185.692 58.9866V57.234C186.391 57.6189 186.887 57.6735 187.181 57.3977C187.474 57.122 187.62 56.474 187.62 55.4537V51.4336C187.62 49.4767 188.219 48.635 189.415 48.9086V48.853C188.807 48.2518 188.333 47.529 188.024 46.732C187.715 45.935 187.577 45.0817 187.62 44.2279V40.152C187.62 38.3529 186.978 37.0636 185.692 36.2843V34.5039C186.851 35.136 187.81 36.0791 188.461 37.2269C189.112 38.3747 189.43 39.6816 189.379 41.0004V45.0625C189.379 46.9727 190.005 48.3359 191.258 49.1521V50.7658Z" fill="#0078D4"/>
<path d="M165.978 47.8156C164.822 47.1919 163.864 46.2578 163.21 45.1186C162.557 43.9794 162.234 42.6803 162.279 41.3676V37.1944C162.279 35.321 161.653 33.9764 160.4 33.1608V31.5469C161.653 32.1776 162.279 31.5376 162.279 29.6268V25.5649C162.279 22.6899 163.512 21.9458 165.978 23.3325V25.113C164.701 24.4129 164.062 24.9623 164.062 26.7613V30.8374C164.062 32.7848 163.46 33.6333 162.255 33.383V33.4386C162.869 34.0319 163.347 34.7501 163.659 35.5444C163.971 36.3389 164.108 37.191 164.062 38.0431V42.0633C164.027 42.9017 164.172 43.7379 164.49 44.5148C164.82 45.1679 165.339 45.7071 165.978 46.0628V47.8156Z" fill="#0078D4"/>
<path d="M183.404 39.1101L172.421 32.7681C171.568 32.2757 170.789 32.3783 170.407 33.0422L168.779 35.8625H167.152C166.77 35.8625 166.529 36.1729 166.529 36.6653V39.7597C166.551 40.15 166.663 40.5299 166.859 40.8684C167.054 41.207 167.327 41.4947 167.654 41.7083L168.217 42.0331C168.259 42.8138 168.485 43.5735 168.876 44.2507C169.267 44.9278 169.812 45.5032 170.467 45.9303C171.71 46.6474 172.717 46.0667 172.717 44.6312L178.904 48.2037C178.947 48.9844 179.172 49.7442 179.563 50.4213C179.954 51.0984 180.499 51.6739 181.154 52.1009C182.398 52.818 183.404 52.2373 183.404 50.8018C184.027 51.1604 184.529 50.8694 184.529 50.1523V41.0588C184.508 40.6684 184.395 40.2884 184.2 39.9498C184.004 39.6113 183.732 39.3236 183.404 39.1101V39.1101ZM170.467 44.6312C170.14 44.4173 169.867 44.1295 169.672 43.7911C169.477 43.4526 169.363 43.0729 169.342 42.6826C169.342 41.9668 169.847 41.6745 170.467 42.0331C170.794 42.2468 171.066 42.5346 171.262 42.8731C171.457 43.2116 171.57 43.5914 171.592 43.9817C171.596 44.6975 171.088 44.9898 170.467 44.6312ZM173.844 38.7854L170.467 36.8368L171.844 34.7777C172.035 34.4478 172.423 34.3945 172.849 34.64L173.842 35.2129L173.844 38.7854ZM181.157 50.8018C180.83 50.588 180.557 50.3002 180.362 49.9617C180.167 49.6232 180.054 49.2435 180.032 48.8532C180.032 48.1374 180.537 47.8451 181.157 48.2037C181.484 48.4174 181.757 48.7052 181.952 49.0437C182.147 49.3822 182.26 49.762 182.282 50.1523C182.279 50.8681 181.775 51.1604 181.154 50.8018H181.157Z" fill="#0078D4"/>
<path d="M189.419 101.854L189.41 105.099C189.4 108.742 186.995 112.38 182.19 115.16C172.523 120.752 156.79 120.752 147.055 115.157C142.156 112.341 139.709 108.644 139.72 104.953L139.729 101.709C139.718 105.4 142.165 109.096 147.065 111.913C156.799 117.508 172.532 117.508 182.199 111.915C187.004 109.136 189.409 105.498 189.419 101.854Z" fill="#C8C8C8"/>
<path d="M182.083 92.4021C191.82 98.0299 191.871 107.155 182.198 112.783C172.529 118.408 156.793 118.408 147.057 112.78C137.32 107.152 137.269 98.0272 146.937 92.4024C156.61 86.7744 172.346 86.7743 182.083 92.4021Z" fill="white"/>
<path d="M153.336 99.124L175.244 104.994L172.635 114.73L150.727 108.86L153.336 99.124Z" fill="url(#paint2_radial)"/>
<path d="M179.574 102.174C178.358 101.562 177.75 102.165 177.75 103.983V108.033C177.75 110.787 176.557 111.494 174.172 110.153V108.452C174.85 108.826 175.332 108.878 175.616 108.611C175.901 108.343 176.043 107.714 176.043 106.724V102.823C176.043 100.923 176.624 100.106 177.785 100.372V100.318C177.195 99.7345 176.735 99.0331 176.435 98.2596C176.135 97.486 176.001 96.6579 176.043 95.8292V91.8735C176.043 90.1274 175.419 88.8762 174.172 88.1199V86.3918C175.296 87.0054 176.227 87.9207 176.859 89.0347C177.491 90.1486 177.8 91.417 177.75 92.6969V96.6393C177.75 98.4932 178.358 99.8162 179.574 100.608V102.174Z" fill="#0078D4"/>
<path d="M155.036 99.3113C153.915 98.706 152.984 97.7994 152.35 96.6938C151.716 95.5881 151.403 94.3273 151.446 93.0534V89.0032C151.446 87.1849 150.839 85.88 149.623 85.0884V83.5221C150.839 84.1342 151.447 83.5131 151.446 81.6586V77.7164C151.446 74.9262 152.643 74.2041 155.036 75.5499V77.2779C153.797 76.5984 153.177 77.1316 153.177 78.8776V82.8336C153.177 84.7236 152.592 85.5471 151.423 85.3041V85.3581C152.019 85.9339 152.483 86.6309 152.786 87.4018C153.088 88.1728 153.222 88.9998 153.177 89.8269V93.7285C153.142 94.5422 153.284 95.3537 153.592 96.1077C153.912 96.7416 154.416 97.2649 155.036 97.6102V99.3113Z" fill="#0078D4"/>
<path d="M167.767 97.6505L165.767 96.4955V94.1865L167.767 95.3415V97.6505ZM170.767 99.383L168.767 98.228V95.918L170.767 97.073V99.383ZM171.767 93.609L167.766 91.3001V84.9487C167.748 84.6017 167.647 84.2639 167.474 83.9629C167.3 83.6619 167.058 83.406 166.767 83.2162L158.767 78.5973C158.214 78.279 157.767 78.5373 157.767 79.1748V98.8055L172.767 107.466V95.3415C172.748 94.9945 172.648 94.6568 172.474 94.3558C172.3 94.0548 172.058 93.799 171.767 93.609V93.609ZM171.767 105.733L169.767 104.578V101.114L166.767 99.383V102.847L164.767 101.692V91.299L171.767 95.3405V105.733ZM161.766 98.8055L159.767 97.6505V95.3415L161.766 96.4955V98.8055ZM161.766 94.1865L159.767 93.0326V90.7226L161.766 91.8765V94.1865ZM161.766 89.5676L159.767 88.4126V86.1037L161.766 87.2576V89.5676ZM161.766 84.9487L159.767 83.7937V81.4848L161.766 82.6398V84.9487ZM163.767 83.7937L165.767 84.9487V87.2576L163.767 86.1037V83.7937Z" fill="#0078D4"/>
<rect x="52.0088" y="101.572" width="47.711" height="24.6427" transform="rotate(15 52.0088 101.572)" fill="url(#paint3_radial)"/>
<path d="M81.3529 66.911L94.9279 74.85V130L47.0469 102.243V32.419L81.3529 52.182V66.911Z" fill="url(#paint4_linear)"/>
<path d="M47.0469 32.419L51.2469 30L85.4319 49.76L81.3469 52.179L47.0469 32.419Z" fill="#AFEDAB"/>
<path d="M81.3535 52.182L85.4355 49.763L99.1355 72.428L94.9355 74.847L81.3535 52.182Z" fill="#70C96B"/>
<path d="M81.3535 52.182L94.9295 74.858L81.3535 66.918V52.182Z" fill="#AFEDAB"/>
<path d="M94.9287 74.85L99.1287 72.432V127.493L94.9287 130V74.85Z" fill="#489942"/>
<path d="M58.3772 64.5151L51.4492 60.5151V52.5151L58.3772 56.5151V64.5151Z" fill="#DBFAD9"/>
<path d="M69.6352 81.0151L51.4492 70.5151V68.5151L69.6352 79.0151V81.0151Z" fill="#DBFAD9"/>
<path d="M89.5554 92.5151L84.3594 89.5151V87.5151L89.5554 90.5151V92.5151Z" fill="#DBFAD9"/>
<path d="M65.3052 84.5151L51.4492 76.5151V74.5151L65.3052 82.5151V84.5151Z" fill="#DBFAD9"/>
<path d="M89.5554 98.5151L84.3594 95.5151V93.5151L89.5554 96.5151V98.5151Z" fill="#DBFAD9"/>
<path d="M69.6352 93.0151L51.4492 82.5151V80.5151L69.6352 91.0151V93.0151Z" fill="#DBFAD9"/>
<path d="M89.5554 104.515L84.3594 101.515V99.5151L89.5554 102.515V104.515Z" fill="#DBFAD9"/>
<path d="M89.5554 116.515L84.3594 113.515V111.515L89.5554 114.515V116.515Z" fill="#DBFAD9"/>
<path d="M80.8943 87.5151L75.6973 84.5151V82.5151L80.8943 85.5151V87.5151Z" fill="#DBFAD9"/>
<path d="M80.8943 93.5151L75.6973 90.5151V88.5151L80.8943 91.5151V93.5151Z" fill="#DBFAD9"/>
<path d="M80.8943 99.5151L75.6973 96.5151V94.5151L80.8943 97.5151V99.5151Z" fill="#DBFAD9"/>
<path d="M80.8943 111.515L75.6973 108.515V106.515L80.8943 109.515V111.515Z" fill="#DBFAD9"/>
<path d="M72.2143 66.5041L61.8223 60.5041V58.5041L72.2143 64.5041V66.5041Z" fill="#DBFAD9"/>
<path d="M68.7503 69.5041L61.8223 65.5041V63.5041L68.7503 67.5041V69.5041Z" fill="#DBFAD9"/>
<path d="M90.4007 111.004L51.4297 88.5041V86.5041L90.4007 109.004V111.004Z" fill="#DBFAD9"/>
<defs>
<radialGradient id="paint0_radial" cx="0" cy="0" r="1" gradientUnits="userSpaceOnUse" gradientTransform="translate(118.152 41.4659) rotate(105) scale(5.03971 11.3406)">
<stop stop-opacity="0.15"/>
<stop offset="1" stop-opacity="0"/>
</radialGradient>
<radialGradient id="paint1_radial" cx="0" cy="0" r="1" gradientUnits="userSpaceOnUse" gradientTransform="translate(176.072 55.5929) rotate(105) scale(5.03971 11.3406)">
<stop stop-opacity="0.15"/>
<stop offset="1" stop-opacity="0"/>
</radialGradient>
<radialGradient id="paint2_radial" cx="0" cy="0" r="1" gradientUnits="userSpaceOnUse" gradientTransform="translate(162.986 106.927) rotate(105) scale(5.03971 11.3406)">
<stop stop-opacity="0.15"/>
<stop offset="1" stop-opacity="0"/>
</radialGradient>
<radialGradient id="paint3_radial" cx="0" cy="0" r="1" gradientUnits="userSpaceOnUse" gradientTransform="translate(75.8643 113.894) rotate(90) scale(12.3214 23.8555)">
<stop stop-opacity="0.15"/>
<stop offset="1" stop-opacity="0"/>
</radialGradient>
<linearGradient id="paint4_linear" x1="49.4995" y1="37" x2="92.2495" y2="124.5" gradientUnits="userSpaceOnUse">
<stop offset="0.00356557" stop-color="#77D672"/>
<stop offset="0.796875" stop-color="#5AAE53"/>
<stop offset="1" stop-color="#56A84F"/>
</linearGradient>
</defs>
</svg>
