<svg width="260" height="153" viewBox="0 0 260 153" fill="none"
    xmlns="http://www.w3.org/2000/svg">
    <path d="M0 8C0 3.58172 3.58172 0 8 0H252C256.418 0 260 3.58172 260 8V153H0V8Z" fill="#F2F2F2"/>
    <path d="M187.144 68.1418L187.131 72.7113C187.116 77.8429 183.729 82.9668 176.962 86.882C163.347 94.759 141.188 94.7591 127.476 86.8781C120.576 82.9118 117.13 77.705 117.145 72.5069L117.158 67.9374C117.143 73.1355 120.589 78.3421 127.489 82.3086C141.201 90.1896 163.36 90.1895 176.975 82.3125C183.742 78.3973 187.129 73.2734 187.144 68.1418Z" fill="#C8C8C8"/>
    <path d="M176.811 54.829C190.525 62.7554 190.597 75.6076 176.973 83.5342C163.355 91.4567 141.192 91.4568 127.478 83.5303C113.764 75.6038 113.692 62.7517 127.31 54.8293C140.934 46.9025 163.098 46.9024 176.811 54.829Z" fill="white"/>
    <path d="M135.934 64.3076L169.007 73.1696L165.069 87.8673L131.995 79.0053L135.934 64.3076Z" fill="url(#paint0_radial)"/>
    <path d="M170.179 65.08C168.189 64.078 167.194 65.0647 167.193 68.04V74.6689C167.193 79.1762 165.242 80.3327 161.338 78.1382V75.3544C162.448 75.9657 163.236 76.0524 163.702 75.6144C164.167 75.1764 164.4 74.1471 164.4 72.5265V66.1407C164.4 63.0323 165.351 61.6954 167.251 62.13V62.0416C166.286 61.0866 165.533 59.9386 165.041 58.6726C164.55 57.4066 164.332 56.0511 164.4 54.6949V48.2207C164.4 45.3628 163.38 43.315 161.338 42.0771V39.2489C163.178 40.253 164.701 41.7511 165.736 43.5743C166.77 45.3976 167.275 47.4735 167.193 49.5682V56.0207C167.193 59.0549 168.189 61.2203 170.179 62.5168V65.08Z" fill="#0078D4"/>
    <path d="M138.631 67.1944C136.795 66.2038 135.273 64.72 134.234 62.9104C133.196 61.1008 132.684 59.0372 132.756 56.9522V50.3233C132.756 47.3475 131.761 45.2117 129.771 43.9161V41.3526C131.761 42.3544 132.756 41.3378 132.756 38.3026V31.8505C132.756 27.2839 134.714 26.1019 138.631 28.3046V31.1328C136.602 30.0206 135.588 30.8933 135.588 33.7509V40.2256C135.588 43.319 134.632 44.6668 132.718 44.2691V44.3575C133.692 45.2999 134.453 46.4406 134.948 47.7024C135.443 48.9643 135.661 50.3179 135.588 51.6714V58.0572C135.531 59.389 135.763 60.7172 136.267 61.9512C136.792 62.9887 137.615 63.8451 138.631 64.4102V67.1944Z" fill="#0078D4"/>
    <path d="M152.851 39.4693L152.191 58.3853L147.861 55.8853L147.236 36.2271L152.851 39.4693ZM150.077 66.3247C145.993 63.9664 145.863 57.4459 150.077 59.8793C154.2 62.26 154.165 68.6847 150.077 66.3247Z" fill="#0078D4"/>
    <rect x="79.3125" y="108.01" width="47.711" height="24.6427" transform="rotate(15 79.3125 108.01)" fill="url(#paint1_radial)"/>
    <path d="M75.832 101.954V33.2832L109.276 52.5499L122.714 74.9893V129.132L75.832 101.954Z" fill="url(#paint2_linear)" stroke="#ACACAC" stroke-linecap="round" stroke-linejoin="round"/>
    <path d="M75.3301 32.4242L79.5301 30L113.71 49.7606L109.629 52.1848L75.3301 32.4242Z" fill="#CCCCCC"/>
    <path d="M109.637 52.1821L113.728 49.7578L127.422 72.4245L123.222 74.8487L109.637 52.1821Z" fill="#BABABA"/>
    <path d="M123.215 74.8486L127.415 72.4243V127.493L123.215 130V74.8486Z" fill="url(#paint3_linear)"/>
    <path d="M109.637 52.1816L123.212 74.8574L109.637 66.918V52.1816Z" fill="#D8D8D8"/>
    <path d="M92.1233 92.2333L80.2051 85.353V76.1787L92.1233 83.059V92.2333Z" fill="#FFC483" stroke="#D15900" stroke-miterlimit="10"/>
    <path d="M118.341 96.362L104.039 88.1059V78.9302L118.341 87.1878V96.362Z" fill="#FFC483" stroke="#D15900" stroke-miterlimit="10"/>
    <path d="M115.958 80.3075L103.246 72.9681V71.1333L115.958 78.4727V80.3075Z" fill="#949494"/>
    <path d="M99.5919 70.8577L91.6465 66.2714V64.4365L99.5919 69.0229V70.8577Z" fill="#949494"/>
    <path d="M87.994 64.1621L82.5879 61.0409V59.2061L87.994 62.3273V64.1621Z" fill="#949494"/>
    <path d="M94.5061 78.9305L82.5879 72.0502V70.2153L94.5061 77.0956V78.9305Z" fill="#949494"/>
    <path d="M100.862 82.5999L97.6836 80.765V78.9302L100.862 80.765V82.5999Z" fill="#949494"/>
    <path d="M115.959 91.3164L106.424 85.8119V83.9771L115.959 89.4816V91.3164Z" fill="#D15900"/>
    <path d="M89.7379 87.1878L82.5879 83.059V81.2241L89.7379 85.3529V87.1878Z" fill="#D15900"/>
    <path d="M115.958 102.326L95.3008 90.3983V88.5635L115.958 100.491V102.326Z" fill="#949494"/>
    <path d="M111.191 108.747L115.958 111.5V113.335L111.191 110.582V108.747Z" fill="#949494"/>
    <path d="M97.6836 100.95L107.218 106.455V108.29L97.6836 102.785V100.95Z" fill="#949494"/>
    <path d="M82.5879 92.2334L93.7106 98.6561V100.491L82.5879 94.0682V92.2334Z" fill="#949494"/>
    <defs>
        <radialGradient id="paint0_radial" cx="0" cy="0" r="1" gradientUnits="userSpaceOnUse" gradientTransform="translate(150.501 76.0874) rotate(105) scale(7.60808 17.12)">
            <stop stop-opacity="0.15"/>
            <stop offset="1" stop-opacity="0"/>
        </radialGradient>
        <radialGradient id="paint1_radial" cx="0" cy="0" r="1" gradientUnits="userSpaceOnUse" gradientTransform="translate(103.168 120.331) rotate(90) scale(12.3214 23.8555)">
            <stop stop-opacity="0.15"/>
            <stop offset="1" stop-opacity="0"/>
        </radialGradient>
        <linearGradient id="paint2_linear" x1="67.7351" y1="51.7074" x2="127.535" y2="113.257" gradientUnits="userSpaceOnUse">
            <stop offset="0.375" stop-color="#FEFEFE"/>
            <stop offset="1" stop-color="#D5D5D5"/>
        </linearGradient>
        <linearGradient id="paint3_linear" x1="125.315" y1="130" x2="125.315" y2="72.4319" gradientUnits="userSpaceOnUse">
            <stop stop-color="#797775"/>
            <stop offset="0.157" stop-color="#868482"/>
            <stop offset="1" stop-color="#AFACA9"/>
        </linearGradient>
    </defs>
</svg>
