<svg width="242" height="138" viewBox="0 0 242 138" fill="none" xmlns="http://www.w3.org/2000/svg">
<path d="M117.374 41.2192L74.998 106.969" stroke="#B3B0AD" stroke-width="2" stroke-linecap="round"/>
<path d="M75 106.906L168.75 54.3442" stroke="#B3B0AD" stroke-width="2" stroke-linecap="round"/>
<line x1="74.9629" y1="107.27" x2="178.661" y2="107.27" stroke="#B3B0AD" stroke-width="2" stroke-linecap="round"/>
<path d="M144.681 37.5518L144.672 40.7962C144.662 44.4396 142.256 48.0776 137.452 50.8574C127.785 56.4501 112.052 56.4501 102.317 50.8546C97.4176 48.0385 94.971 44.3417 94.9815 40.651L94.9907 37.4067C94.9802 41.0974 97.4269 44.7941 102.326 47.6103C112.061 53.2058 127.794 53.2057 137.461 47.6131C142.266 44.8332 144.671 41.1953 144.681 37.5518Z" fill="#C8C8C8"/>
<path d="M137.345 28.0998C147.082 33.7276 147.133 42.8526 137.459 48.4805C127.791 54.1055 112.055 54.1055 102.318 48.4777C92.5816 42.8499 92.5303 33.7249 102.199 28.1C111.872 22.472 127.608 22.4719 137.345 28.0998Z" fill="white"/>
<path d="M111.877 34.0659L133.785 39.9362L131.176 49.6722L109.268 43.8019L111.877 34.0659Z" fill="url(#paint0_radial)"/>
<path d="M135.714 37.042C134.461 36.4111 133.834 37.0323 133.834 38.9054V43.0786C133.834 45.9162 132.605 46.6443 130.147 45.2627V43.5102C130.847 43.8951 131.343 43.9496 131.636 43.6739C131.929 43.3981 132.075 42.7501 132.075 41.7299V37.7097C132.075 35.7528 132.674 34.9112 133.87 35.1848V35.1291C133.262 34.5279 132.788 33.8052 132.479 33.0082C132.17 32.2111 132.032 31.3578 132.075 30.504V26.4282C132.075 24.629 131.433 23.3398 130.147 22.5605V20.78C131.306 21.4121 132.265 22.3553 132.916 23.5031C133.567 24.6509 133.885 25.9578 133.834 27.2765V31.3387C133.834 33.2489 134.46 34.6121 135.714 35.4283V37.042Z" fill="#0078D4"/>
<path d="M110.433 34.0918C109.277 33.4681 108.319 32.534 107.665 31.3948C107.012 30.2555 106.689 28.9564 106.734 27.6438V23.4706C106.734 21.5971 106.108 20.2526 104.855 19.4369V17.8231C106.108 18.4538 106.734 17.8137 106.734 15.9029V11.841C106.734 8.96608 107.967 8.22198 110.433 9.60871V11.3892C109.156 10.689 108.517 11.2384 108.517 13.0374V17.1136C108.517 19.061 107.915 19.9095 106.71 19.6592V19.7148C107.324 20.3081 107.802 21.0262 108.114 21.8206C108.426 22.615 108.563 23.4671 108.517 24.3193V28.3394C108.482 29.1778 108.627 30.014 108.945 30.7909C109.275 31.444 109.794 31.9832 110.433 32.339V34.0918Z" fill="#0078D4"/>
<path d="M111.499 13.75V31.1147L128.499 40.9295V23.5648L111.499 13.75ZM112.807 22.8098L116.733 25.0748V28.0947L112.807 25.8298V22.8098ZM118.037 25.8298L121.963 28.0947V31.1147L118.037 28.8497V25.8298ZM118.037 24.3198V21.2999L121.963 23.5648V26.5847L118.037 24.3198ZM116.73 20.5449V23.5648L112.804 21.2999V18.2799L116.73 20.5449ZM112.804 30.3597V27.3397L116.73 29.6047V32.6246L112.804 30.3597ZM118.037 33.3796V30.3597L121.963 32.6246V35.6446L118.037 33.3796ZM127.191 38.6645L123.265 36.3996V33.3796L127.191 35.6446V38.6645ZM127.191 34.1346L123.265 31.8696V28.8497L127.191 31.1147V34.1346ZM127.191 29.6047L123.265 27.3397V24.3198L127.191 26.5847V29.6047Z" fill="#0078D4"/>
<path d="M189.486 100.126L189.477 103.37C189.466 107.014 187.061 110.652 182.256 113.432C172.59 119.024 156.857 119.024 147.122 113.429C142.222 110.613 139.776 106.916 139.786 103.225L139.795 99.9809C139.785 103.672 142.232 107.368 147.131 110.184C156.866 115.78 172.599 115.78 182.266 110.187C187.07 107.407 189.475 103.769 189.486 100.126Z" fill="#C8C8C8"/>
<path d="M182.15 90.674C191.886 96.3017 191.938 105.427 182.264 111.055C172.596 116.68 156.86 116.68 147.123 111.052C137.386 105.424 137.335 96.2991 147.003 90.6742C156.677 85.0462 172.413 85.0461 182.15 90.674Z" fill="white"/>
<path d="M154.624 97.2676L176.532 103.138L173.924 112.874L152.015 107.004L154.624 97.2676Z" fill="url(#paint1_radial)"/>
<path d="M179.64 100.519C178.419 99.9041 177.809 100.509 177.808 102.334V106.4C177.808 109.165 176.611 109.874 174.217 108.528V106.821C174.898 107.196 175.381 107.249 175.667 106.98C175.952 106.712 176.095 106.08 176.095 105.086V101.169C176.095 99.2627 176.678 98.4426 177.844 98.7092V98.655C177.252 98.0692 176.79 97.365 176.488 96.5885C176.187 95.812 176.053 94.9806 176.095 94.1487V90.1775C176.095 88.4246 175.469 87.1684 174.217 86.4091V84.6744C175.346 85.2903 176.28 86.2092 176.914 87.3275C177.549 88.4459 177.859 89.7192 177.808 91.004V94.9619C177.808 96.823 178.419 98.1512 179.64 98.9465V100.519Z" fill="#0078D4"/>
<path d="M155.008 97.6444C153.882 97.0367 152.948 96.1266 152.311 95.0166C151.674 93.9066 151.36 92.6409 151.404 91.362V87.2959C151.404 85.4706 150.794 84.1606 149.573 83.3659V81.7935C150.794 82.4079 151.404 81.7843 151.404 79.9226V75.965C151.404 73.1639 152.605 72.4389 155.008 73.7901V75.5248C153.763 74.8426 153.141 75.3779 153.141 77.1307V81.1022C153.141 82.9996 152.554 83.8263 151.38 83.5824V83.6366C151.978 84.2147 152.445 84.9143 152.748 85.6883C153.052 86.4623 153.186 87.2926 153.141 88.1228V92.0398C153.106 92.8566 153.248 93.6713 153.557 94.4283C153.879 95.0646 154.385 95.59 155.008 95.9366V97.6444Z" fill="#0078D4"/>
<path d="M174.825 103.195L155.62 92.0852V80.7162L174.825 91.8256L174.825 103.195Z" fill="#0078D4"/>
<path d="M171.394 94.6083L158.724 87.2929V85.3423L171.394 92.6575V94.6083Z" fill="#F8F8F8"/>
<path d="M168.096 96.6459L158.723 91.2131V89.2625L168.096 94.6953V96.6459Z" fill="#F8F8F8"/>
<path d="M199.486 53.1992L199.477 56.4436C199.466 60.087 197.061 63.725 192.256 66.5048C182.59 72.0975 166.857 72.0975 157.122 66.502C152.222 63.6859 149.776 59.9891 149.786 56.2984L149.795 53.0541C149.785 56.7448 152.232 60.4415 157.131 63.2577C166.866 68.8532 182.599 68.8531 192.266 63.2605C197.07 60.4806 199.475 56.8427 199.486 53.1992Z" fill="#C8C8C8"/>
<path d="M192.15 43.7472C201.886 49.375 201.938 58.5 192.264 64.1279C182.596 69.7529 166.86 69.7529 157.123 64.1251C147.386 58.4973 147.335 49.3723 157.003 43.7474C166.677 38.1194 182.413 38.1193 192.15 43.7472Z" fill="white"/>
<path d="M163.893 48.8286L185.801 54.6989L183.192 64.4349L161.284 58.5646L163.893 48.8286Z" fill="url(#paint2_radial)"/>
<path d="M187.729 51.8046C186.476 51.1738 185.85 51.795 185.849 53.6681V57.8413C185.849 60.6789 184.621 61.407 182.163 60.0254V58.2729C182.862 58.6578 183.358 58.7123 183.651 58.4366C183.944 58.1608 184.091 57.5128 184.091 56.4926V52.4724C184.091 50.5155 184.689 49.6739 185.886 49.9475V49.8918C185.278 49.2906 184.804 48.5679 184.495 47.7709C184.185 46.9738 184.048 46.1205 184.091 45.2667V41.1909C184.091 39.3917 183.448 38.1025 182.163 37.3232V35.5427C183.322 36.1748 184.28 37.118 184.932 38.2658C185.583 39.4136 185.901 40.7205 185.849 42.0392V46.1014C185.849 48.0116 186.476 49.3748 187.729 50.191V51.8046Z" fill="#0078D4"/>
<path d="M162.449 48.8545C161.293 48.2308 160.334 47.2967 159.681 46.1575C159.027 45.0182 158.705 43.7191 158.75 42.4065V38.2333C158.75 36.3598 158.124 35.0153 156.871 34.1996V32.5858C158.124 33.2165 158.75 32.5764 158.75 30.6656V26.6037C158.75 23.7288 159.983 22.9847 162.449 24.3714V26.1519C161.172 25.4517 160.533 26.0011 160.533 27.8001V31.8763C160.533 33.8237 159.931 34.6722 158.726 34.4218V34.4775C159.339 35.0708 159.818 35.7889 160.13 36.5833C160.442 37.3777 160.579 38.2298 160.533 39.082V43.1021C160.497 43.9405 160.643 44.7767 160.96 45.5536C161.291 46.2067 161.809 46.7459 162.449 47.1017V48.8545Z" fill="#0078D4"/>
<path d="M166.016 46.9005V30.8676L179.9 38.8841V54.917L166.016 46.9005Z" stroke="#0078D4" stroke-width="2"/>
<path fill-rule="evenodd" clip-rule="evenodd" d="M177.868 39.5351C178.318 39.9529 178.345 40.6565 177.927 41.1068L172.189 47.2902C171.953 47.5454 171.61 47.675 171.263 47.6403C170.917 47.6056 170.607 47.4107 170.425 47.1136L167.824 42.8569C167.504 42.3327 167.669 41.6483 168.194 41.328C168.718 41.0078 169.402 41.1731 169.722 41.6972L171.558 44.701L176.296 39.5939C176.714 39.1437 177.418 39.1173 177.868 39.5351Z" fill="#0078D4"/>
<rect x="53.1309" y="99.5721" width="47.711" height="24.6427" transform="rotate(15 53.1309 99.5721)" fill="url(#paint3_radial)"/>
<path d="M81.2631 63.9769L94.8381 71.9159V127.066L46.9561 99.3089V29.4849L81.2631 49.2479V63.9769Z" fill="url(#paint4_linear)"/>
<path d="M46.9561 29.4849L51.1561 27.0659L85.3421 46.8259L81.2611 49.2449L46.9561 29.4849Z" fill="#E6D1F2"/>
<path d="M81.2637 49.2479L85.3447 46.8289L99.0447 69.4939L94.8447 71.9129L81.2637 49.2479Z" fill="#D1ABE6"/>
<path d="M94.8398 71.9159L99.0398 69.4969V124.559L94.8398 127.066V71.9159Z" fill="#862EB5"/>
<path d="M81.2637 49.2479L94.8387 71.9239L81.2637 63.9839V49.2479Z" fill="#F5EDFD"/>
<mask id="path-31-inside-1" fill="white">
<path d="M53.2266 75.2477V96.4479L86.5599 115.692V94.4914L53.2266 75.2477ZM85.1144 107.279L75.6809 101.833L75.7715 97.7707L85.1159 103.173L85.1144 107.279ZM74.253 101L65.313 95.839V91.7319L74.3435 96.9458L74.253 101ZM65.313 97.5137L74.2194 102.655L74.126 106.842L65.2488 101.719H65.313V97.5137ZM54.672 85.5879L63.8705 90.8967V95.0097L54.672 89.7024V85.5879ZM65.313 90.063V86.0785L74.4676 91.3639L74.38 95.2974L65.313 90.063ZM63.8675 85.2448V89.2279L54.6691 83.9191V79.936L63.8675 85.2448ZM54.6691 91.3771L63.8675 96.6859V100.929L54.6691 95.62V91.3771ZM75.5525 107.661L75.6444 103.472L85.1144 108.94V113.174L75.5525 107.661ZM85.1144 101.49L75.808 96.1267L75.8956 92.1933L85.1144 97.5152V101.49Z"/>
</mask>
<path d="M53.2266 75.2477V96.4479L86.5599 115.692V94.4914L53.2266 75.2477ZM85.1144 107.279L75.6809 101.833L75.7715 97.7707L85.1159 103.173L85.1144 107.279ZM74.253 101L65.313 95.839V91.7319L74.3435 96.9458L74.253 101ZM65.313 97.5137L74.2194 102.655L74.126 106.842L65.2488 101.719H65.313V97.5137ZM54.672 85.5879L63.8705 90.8967V95.0097L54.672 89.7024V85.5879ZM65.313 90.063V86.0785L74.4676 91.3639L74.38 95.2974L65.313 90.063ZM63.8675 85.2448V89.2279L54.6691 83.9191V79.936L63.8675 85.2448ZM54.6691 91.3771L63.8675 96.6859V100.929L54.6691 95.62V91.3771ZM75.5525 107.661L75.6444 103.472L85.1144 108.94V113.174L75.5525 107.661ZM85.1144 101.49L75.808 96.1267L75.8956 92.1933L85.1144 97.5152V101.49Z" fill="#F5EDFD" stroke="#F5EDFD" stroke-width="2" mask="url(#path-31-inside-1)"/>
<path d="M65.3082 73.8207L54.1338 67.3696V54.4674L65.3082 60.9185V73.8207Z" stroke="#F5EDFD" stroke-width="1.5" stroke-miterlimit="10"/>
<path d="M57.7607 60.6408L60.9903 66.0374L69.8168 57.9634" stroke="#F5EDFD" stroke-width="2" stroke-linecap="round" stroke-linejoin="round"/>
<mask id="path-34-inside-2" fill="white">
<path d="M78.7098 75.7827L68.5576 69.921V67.7895L78.7098 73.6512V75.7827Z"/>
</mask>
<path d="M78.7098 75.7827L68.5576 69.921V67.7895L78.7098 73.6512V75.7827Z" fill="white" stroke="#F5EDFD" stroke-width="2" mask="url(#path-34-inside-2)"/>
<defs>
<radialGradient id="paint0_radial" cx="0" cy="0" r="1" gradientUnits="userSpaceOnUse" gradientTransform="translate(121.527 41.8691) rotate(105) scale(5.03971 11.3406)">
<stop stop-opacity="0.15"/>
<stop offset="1" stop-opacity="0"/>
</radialGradient>
<radialGradient id="paint1_radial" cx="0" cy="0" r="1" gradientUnits="userSpaceOnUse" gradientTransform="translate(164.274 105.071) rotate(105) scale(5.03971 11.3405)">
<stop stop-opacity="0.15"/>
<stop offset="1" stop-opacity="0"/>
</radialGradient>
<radialGradient id="paint2_radial" cx="0" cy="0" r="1" gradientUnits="userSpaceOnUse" gradientTransform="translate(173.542 56.6318) rotate(105) scale(5.03971 11.3406)">
<stop stop-opacity="0.15"/>
<stop offset="1" stop-opacity="0"/>
</radialGradient>
<radialGradient id="paint3_radial" cx="0" cy="0" r="1" gradientUnits="userSpaceOnUse" gradientTransform="translate(76.9863 111.894) rotate(90) scale(12.3214 23.8555)">
<stop stop-opacity="0.15"/>
<stop offset="1" stop-opacity="0"/>
</radialGradient>
<linearGradient id="paint4_linear" x1="50.6587" y1="36.2172" x2="92.2837" y2="117.717" gradientUnits="userSpaceOnUse">
<stop stop-color="#D1ABE6"/>
<stop offset="0.705528" stop-color="#A864CD"/>
<stop offset="1" stop-color="#A864CD"/>
</linearGradient>
</defs>
</svg>
