<svg width="260" height="153" viewBox="0 0 260 153" fill="none"
    xmlns="http://www.w3.org/2000/svg">
    <path d="M0 8C0 3.58172 3.58172 0 8 0H252C256.418 0 260 3.58172 260 8V153H0V8Z" fill="#F2F2F2"/>
    <line x1="181.429" y1="63.4123" x2="72.9608" y2="83.0723" stroke="#8C8C8C" stroke-width="2" stroke-linecap="round"/>
    <line x1="181.633" y1="63.658" x2="136.728" y2="117.924" stroke="#8C8C8C" stroke-width="2" stroke-linecap="round"/>
    <path d="M218.2 59.9899L218.187 64.5312C218.173 69.6311 214.806 74.7233 208.08 78.6144C194.55 86.4427 172.527 86.4428 158.901 78.6105C152.043 74.6686 148.618 69.494 148.633 64.328L148.646 59.7867C148.631 64.9528 152.056 70.1272 158.914 74.0692C172.54 81.9015 194.562 81.9014 208.093 74.0731C214.819 70.182 218.185 65.0898 218.2 59.9899Z" fill="#C8C8C8"/>
    <path d="M207.931 46.7593C221.56 54.6368 221.632 67.4095 208.091 75.2872C194.558 83.1607 172.532 83.1608 158.903 75.2833C145.274 67.4058 145.202 54.633 158.735 46.7596C172.276 38.8818 194.302 38.8817 207.931 46.7593Z" fill="white"/>
    <path d="M168.021 51.7687L201.095 60.6306L197.157 75.3283L164.083 66.4664L168.021 51.7687Z" fill="url(#paint0_radial)"/>
    <path d="M193.867 44.3975L192.85 43.81C192.929 44.9161 192.834 46.0277 192.57 47.1047C195.586 48.9711 198.097 53.3946 198.097 56.9011C198.097 58.3197 197.678 59.375 196.949 59.7964C196.219 60.2178 195.096 60.0526 193.867 59.3433L183.513 53.365C179.468 51.0295 176.949 44.8683 178.041 41.7549C178.682 39.9274 180.338 40.0383 182.018 41.0076L186.849 43.7966C186.626 42.24 186.078 40.7477 185.24 39.4167L183.513 38.4192C177.853 35.1503 173.09 39.5889 175.38 47.1215C176.474 50.7214 179.003 54.2127 182.018 55.9534L192.373 61.9317C194.302 63.046 196.538 63.4861 198.443 62.385C203.795 59.2968 200.407 48.1728 193.867 44.3975Z" fill="#0078D4"/>
    <path d="M191.248 42.8859C190.616 38.6433 187.728 34.1283 184.158 32.0673L173.803 26.089C169.27 23.4708 165.09 25.785 165.09 31.1196C165.09 35.7939 168.261 41.2861 172.309 43.6232L173.326 44.2107C173.247 43.1047 173.342 41.9931 173.606 40.9161C170.59 39.0494 168.079 34.6262 168.079 31.1196C168.079 29.701 168.498 28.6461 169.228 28.2243C169.957 27.8039 171.08 27.9685 172.309 28.6774L182.664 34.6557C185.796 36.4642 188.448 41.086 188.388 44.6858C188.343 47.4657 186.774 48.5227 184.158 47.0131L179.328 44.2241C179.55 45.7807 180.098 47.273 180.936 48.604L182.664 49.6015C187.664 52.4896 192.215 49.3745 191.248 42.8859Z" fill="#0078D4"/>
    <rect x="52.209" y="75.4092" width="42" height="24" transform="rotate(15 52.209 75.4092)" fill="url(#paint1_radial)"/>
    <path d="M93.5317 55.829L51.7227 31.691C51.4661 31.5224 51.1566 31.4537 50.8527 31.498C50.7718 31.5141 50.6941 31.5435 50.6227 31.585L47.5527 33.369C47.7294 33.2878 47.9244 33.2553 48.1178 33.2748C48.3112 33.2943 48.4959 33.3652 48.6527 33.48L90.4617 57.613C90.9116 57.9052 91.2858 58.2997 91.554 58.7643C91.8222 59.2289 91.9766 59.7503 92.0047 60.286L91.9047 96.386C91.9239 96.5759 91.8924 96.7675 91.8133 96.9413C91.7343 97.115 91.6105 97.2647 91.4547 97.375L94.5247 95.591C94.6804 95.4805 94.804 95.3308 94.883 95.1571C94.9621 94.9834 94.9937 94.7919 94.9747 94.602L95.0747 58.502C95.0466 57.9663 94.8922 57.4449 94.624 56.9803C94.3558 56.5157 93.9816 56.1212 93.5317 55.829Z" fill="url(#paint2_linear)"/>
    <path d="M91.048 96.9802C90.8885 96.971 90.7341 96.9203 90.6 96.8332L48.791 72.6962C48.4177 72.4489 48.1066 72.1186 47.8823 71.731C47.658 71.3434 47.5264 70.9091 47.498 70.4622L47.598 34.3622C47.598 34.1392 47.646 33.7622 47.958 33.7622C48.1155 33.7702 48.2681 33.8199 48.4 33.9062L90.212 58.0462C90.5861 58.294 90.8975 58.6251 91.1219 59.0136C91.3462 59.4021 91.4774 59.8374 91.505 60.2852L91.405 96.3852C91.398 96.6072 91.355 96.9802 91.048 96.9802Z" fill="#FAF9F8"/>
    <path d="M48.098 34.3132L48.149 34.3412L89.962 58.4802C90.2595 58.6831 90.5075 58.9501 90.6881 59.2617C90.8686 59.5732 90.9769 59.9212 91.005 60.2802L90.905 96.3802V96.4252L90.853 96.3972L49.041 72.2622C48.7434 72.0597 48.4951 71.7929 48.3146 71.4815C48.134 71.1701 48.0259 70.822 47.998 70.4632L48.098 34.3632C48.098 34.3452 48.098 34.3292 48.098 34.3132ZM47.961 33.2642C47.453 33.2642 47.102 33.6642 47.1 34.3642L46.998 70.4612C47.0271 70.9958 47.182 71.516 47.4501 71.9795C47.7182 72.4429 48.092 72.8365 48.541 73.1282L90.349 97.2662C90.5597 97.3974 90.801 97.4712 91.049 97.4802C91.555 97.4802 91.903 97.0802 91.905 96.3862L92.005 60.2862C91.9768 59.7507 91.8223 59.2294 91.5541 58.765C91.2859 58.3007 90.9117 57.9063 90.462 57.6142L48.653 33.4802C48.4447 33.3507 48.2062 33.2779 47.961 33.2692V33.2642Z" fill="#8C8C8C"/>
    <path d="M90.4625 57.6128L48.6535 33.4798C47.9205 33.0518 47.3055 33.2898 47.1445 33.9868V38.4798L91.9915 64.2418L92.0055 60.2858C91.9774 59.7502 91.823 59.2287 91.5548 58.7642C91.2866 58.2996 90.9123 57.9051 90.4625 57.6128Z" fill="#979593"/>
    <path d="M89.7183 60.2627C89.7068 59.8668 89.5988 59.4796 89.4036 59.1348C89.2084 58.7901 88.9319 58.4983 88.5983 58.2847C87.1463 57.4497 87.0443 59.9287 88.5983 60.9187C89.1563 61.3027 89.7183 61.0207 89.7183 60.2627Z" fill="#C8C6C4"/>
    <path d="M61.8438 69.7468L73.1918 76.2998V66.7688L61.8438 60.2178V69.7468Z" fill="#FFC483" stroke="#D15900" stroke-miterlimit="10"/>
    <path d="M64.4199 67.6608L70.6109 71.2348V69.3528L64.4199 65.7798V67.6608Z" fill="#D15900"/>
    <path d="M51.0098 69.3399L61.0808 75.1529V73.3199L51.0098 67.5059V69.3399Z" fill="#949494"/>
    <path d="M63.4727 74.7002V76.5342L74.1027 82.6582V80.8232L63.4727 74.7002Z" fill="#949494"/>
    <path d="M81.6055 62.8688V66.8188L86.3535 69.5638C86.5689 69.6881 86.8119 69.7568 87.0605 69.7638C87.6005 69.7638 87.9915 69.3508 87.9915 68.5918V68.3998C87.9599 67.8367 87.7949 67.2891 87.5101 66.8023C87.2253 66.3155 86.8289 65.9033 86.3535 65.5998L81.6055 62.8608V62.8688Z" stroke="#BFBFBF"/>
    <path d="M52.597 46.3292C52.057 46.3292 51.666 46.7422 51.666 47.5002V47.6932C51.6996 48.2545 51.866 48.7999 52.1515 49.2844C52.4369 49.7689 52.8333 50.1787 53.308 50.4802L86.354 69.5632C86.5691 69.6883 86.8123 69.7571 87.061 69.7632C87.601 69.7632 87.992 69.3512 87.992 68.5922V68.4002C87.9599 67.8372 87.7947 67.2898 87.5099 66.8031C87.2252 66.3163 86.829 65.9041 86.354 65.6002L53.308 46.5312C53.0935 46.4041 52.8502 46.3335 52.601 46.3262L52.597 46.3292Z" stroke="#BFBFBF"/>
    <path d="M51.0098 59.6701L59.2588 64.4361V62.8021L51.0098 58.0381V59.6701Z" fill="#949494"/>
    <path d="M75.6699 73.7802L85.7399 79.5942V77.7652L75.6699 71.9512V73.7802Z" fill="#949494"/>
    <path d="M76.7422 82.3638V84.1968L85.7422 89.3908V87.5578L76.7422 82.3638Z" fill="#949494"/>
    <rect x="119.736" y="118.933" width="35" height="16.06" transform="rotate(15 119.736 118.933)" fill="url(#paint3_radial)"/>
    <path d="M119.855 114.473V69.1504L141.928 81.8664L150.797 96.6764V132.41L119.855 114.473Z" fill="url(#paint4_linear)" stroke="#ACACAC" stroke-linecap="round" stroke-linejoin="round"/>
    <path d="M119.523 68.5834L122.295 66.9834L144.854 80.0254L142.16 81.6254L119.523 68.5834Z" fill="#CCCCCC"/>
    <path d="M142.166 81.6234L144.866 80.0234L153.904 94.9834L151.132 96.5834L142.166 81.6234Z" fill="#BABABA"/>
    <path d="M151.127 96.5834L153.899 94.9834V131.328L151.127 132.983V96.5834Z" fill="url(#paint5_linear)"/>
    <path d="M142.166 81.6235L151.126 96.5895L142.166 91.3495V81.6235Z" fill="#D8D8D8"/>
    <path d="M136.06 96.6744L128.719 92.4354V86.3804L136.06 90.6194V96.6744Z" fill="#C3ADF7" stroke="#341A6E" stroke-miterlimit="10"/>
    <path d="M142.273 122.06L133.359 116.913V110.858L142.273 116.005V122.06Z" fill="#C3ADF7" stroke="#341A6E" stroke-miterlimit="10"/>
    <path d="M146.339 100.186L137.949 95.3423V94.1313L146.339 98.9753V100.186Z" fill="#949494"/>
    <path d="M134.488 93.3444L130.293 90.9224V89.7114L134.488 92.1334V93.3444Z" fill="#341A6E"/>
    <path d="M126.833 88.9243L124.314 87.4703V86.2593L126.833 87.7133V88.9243Z" fill="#949494"/>
    <path d="M132.18 99.2774L124.314 94.7364V93.5254L132.18 98.0664V99.2774Z" fill="#949494"/>
    <path d="M137.948 102.608L134.277 100.488V99.2773L137.948 101.397V102.608Z" fill="#949494"/>
    <path d="M146.338 107.452L140.045 103.819V102.608L146.338 106.241V107.452Z" fill="#949494"/>
    <path d="M129.558 105.031L124.314 102.003V100.792L129.558 103.82V105.031Z" fill="#949494"/>
    <path d="M146.339 114.718L131.656 106.241V105.03L146.339 113.507V114.718Z" fill="#949494"/>
    <path d="M144.242 119.562L146.339 120.774V121.985L144.242 120.774V119.562Z" fill="#949494"/>
    <path d="M135.326 114.416L140.57 117.444V118.655L135.326 115.627V114.416Z" fill="#341A6E"/>
    <path d="M124.314 108.058L131.655 112.297V113.508L124.314 109.269V108.058Z" fill="#949494"/>
    <defs>
        <radialGradient id="paint0_radial" cx="0" cy="0" r="1" gradientUnits="userSpaceOnUse" gradientTransform="translate(182.589 63.5485) rotate(105) scale(7.60808 17.12)">
            <stop stop-opacity="0.15"/>
            <stop offset="1" stop-opacity="0"/>
        </radialGradient>
        <radialGradient id="paint1_radial" cx="0" cy="0" r="1" gradientUnits="userSpaceOnUse" gradientTransform="translate(73.209 87.4092) rotate(90) scale(12 21)">
            <stop stop-opacity="0.15"/>
            <stop offset="1" stop-opacity="0"/>
        </radialGradient>
        <linearGradient id="paint2_linear" x1="71.3137" y1="97.375" x2="71.3137" y2="31.48" gradientUnits="userSpaceOnUse">
            <stop offset="0.004" stop-color="#605E5C"/>
            <stop offset="0.11" stop-color="#8C8C8C"/>
            <stop offset="0.364" stop-color="#8C8C8C"/>
            <stop offset="0.55" stop-color="#999999"/>
            <stop offset="0.63" stop-color="#C8C6C4"/>
            <stop offset="1" stop-color="#C8C6C4"/>
        </linearGradient>
        <radialGradient id="paint3_radial" cx="0" cy="0" r="1" gradientUnits="userSpaceOnUse" gradientTransform="translate(137.236 126.963) rotate(90) scale(8.03 17.5)">
            <stop stop-opacity="0.15"/>
            <stop offset="1" stop-opacity="0"/>
        </radialGradient>
        <linearGradient id="paint4_linear" x1="114.511" y1="81.3104" x2="153.979" y2="121.933" gradientUnits="userSpaceOnUse">
            <stop offset="0.375" stop-color="#FEFEFE"/>
            <stop offset="1" stop-color="#D5D5D5"/>
        </linearGradient>
        <linearGradient id="paint5_linear" x1="152.513" y1="132.983" x2="152.513" y2="94.9884" gradientUnits="userSpaceOnUse">
            <stop stop-color="#797775"/>
            <stop offset="0.157" stop-color="#868482"/>
            <stop offset="1" stop-color="#AFACA9"/>
        </linearGradient>
    </defs>
</svg>
