<svg width="260" height="153" viewBox="0 0 260 153" fill="none"
    xmlns="http://www.w3.org/2000/svg">
    <path d="M0 8C0 3.58172 3.58172 0 8 0H252C256.418 0 260 3.58172 260 8V153H0V8Z" fill="#F2F2F2"/>
    <path d="M131.293 49.2197L88.918 114.97" stroke="#8C8C8C" stroke-width="2" stroke-linecap="round"/>
    <path d="M88.9199 114.907L182.669 62.3446" stroke="#8C8C8C" stroke-width="2" stroke-linecap="round"/>
    <line x1="88.8828" y1="115.27" x2="192.58" y2="115.27" stroke="#8C8C8C" stroke-width="2" stroke-linecap="round"/>
    <path d="M203.407 108.126L203.397 111.371C203.387 115.014 200.982 118.652 196.177 121.432C186.511 127.024 170.778 127.024 161.043 121.429C156.143 118.613 153.697 114.916 153.707 111.225L153.716 107.981C153.706 111.672 156.153 115.368 161.052 118.185C170.787 123.78 186.52 123.78 196.186 118.187C200.991 115.408 203.396 111.77 203.407 108.126Z" fill="#C8C8C8"/>
    <path d="M196.07 98.6742C205.807 104.302 205.859 113.427 196.185 119.055C186.517 124.68 170.781 124.68 161.044 119.052C151.307 113.424 151.256 104.299 160.924 98.6744C170.598 93.0464 186.334 93.0463 196.07 98.6742Z" fill="white"/>
    <path d="M168.545 105.268L190.453 111.138L187.844 120.874L165.936 115.004L168.545 105.268Z" fill="url(#paint0_radial)"/>
    <path d="M193.562 108.519C192.341 107.904 191.73 108.509 191.73 110.334V114.401C191.73 117.165 190.533 117.875 188.139 116.529V114.821C188.82 115.196 189.303 115.249 189.589 114.98C189.874 114.712 190.017 114.08 190.017 113.086V109.169C190.017 107.263 190.6 106.443 191.766 106.709V106.655C191.173 106.069 190.712 105.365 190.41 104.589C190.109 103.812 189.975 102.981 190.017 102.149V98.1777C190.017 96.4247 189.391 95.1686 188.139 94.4093V92.6746C189.267 93.2905 190.202 94.2094 190.836 95.3277C191.471 96.446 191.781 97.7194 191.73 99.0042V102.962C191.73 104.823 192.341 106.151 193.562 106.947V108.519Z" fill="#0078D4"/>
    <path d="M168.929 105.645C167.803 105.037 166.868 104.127 166.232 103.017C165.595 101.907 165.281 100.641 165.325 99.3622V95.2962C165.325 93.4709 164.714 92.1608 163.494 91.3661V89.7937C164.715 90.4082 165.325 89.7846 165.325 87.9229V83.9653C165.325 81.1642 166.526 80.4392 168.929 81.7903V83.5251C167.684 82.8429 167.062 83.3782 167.062 85.131V89.1025C167.062 90.9998 166.475 91.8266 165.301 91.5827V91.6369C165.899 92.2149 166.365 92.9146 166.669 93.6886C166.973 94.4626 167.107 95.2928 167.062 96.1231V100.04C167.027 100.857 167.169 101.672 167.478 102.429C167.8 103.065 168.305 103.59 168.929 103.937V105.645Z" fill="#0078D4"/>
    <path d="M188.746 111.195L169.541 100.085V88.7164L188.746 99.8258L188.746 111.195Z" fill="#0078D4"/>
    <path d="M185.313 102.609L172.643 95.2931V93.3425L185.313 100.658V102.609Z" fill="#F8F8F8"/>
    <path d="M182.016 104.646L172.643 99.2132V97.2627L182.016 102.695V104.646Z" fill="#F8F8F8"/>
    <path d="M213.407 61.1994L213.397 64.4438C213.387 68.0872 210.982 71.7252 206.177 74.505C196.511 80.0977 180.778 80.0977 171.043 74.5022C166.143 71.6861 163.697 67.9893 163.707 64.2987L163.716 61.0543C163.706 64.745 166.153 68.4417 171.052 71.2579C180.787 76.8534 196.52 76.8533 206.186 71.2607C210.991 68.4808 213.396 64.8429 213.407 61.1994Z" fill="#C8C8C8"/>
    <path d="M206.07 51.7474C215.807 57.3752 215.859 66.5002 206.185 72.1282C196.517 77.7531 180.781 77.7532 171.044 72.1254C161.307 66.4976 161.256 57.3725 170.924 51.7477C180.598 46.1197 196.334 46.1196 206.07 51.7474Z" fill="white"/>
    <path d="M175.814 56.3003L197.723 62.1706L195.114 71.9066L173.206 66.0363L175.814 56.3003Z" fill="url(#paint1_radial)"/>
    <path d="M201.652 59.8049C200.399 59.1741 199.772 59.7953 199.772 61.6684V65.8416C199.772 68.6792 198.543 69.4072 196.086 68.0257V66.2732C196.785 66.658 197.281 66.7126 197.574 66.4368C197.867 66.1611 198.014 65.5131 198.014 64.4929V60.4727C198.014 58.5158 198.612 57.6742 199.809 57.9478V57.8921C199.201 57.2909 198.727 56.5681 198.417 55.7711C198.108 54.9741 197.971 54.1208 198.014 53.267V49.1912C198.014 47.392 197.371 46.1028 196.086 45.3235V43.543C197.244 44.1751 198.203 45.1182 198.855 46.266C199.506 47.4139 199.824 48.7208 199.772 50.0395V54.1016C199.772 56.0118 200.399 57.375 201.652 58.1913V59.8049Z" fill="#0078D4"/>
    <path d="M176.371 56.8547C175.215 56.2311 174.256 55.297 173.603 54.1577C172.949 53.0185 172.627 51.7194 172.672 50.4068V46.2335C172.672 44.3601 172.045 43.0155 170.793 42.1999V40.586C172.046 41.2167 172.672 40.5767 172.672 38.6659V34.604C172.672 31.7291 173.905 30.9849 176.371 32.3717V34.1522C175.093 33.452 174.455 34.0014 174.455 35.8004V39.8765C174.455 41.8239 173.853 42.6725 172.648 42.4221V42.4778C173.261 43.0711 173.74 43.7892 174.052 44.5836C174.363 45.378 174.501 46.2301 174.455 47.0822V51.1024C174.419 51.9408 174.565 52.777 174.882 53.5539C175.213 54.207 175.731 54.7462 176.371 55.1019V56.8547Z" fill="#0078D4"/>
    <path d="M192.369 49.5155C192.369 53.5691 186.013 59.8578 186.013 59.8578C186.013 59.8578 179.656 46.2294 179.656 42.1758C179.656 38.1222 182.502 36.4792 186.013 38.5059C187.863 39.7122 189.403 41.3378 190.507 43.2507C191.612 45.1636 192.249 47.3099 192.369 49.5155Z" fill="#0078D4"/>
    <path d="M188.26 49.7381C189.501 49.0215 189.501 46.6979 188.259 44.5481C187.018 42.3984 185.006 41.2366 183.765 41.9531C182.524 42.6697 182.524 44.9933 183.765 47.1431C185.006 49.2928 187.018 50.4547 188.26 49.7381Z" fill="#F8F8F8"/>
    <path d="M158.602 45.552L158.593 48.7964C158.582 52.4398 156.177 56.0777 151.372 58.8576C141.706 64.4502 125.973 64.4503 116.238 58.8548C111.338 56.0387 108.892 52.3419 108.902 48.6512L108.912 45.4069C108.901 49.0975 111.348 52.7942 116.247 55.6104C125.982 61.2059 141.715 61.2059 151.382 55.6132C156.186 52.8334 158.592 49.1955 158.602 45.552Z" fill="#C8C8C8"/>
    <path d="M151.266 36.1C161.003 41.7278 161.054 50.8528 151.38 56.4807C141.712 62.1056 125.976 62.1057 116.239 56.4779C106.502 50.8501 106.451 41.7251 116.12 36.1002C125.793 30.4722 141.529 30.4721 151.266 36.1Z" fill="white"/>
    <path d="M123.797 42.0662L145.705 47.9365L143.096 57.6724L121.188 51.8021L123.797 42.0662Z" fill="url(#paint2_radial)"/>
    <path d="M149.636 45.0422C148.383 44.4114 147.757 45.0326 147.757 46.9057V51.0789C147.757 53.9165 146.528 54.6445 144.07 53.263V51.5105C144.769 51.8953 145.265 51.9499 145.558 51.6742C145.851 51.3984 145.998 50.7504 145.998 49.7302V45.71C145.998 43.7531 146.597 42.9115 147.793 43.1851V43.1294C147.185 42.5282 146.711 41.8054 146.402 41.0084C146.093 40.2114 145.955 39.3581 145.998 38.5043V34.4285C145.998 32.6293 145.356 31.3401 144.07 30.5608V28.7803C145.229 29.4124 146.188 30.3555 146.839 31.5033C147.49 32.6512 147.808 33.9581 147.757 35.2768V39.339C147.757 41.2491 148.383 42.6123 149.636 43.4286V45.0422Z" fill="#0078D4"/>
    <path d="M124.355 42.092C123.199 41.4684 122.241 40.5343 121.587 39.395C120.933 38.2558 120.611 36.9567 120.656 35.6441V31.4708C120.656 29.5974 120.03 28.2528 118.777 27.4372V25.8233C120.03 26.454 120.656 25.814 120.656 23.9032V19.8413C120.656 16.9664 121.889 16.2223 124.355 17.609V19.3895C123.078 18.6893 122.439 19.2387 122.439 21.0377V25.1138C122.439 27.0613 121.837 27.9098 120.632 27.6594V27.7151C121.246 28.3084 121.724 29.0265 122.036 29.8209C122.348 30.6153 122.485 31.4674 122.439 32.3195V36.3397C122.403 37.1781 122.549 38.0143 122.867 38.7912C123.197 39.4443 123.715 39.9835 124.355 40.3393V42.092Z" fill="#0078D4"/>
    <path d="M134.434 34.9021C136.99 36.3337 139.546 39.0946 141.387 42.6736C141.867 43.5562 142.147 44.5339 142.205 45.5369C142.205 46.7639 141.285 47.2753 140.16 46.6617L134.331 43.2872L128.503 39.9125C127.917 39.5545 127.425 39.0612 127.069 38.4741C126.714 37.8869 126.504 37.223 126.457 36.538C126.441 36.1738 126.506 35.8106 126.648 35.4746C126.789 35.1386 127.004 34.8382 127.275 34.5951C129.321 33.1637 131.877 33.4705 134.434 34.9021Z" fill="#0078D4"/>
    <path d="M134.433 35.5156C136.887 36.9473 138.932 35.8226 138.932 32.8569C138.932 29.9936 136.887 26.5169 134.433 24.9831C131.979 23.5516 129.934 24.6762 129.934 27.6418C129.934 30.6075 131.877 34.084 134.433 35.5156Z" fill="#0078D4"/>
    <rect x="68.625" y="106.96" width="47.711" height="24.6427" transform="rotate(15 68.625 106.96)" fill="url(#paint3_radial)"/>
    <path d="M65.6094 101.954V33.2832L99.0519 52.5499L112.489 74.9893V129.132L65.6094 101.954Z" fill="url(#paint4_linear)" stroke="#ACACAC" stroke-linecap="round" stroke-linejoin="round"/>
    <path d="M65.1074 32.4242L69.3072 30L103.486 49.7606L99.4045 52.1848L65.1074 32.4242Z" fill="#CCCCCC"/>
    <path d="M99.4141 52.1816L103.505 49.7573L117.198 72.424L112.998 74.8482L99.4141 52.1816Z" fill="#BABABA"/>
    <path d="M112.99 74.8486L117.19 72.4243V127.493L112.99 130V74.8486Z" fill="url(#paint5_linear)"/>
    <path d="M99.4141 52.1816L112.989 74.8574L99.4141 66.918V52.1816Z" fill="#D8D8D8"/>
    <path d="M81.8981 92.2333L69.9805 85.353V76.1787L81.8981 83.059V92.2333Z" fill="#FFC483" stroke="#D15900" stroke-miterlimit="10"/>
    <path d="M108.115 96.362L93.8145 88.1059V78.9302L108.115 87.1878V96.362Z" fill="#FFC483" stroke="#D15900" stroke-miterlimit="10"/>
    <path d="M90.1613 74.9861L79.0391 68.5634V59.3892L90.1613 65.8119V74.9861Z" fill="#AAE2A6" stroke="#1B9117" stroke-miterlimit="10"/>
    <path d="M99.5758 113.45L86.0703 105.651V96.4771L99.5758 104.276V113.45Z" fill="#C3ADF7" stroke="#341A6E" stroke-miterlimit="10"/>
    <path d="M105.731 80.3075L93.0195 72.9681V71.1333L105.731 78.4727V80.3075Z" fill="#949494"/>
    <path d="M87.7777 69.9411L81.4219 66.2714V64.4365L87.7777 68.1062V69.9411Z" fill="#1B9117"/>
    <path d="M76.1798 63.2439L72.3633 61.0409V59.2061L76.1798 61.4091V63.2439Z" fill="#949494"/>
    <path d="M84.281 78.9305L72.3633 72.0502V70.2153L84.281 77.0956V78.9305Z" fill="#949494"/>
    <path d="M90.6376 82.5999L87.459 80.765V78.9302L90.6376 80.765V82.5999Z" fill="#949494"/>
    <path d="M105.732 91.3164L96.1973 85.8119V83.9771L105.732 89.4816V91.3164Z" fill="#D15900"/>
    <path d="M79.513 87.1878L72.3633 83.059V81.2241L79.513 85.3529V87.1878Z" fill="#D15900"/>
    <path d="M105.731 102.326L85.0742 90.3983V88.5635L105.731 100.491V102.326Z" fill="#949494"/>
    <path d="M102.555 109.665L105.732 111.5V113.335L102.555 111.5V109.665Z" fill="#949494"/>
    <path d="M89.0469 101.867L96.992 106.455V108.289L89.0469 103.702V101.867Z" fill="#341A6E"/>
    <path d="M72.3633 92.2334L83.4855 98.6561V100.491L72.3633 94.0682V92.2334Z" fill="#949494"/>
    <defs>
        <radialGradient id="paint0_radial" cx="0" cy="0" r="1" gradientUnits="userSpaceOnUse" gradientTransform="translate(178.195 113.071) rotate(105) scale(5.03971 11.3405)">
            <stop stop-opacity="0.15"/>
            <stop offset="1" stop-opacity="0"/>
        </radialGradient>
        <radialGradient id="paint1_radial" cx="0" cy="0" r="1" gradientUnits="userSpaceOnUse" gradientTransform="translate(185.464 64.1034) rotate(105) scale(5.03971 11.3406)">
            <stop stop-opacity="0.15"/>
            <stop offset="1" stop-opacity="0"/>
        </radialGradient>
        <radialGradient id="paint2_radial" cx="0" cy="0" r="1" gradientUnits="userSpaceOnUse" gradientTransform="translate(133.447 49.8693) rotate(105) scale(5.03971 11.3406)">
            <stop stop-opacity="0.15"/>
            <stop offset="1" stop-opacity="0"/>
        </radialGradient>
        <radialGradient id="paint3_radial" cx="0" cy="0" r="1" gradientUnits="userSpaceOnUse" gradientTransform="translate(92.4805 119.282) rotate(90) scale(12.3214 23.8555)">
            <stop stop-opacity="0.15"/>
            <stop offset="1" stop-opacity="0"/>
        </radialGradient>
        <linearGradient id="paint4_linear" x1="57.5127" y1="51.7074" x2="117.313" y2="113.255" gradientUnits="userSpaceOnUse">
            <stop offset="0.375" stop-color="#FEFEFE"/>
            <stop offset="1" stop-color="#D5D5D5"/>
        </linearGradient>
        <linearGradient id="paint5_linear" x1="115.09" y1="130" x2="115.09" y2="72.4319" gradientUnits="userSpaceOnUse">
            <stop stop-color="#797775"/>
            <stop offset="0.157" stop-color="#868482"/>
            <stop offset="1" stop-color="#AFACA9"/>
        </linearGradient>
    </defs>
</svg>
