<svg width="242" height="138" viewBox="0 0 242 138" fill="none" xmlns="http://www.w3.org/2000/svg">
<g id="Read">
<g id="Read_2">
<g id="base disc">
<path d="M0 8C0 3.58172 3.58172 0 8 0H252C256.418 0 260 3.58172 260 8V153H0V8Z" fill="#F2F2F2"/>
<path id="Vector" d="M189.174 71.3023L189.161 75.8763C189.146 81.013 185.786 86.1419 179.074 90.061C165.57 97.9458 143.591 97.9459 129.992 90.0571C123.147 86.0868 119.729 80.8749 119.744 75.6716L119.757 71.0977C119.742 76.3009 123.16 81.5127 130.005 85.4831C143.604 93.3719 165.583 93.3718 179.087 85.487C185.799 81.5679 189.159 76.439 189.174 71.3023Z" fill="#C8C8C8"/>
<path id="Vector_2" d="M178.925 57.9781C192.527 65.9123 192.599 78.7771 179.085 86.7116C165.579 94.6419 143.596 94.642 129.994 86.7077C116.392 78.7734 116.32 65.9086 129.827 57.9784C143.34 50.0438 165.323 50.0437 178.925 57.9781Z" fill="white"/>
</g>
<g id="text">
<path id="shadow in rectangle" d="M139.313 58.9609L172.558 67.9508L168.599 82.8605L135.355 73.8707L139.313 58.9609Z" fill="url(#paint0_radial_113018_313657)"/>
<g id="Layer 1">
<path id="Vector_3" d="M177.274 63.9399C175.422 62.9987 174.495 63.9255 174.495 66.7204V72.9471C174.495 77.1811 172.678 78.2673 169.045 76.206V73.5911C170.078 74.1653 170.812 74.2467 171.245 73.8353C171.678 73.4239 171.895 72.457 171.895 70.9347V64.9363C171.895 62.0164 172.78 60.7606 174.549 61.1689V61.0858C173.65 60.1888 172.949 59.1104 172.492 57.9212C172.035 56.732 171.831 55.4588 171.895 54.1848V48.1033C171.895 45.4188 170.945 43.4952 169.045 42.3324V39.6758C170.758 40.619 172.175 42.0262 173.138 43.7388C174.101 45.4515 174.571 47.4015 174.495 49.3691V55.4302C174.495 58.2803 175.421 60.3143 177.274 61.5322V63.9399Z" fill="#0078D4"/>
<path id="Vector_4" d="M139.896 59.5406C138.187 58.61 136.77 57.2163 135.803 55.5165C134.837 53.8166 134.361 51.8782 134.427 49.9197V43.6929C134.427 40.8976 133.501 38.8914 131.649 37.6744V35.2664C133.501 36.2074 134.427 35.2524 134.427 32.4014V26.3407C134.427 22.0511 136.25 20.9408 139.896 23.0099V25.6666C138.008 24.6218 137.063 25.4416 137.064 28.1258V34.2078C137.064 37.1135 136.173 38.3795 134.392 38.006V38.089C135.299 38.9743 136.006 40.0458 136.467 41.231C136.928 42.4164 137.131 43.6878 137.063 44.9593V50.9577C137.011 52.2086 137.226 53.4563 137.695 54.6155C138.184 55.59 138.95 56.3945 139.896 56.9253V59.5406Z" fill="#0078D4"/>
<path id="Vector_5" d="M169.968 68.0409L140.825 51.0278V33.6172L169.968 50.6302L169.968 68.0409Z" fill="#0078D4"/>
</g>
<g id="Group 427319471">
<path id="Vector_6" d="M164.759 54.8873L145.532 43.6844V40.6973L164.759 51.8998V54.8873Z" fill="#F8F8F8"/>
<path id="Vector_7" d="M159.754 58.0082L145.53 49.6883V46.7012L159.754 55.021V58.0082Z" fill="#F8F8F8"/>
</g>
</g>
<g id="Signature">
<g id="Layer 1_2">
<rect id="shadow in rectangle_2" width="47.3518" height="24.6521" transform="matrix(0.965328 0.26104 -0.256614 0.966514 79.501 100.719)" fill="url(#paint1_radial_113018_313657)"/>
<path id="Vector_8" d="M79.5811 100.752V31.3281L113.084 50.805L126.546 73.4908V128.229L79.5811 100.752Z" fill="url(#paint2_linear_113018_313657)"/>
<path id="Vector_9" d="M80.0819 32.2002L112.722 51.1766L126.045 73.6289V127.35L80.0819 100.461V32.2002ZM79.0801 30.4512V101.043L127.047 129.105V73.3488L113.447 50.4315L79.0801 30.4512Z" fill="url(#paint3_linear_113018_313657)"/>
<g id="Form-01">
<path id="Vector_10" d="M93.5406 69.7861L84.8652 64.7311V54.6211L93.5406 59.6761V69.7861Z" fill="#F3F2F1"/>
<path id="Vector_11" d="M102.217 82.9282L123.039 95.0602V93.0382L102.217 80.9062V82.9282Z" fill="#F3F2F1"/>
<path id="Vector_12" d="M84.8652 72.8169L98.7458 80.9049V78.8829L84.8652 70.7949V72.8169Z" fill="#F3F2F1"/>
<path id="Vector_13" d="M110.89 71.8053L97.0098 63.7173V61.6953L110.89 69.7833V71.8053Z" fill="#F3F2F1"/>
<path id="Vector_14" d="M106.553 74.3344L97.0098 68.7739V66.752L106.553 72.3124V74.3344Z" fill="#F3F2F1"/>
<path id="Vector_15" d="M102.217 88.4732L123.039 100.605V98.5831L102.217 86.4512V88.4732Z" fill="#F3F2F1"/>
<path id="Vector_16" d="M84.8652 78.3638L98.7458 86.4518V84.4298L84.8652 76.3418V78.3638Z" fill="#F3F2F1"/>
<path id="Vector_17" d="M102.217 94.6919L123.039 106.824V104.802L102.217 92.6699V94.6919Z" fill="#F3F2F1"/>
<path id="Vector_18" d="M84.8652 84.5806L98.7458 92.6686V90.6466L84.8652 82.5586V84.5806Z" fill="#F3F2F1"/>
</g>
<path id="Vector_19" d="M120.653 113.202C118.864 112.682 117.047 110.916 116.836 109.644C116.757 109.43 116.621 109.243 116.442 109.103C116.263 108.964 116.049 108.878 115.824 108.854C114.985 108.831 114.145 108.894 113.319 109.042C113.319 109.042 115.022 106.974 113.976 106.034C112.985 105.139 111.178 105.097 110.002 105.023C110.367 104.063 110.448 103.017 110.237 102.012C110.15 101.781 109.994 101.582 109.79 101.445C109.587 101.307 109.346 101.237 109.101 101.245C105.358 101.707 101.813 103.199 98.8525 105.556C98.4778 105.872 99.6449 106.779 100.018 106.465C102.64 104.37 105.75 102.985 109.053 102.443C109.066 103.33 108.877 104.208 108.5 105.01C107.128 105.024 105.781 105.373 104.573 106.028C103.933 106.397 102.921 106.896 103.39 107.941C103.627 108.404 103.985 108.793 104.424 109.069C104.863 109.344 105.367 109.494 105.884 109.505C107.988 109.358 108.948 107.443 109.583 106.033C110.784 105.998 111.984 106.125 113.152 106.41C113.386 106.582 111.384 109.252 110.972 109.847C110.758 110.158 111.605 111.039 112.048 110.805C113.219 110.228 114.503 109.925 115.806 109.918C116.952 111.985 118.85 113.522 121.098 114.204C121.901 114.437 121.455 113.431 120.653 113.202ZM105.812 108.282C105.248 108.624 104.51 108.221 104.71 107.711C105.148 106.599 106.608 106.438 107.875 106.203C107.345 107.038 106.641 107.748 105.812 108.282Z" fill="#F3F2F1"/>
<path id="Vector_20" d="M79.0801 30.4515L83.2875 28.0059L117.534 47.9832L113.446 50.4288L79.0801 30.4515Z" fill="#FFC483"/>
<path id="Vector_21" d="M113.446 50.428L117.538 47.9824L131.262 70.8967L127.054 73.3423L113.446 50.428Z" fill="#FAA21D"/>
<path id="Vector_22" d="M127.049 73.3479L131.256 70.9023V126.57L127.049 129.104V73.3479Z" fill="url(#paint4_linear_113018_313657)"/>
<path id="Vector_23" d="M113.446 50.4336L127.046 73.359L113.446 65.3317V50.4336Z" fill="#FFC483"/>
</g>
</g>
</g>
</g>
<defs>
<radialGradient id="paint0_radial_113018_313657" cx="0" cy="0" r="1" gradientUnits="userSpaceOnUse" gradientTransform="translate(153.956 70.9107) rotate(104.869) scale(7.71317 17.2191)">
<stop stop-opacity="0.15"/>
<stop offset="1" stop-opacity="0"/>
</radialGradient>
<radialGradient id="paint1_radial_113018_313657" cx="0" cy="0" r="1" gradientUnits="userSpaceOnUse" gradientTransform="translate(23.6759 12.326) rotate(90) scale(12.326 23.6759)">
<stop stop-opacity="0.15"/>
<stop offset="1" stop-opacity="0"/>
</radialGradient>
<linearGradient id="paint2_linear_113018_313657" x1="71.4697" y1="49.9517" x2="131.941" y2="111.626" gradientUnits="userSpaceOnUse">
<stop offset="0.197917" stop-color="#FAA21D"/>
<stop offset="1" stop-color="#EF7100"/>
</linearGradient>
<linearGradient id="paint3_linear_113018_313657" x1="103.064" y1="30.4512" x2="103.064" y2="129.105" gradientUnits="userSpaceOnUse">
<stop stop-color="#FBA21E"/>
<stop offset="1" stop-color="#F07503"/>
</linearGradient>
<linearGradient id="paint4_linear_113018_313657" x1="129.153" y1="129.104" x2="129.153" y2="70.9023" gradientUnits="userSpaceOnUse">
<stop stop-color="#EF7100"/>
<stop offset="1" stop-color="#F99D1C"/>
</linearGradient>
</defs>
</svg>
