<svg width="260" height="153" viewBox="0 0 260 153" fill="none"
    xmlns="http://www.w3.org/2000/svg">
    <path d="M0 8C0 3.58172 3.58172 0 8 0H252C256.418 0 260 3.58172 260 8V153H0V8Z" fill="#F2F2F2"/>
    <path d="M183.738 68.3358L183.725 72.9053C183.71 78.0369 180.323 83.1608 173.555 87.076C159.94 94.953 137.781 94.9531 124.07 87.0721C117.169 83.1057 113.724 77.899 113.738 72.7008L113.751 68.1313C113.737 73.3295 117.183 78.5361 124.083 82.5026C137.794 90.3836 159.953 90.3835 173.568 82.5065C180.336 78.5912 183.723 73.4674 183.738 68.3358Z" fill="#C8C8C8"/>
    <path d="M173.405 55.023C187.119 62.9494 187.191 75.8015 173.566 83.7282C159.949 91.6507 137.786 91.6508 124.072 83.7243C110.358 75.7978 110.286 62.9456 123.903 55.0233C137.528 47.0965 159.691 47.0964 173.405 55.023Z" fill="white"/>
    <path d="M132.264 61.7008L165.337 70.5628L161.399 85.2605L128.325 76.3985L132.264 61.7008Z" fill="url(#paint0_radial)"/>
    <path d="M171.162 39.5083L131.334 16.514C130.898 16.1959 130.385 16.0001 129.848 15.9469C129.311 15.8937 128.769 15.9849 128.279 16.2112L126.145 17.4548C126.634 17.2285 127.176 17.1373 127.713 17.1905C128.25 17.2437 128.763 17.4395 129.199 17.7576L169.028 40.7519C170.276 41.5625 171.315 42.6567 172.059 43.9452C172.804 45.2337 173.233 46.68 173.312 48.166L173.228 77.7881C173.282 78.3175 173.014 78.9009 172.794 79.3853C172.574 79.8698 172.409 80.238 171.975 80.5458L174.11 79.3052C174.544 78.9975 174.888 78.5801 175.108 78.0956C175.329 77.6111 175.416 77.0769 175.362 76.5475L175.447 46.9254C175.368 45.4389 174.939 43.9921 174.194 42.703C173.449 41.414 172.41 40.3193 171.162 39.5083Z" fill="url(#paint1_linear)"/>
    <path d="M170.844 80.3249C170.249 80.298 169.671 80.1183 169.166 79.803L129.338 56.8107C128.165 56.0466 127.189 55.0163 126.489 53.8035C125.79 52.5907 125.386 51.2298 125.312 49.8317L125.396 20.2096C125.401 18.6188 126.103 17.6699 127.271 17.6699C127.865 17.6962 128.442 17.8757 128.946 18.1908L168.774 41.1861C169.948 41.949 170.926 42.9783 171.627 44.1903C172.329 45.4023 172.734 46.7628 172.811 48.1611L172.726 77.7832C172.718 79.377 172.016 80.3249 170.844 80.3249Z" fill="url(#paint2_linear)"/>
    <path d="M127.273 18.1744C127.777 18.2014 128.267 18.3578 128.694 18.6287L168.522 41.623C169.615 42.3454 170.526 43.3119 171.182 44.4463C171.838 45.5807 172.221 46.852 172.302 48.1599L172.218 77.782C172.218 78.3957 172.079 79.823 170.845 79.823C170.339 79.7956 169.849 79.6392 169.42 79.3688L129.591 56.3734C128.499 55.6499 127.589 54.6824 126.934 53.5473C126.28 52.4122 125.897 51.1405 125.818 49.8325L125.902 20.2114C125.902 19.5987 126.041 18.1744 127.273 18.1744ZM127.273 17.165C125.866 17.165 124.899 18.2754 124.893 20.2084L124.809 49.8295C124.885 51.3158 125.313 52.7629 126.057 54.0522C126.8 55.3416 127.838 56.4366 129.086 57.2476L168.92 80.2429C169.5 80.6043 170.165 80.8075 170.849 80.8324C172.256 80.8324 173.227 79.7221 173.232 77.785L173.316 48.1629C173.237 46.6768 172.807 45.2304 172.063 43.9419C171.318 42.6534 170.279 41.5592 169.031 40.7488L129.199 17.7545C128.619 17.3927 127.954 17.1894 127.272 17.165H127.273Z" fill="#966DF2"/>
    <path d="M167.108 55.9485L151.133 46.7255V44.2666L167.108 53.4896V55.9485Z" fill="#966DF2"/>
    <path d="M167.108 60.7462L151.133 51.5243V49.0643L167.108 58.2873V60.7462Z" fill="#966DF2"/>
    <path d="M167.108 65.5449L151.133 56.323V53.863L167.108 63.086V65.5449Z" fill="#966DF2"/>
    <path d="M138.688 44.6571C141.84 46.6251 144.367 49.4493 145.974 52.7999C146.477 53.7245 146.77 54.749 146.831 55.8C146.831 57.0859 145.867 57.6213 144.688 56.9788L138.581 53.444L132.473 49.9085C131.859 49.5336 131.344 49.017 130.972 48.4019C130.599 47.7869 130.379 47.0913 130.331 46.3737C130.314 45.9922 130.382 45.6116 130.53 45.2596C130.678 44.9076 130.903 44.5929 131.187 44.3382C133.331 42.8365 136.01 43.1586 138.688 44.6571Z" fill="#966DF2"/>
    <path d="M138.689 45.3012C141.261 46.8012 143.404 45.6233 143.404 42.5152C143.296 40.8723 142.816 39.2756 141.999 37.8462C141.182 36.4167 140.05 35.1921 138.689 34.2653C136.118 32.7653 133.975 33.9432 133.975 37.0513C134.034 38.7053 134.494 40.3202 135.315 41.7572C136.136 43.1942 137.294 44.4104 138.689 45.3012Z" fill="#966DF2"/>
    <rect x="163.852" y="74.6681" width="18.2152" height="9.64226" transform="rotate(15 163.852 74.6681)" fill="url(#paint3_radial)"/>
    <path d="M180.999 41.6147L180.934 48.3224C180.922 52.6909 179.228 54.9139 177.246 56.0656L179.783 54.6305C181.765 53.4785 183.5 51.2216 183.512 46.853V40.1542L180.999 41.6147Z" fill="url(#paint4_linear)"/>
    <path d="M180.999 41.6145L183.512 40.154C180.397 34.76 174.53 28.5984 168.394 28.3296C165.7 28.2116 164.375 29.2993 162.029 30.6625C164.893 29.0298 168.403 29.8813 171.271 31.4722C174.522 33.2752 178.141 36.6647 180.999 41.6145Z" fill="#84ECFD"/>
    <path d="M171.535 31.6212C174.967 33.6026 178.387 37.0898 180.999 41.6146L180.934 48.3224C180.906 58.3284 171.938 57.2473 171.463 57.1907C170.99 56.6997 162.001 47.3675 162.029 37.3614V30.6625C164.659 29.1641 168.103 29.6397 171.535 31.6212Z" fill="url(#paint5_linear)"/>
    <path d="M175.192 43.1082L174.523 42.7169C174.523 40.97 174.633 40.4083 174.103 39.1258C173.658 38.062 172.923 37.1442 171.983 36.4765C171.058 35.967 170.783 35.7618 169.686 36.0493C168.584 36.3379 168.487 37.711 168.487 38.0441V39.1878L167.976 38.8881C167.934 38.8639 167.886 38.851 167.838 38.8507C167.789 38.8504 167.741 38.8627 167.699 38.8864C167.657 38.9101 167.622 38.9444 167.597 38.9859C167.572 39.0274 167.558 39.0748 167.557 39.1232V46.638C167.554 46.924 167.628 47.2056 167.769 47.4545C167.909 47.7033 168.113 47.9107 168.36 48.0559L173.805 51.2366C173.971 51.3335 174.16 51.385 174.352 51.3859C174.544 51.3868 174.734 51.3372 174.901 51.2419C175.068 51.1467 175.207 51.0092 175.304 50.8432C175.402 50.6772 175.454 50.4885 175.455 50.2962C175.481 43.0851 175.486 43.4874 175.387 43.309C175.341 43.2261 175.273 43.1568 175.192 43.1082ZM172.301 46.5565C172.179 46.5979 172.121 46.7439 172.149 46.9365L172.313 48.072C172.337 48.2369 172.236 48.3181 172.103 48.2411L170.907 47.5508C170.839 47.5071 170.783 47.4459 170.746 47.3735C170.709 47.3011 170.692 47.2202 170.697 47.1391L170.861 46.1936C170.876 45.9932 170.821 45.7938 170.704 45.6301C169.804 44.3354 170.226 42.9585 171.273 43.351C171.709 43.5693 172.08 43.9001 172.345 44.3094C172.611 44.7186 172.763 45.1913 172.785 45.6788C172.81 45.8578 172.776 46.0398 172.688 46.1979C172.601 46.356 172.465 46.4818 172.301 46.5565ZM173.434 42.0802L169.511 39.786C169.501 39.2488 169.492 38.0738 169.487 37.848C169.478 37.6197 169.559 37.3971 169.712 37.2274C169.865 37.0576 170.078 36.9541 170.306 36.9387C170.925 36.9465 171.631 37.3154 172.438 38.4006C172.983 39.1218 173.325 39.9757 173.429 40.8738C173.463 41.1885 173.434 42.0162 173.434 42.0802Z" fill="#D5F9FD"/>
    <rect x="74.5547" y="105.96" width="47.711" height="24.6427" transform="rotate(15 74.5547 105.96)" fill="url(#paint6_radial)"/>
    <path d="M70.4766 99.8865V31.2153L103.919 50.482L117.356 72.9214V127.064L70.4766 99.8865Z" fill="url(#paint7_linear)" stroke="#ACACAC" stroke-linecap="round" stroke-linejoin="round"/>
    <path d="M69.9746 30.3564L74.1744 27.9321L108.353 47.6927L104.272 50.117L69.9746 30.3564Z" fill="#CCCCCC"/>
    <path d="M104.281 50.1142L108.372 47.6899L122.065 70.3566L117.866 72.7809L104.281 50.1142Z" fill="#BABABA"/>
    <path d="M117.857 72.7807L122.057 70.3564V125.425L117.857 127.932V72.7807Z" fill="url(#paint8_linear)"/>
    <path d="M104.281 50.1138L117.856 72.7895L104.281 64.8501V50.1138Z" fill="#D8D8D8"/>
    <path d="M86.7653 90.1654L74.8477 83.2851V74.1108L86.7653 80.9911V90.1654Z" fill="#FFC483" stroke="#D15900" stroke-miterlimit="10"/>
    <path d="M112.983 94.2941L98.6816 86.0381V76.8623L112.983 85.1199V94.2941Z" fill="#FFC483" stroke="#D15900" stroke-miterlimit="10"/>
    <path d="M95.0266 72.9183L83.9043 66.4955V57.3213L95.0266 63.744V72.9183Z" fill="#AAE2A6" stroke="#1B9117" stroke-miterlimit="10"/>
    <path d="M104.443 111.382L90.9375 103.583V94.4092L104.443 102.208V111.382Z" fill="#C3ADF7" stroke="#341A6E" stroke-miterlimit="10"/>
    <path d="M110.598 78.2397L97.8867 70.9003V69.0654L110.598 76.4048V78.2397Z" fill="#949494"/>
    <path d="M92.6449 67.8732L86.2891 64.2035V62.3687L92.6449 66.0383V67.8732Z" fill="#1B9117"/>
    <path d="M81.047 61.1761L77.2305 58.973V57.1382L81.047 59.3412V61.1761Z" fill="#949494"/>
    <path d="M89.1481 76.8626L77.2305 69.9823V68.1475L89.1481 75.0278V76.8626Z" fill="#949494"/>
    <path d="M95.5048 80.532L92.3262 78.6972V76.8623L95.5048 78.6972V80.532Z" fill="#949494"/>
    <path d="M110.599 89.2486L101.064 83.744V81.9092L110.599 87.4137V89.2486Z" fill="#D15900"/>
    <path d="M84.3802 85.1199L77.2305 80.9911V79.1562L84.3802 83.285V85.1199Z" fill="#D15900"/>
    <path d="M110.598 100.258L89.9414 88.3305V86.4956L110.598 98.4229V100.258Z" fill="#949494"/>
    <path d="M107.422 107.597L110.599 109.432V111.267L107.422 109.432V107.597Z" fill="#949494"/>
    <path d="M93.916 99.7988L101.861 104.387V106.222L93.916 101.634V99.7988Z" fill="#341A6E"/>
    <path d="M77.2305 90.1655L88.3527 96.5883V98.4231L77.2305 92.0004V90.1655Z" fill="#949494"/>
    <defs>
        <radialGradient id="paint0_radial" cx="0" cy="0" r="1" gradientUnits="userSpaceOnUse" gradientTransform="translate(146.831 73.4806) rotate(105) scale(7.60808 17.12)">
            <stop stop-opacity="0.15"/>
            <stop offset="1" stop-opacity="0"/>
        </radialGradient>
        <linearGradient id="paint1_linear" x1="149.566" y1="26.1183" x2="153.499" y2="79.1412" gradientUnits="userSpaceOnUse">
            <stop stop-color="#CAB6F2"/>
            <stop offset="0.65" stop-color="#966DF2"/>
            <stop offset="1" stop-color="#844CE3"/>
        </linearGradient>
        <linearGradient id="paint2_linear" x1="169.858" y1="76.9946" x2="125.313" y2="17.6699" gradientUnits="userSpaceOnUse">
            <stop stop-color="#CAABFF"/>
            <stop offset="0.375" stop-color="#F4EDFF"/>
            <stop offset="1" stop-color="white"/>
        </linearGradient>
        <radialGradient id="paint3_radial" cx="0" cy="0" r="1" gradientUnits="userSpaceOnUse" gradientTransform="translate(172.959 79.4892) rotate(90) scale(4.82113 9.10762)">
            <stop stop-opacity="0.15"/>
            <stop offset="1" stop-opacity="0"/>
        </radialGradient>
        <linearGradient id="paint4_linear" x1="180.379" y1="38.6589" x2="180.379" y2="56.5164" gradientUnits="userSpaceOnUse">
            <stop stop-color="#84ECFD"/>
            <stop offset="0.651042" stop-color="#3EAEE7"/>
            <stop offset="0.8125" stop-color="#0078D4"/>
            <stop offset="1" stop-color="#114D7C"/>
        </linearGradient>
        <linearGradient id="paint5_linear" x1="162.296" y1="31.0658" x2="179.006" y2="53.0073" gradientUnits="userSpaceOnUse">
            <stop offset="0.0885417" stop-color="#33A6FF"/>
            <stop offset="0.526042" stop-color="#0078D4"/>
            <stop offset="1" stop-color="#156AB3"/>
        </linearGradient>
        <radialGradient id="paint6_radial" cx="0" cy="0" r="1" gradientUnits="userSpaceOnUse" gradientTransform="translate(98.4102 118.282) rotate(90) scale(12.3214 23.8555)">
            <stop stop-opacity="0.15"/>
            <stop offset="1" stop-opacity="0"/>
        </radialGradient>
        <linearGradient id="paint7_linear" x1="62.3799" y1="49.6396" x2="122.18" y2="111.187" gradientUnits="userSpaceOnUse">
            <stop offset="0.375" stop-color="#FEFEFE"/>
            <stop offset="1" stop-color="#D5D5D5"/>
        </linearGradient>
        <linearGradient id="paint8_linear" x1="119.957" y1="127.932" x2="119.957" y2="70.364" gradientUnits="userSpaceOnUse">
            <stop stop-color="#797775"/>
            <stop offset="0.157" stop-color="#868482"/>
            <stop offset="1" stop-color="#AFACA9"/>
        </linearGradient>
    </defs>
</svg>
