<svg width="242" height="138" viewBox="0 0 242 138" fill="none" xmlns="http://www.w3.org/2000/svg">
<path d="M121.307 39.5L78.9316 105.25" stroke="#B3B0AD" stroke-width="2" stroke-linecap="round"/>
<path d="M78.9336 105.187L172.683 52.625" stroke="#B3B0AD" stroke-width="2" stroke-linecap="round"/>
<line x1="78.8965" y1="105.55" x2="182.594" y2="105.55" stroke="#B3B0AD" stroke-width="2" stroke-linecap="round"/>
<path d="M190.401 101.854L190.392 105.099C190.381 108.742 187.976 112.38 183.171 115.16C173.505 120.752 157.772 120.752 148.037 115.157C143.137 112.341 140.691 108.644 140.701 104.953L140.71 101.709C140.7 105.4 143.147 109.096 148.046 111.913C157.781 117.508 173.514 117.508 183.181 111.915C187.985 109.136 190.39 105.498 190.401 101.854Z" fill="#C8C8C8"/>
<path d="M183.065 92.4021C192.801 98.0299 192.853 107.155 183.179 112.783C173.511 118.408 157.775 118.408 148.038 112.78C138.301 107.152 138.25 98.0272 147.918 92.4024C157.592 86.7744 173.328 86.7743 183.065 92.4021Z" fill="white"/>
<path d="M154.465 97.8641L176.373 103.734L173.764 113.47L151.856 107.6L154.465 97.8641Z" fill="url(#paint0_radial)"/>
<path d="M179.677 101.491C178.443 100.869 177.825 101.481 177.825 103.327V107.438C177.825 110.234 176.614 110.951 174.193 109.59V107.863C175.719 108.703 176.092 107.882 176.093 106.109V102.149C176.093 100.221 176.682 99.3917 177.861 99.6613V99.6065C177.262 99.0141 176.795 98.3021 176.49 97.5169C176.186 96.7317 176.05 95.8911 176.093 95.0499V91.0345C176.093 89.262 175.46 87.9919 174.193 87.2241V85.47C175.335 86.0928 176.279 87.0219 176.921 88.1527C177.563 89.2835 177.876 90.571 177.825 91.8702V95.8721C177.825 97.754 178.442 99.097 179.677 99.9011V101.491Z" fill="#0078D4"/>
<path d="M154.771 98.5845C153.632 97.97 152.687 97.0498 152.043 95.9274C151.4 94.8051 151.082 93.5253 151.126 92.2321V88.1208C151.126 86.2751 150.509 84.9505 149.275 84.1469V82.557C150.509 83.1783 151.126 82.5478 151.126 80.6653V76.6636C151.126 73.8313 152.341 73.0982 154.77 74.4644V76.2185C153.512 75.5287 152.883 76.0699 152.883 77.8423V81.858C152.883 83.7765 152.29 84.6125 151.103 84.3658V84.4207C151.707 85.0052 152.179 85.7127 152.486 86.4953C152.793 87.2779 152.928 88.1174 152.883 88.9569V92.9175C152.848 93.7434 152.991 94.5672 153.304 95.3326C153.63 95.976 154.14 96.5072 154.771 96.8577V98.5845Z" fill="#0078D4"/>
<path d="M164.927 101.31V103.17C164.927 103.576 164.642 103.74 164.293 103.538C164.108 103.417 163.954 103.254 163.843 103.063C163.733 102.871 163.669 102.656 163.657 102.435V100.67C162.465 99.9978 161.387 99.1424 160.462 98.1353C160.133 97.7753 159.941 97.312 159.918 96.8254V96.7202C159.918 95.9325 160.609 95.8159 161.24 96.4775C161.952 97.2486 162.765 97.9195 163.657 98.4717V93.1487C162.423 91.8819 161.359 90.4597 160.493 88.9181C160.028 87.9772 159.78 86.9436 159.77 85.8941C159.77 83.4227 161.475 82.578 163.653 83.4962V82.0793C163.653 81.6731 163.939 81.509 164.29 81.7111C164.475 81.8324 164.629 81.9955 164.739 82.1871C164.849 82.3788 164.912 82.5937 164.924 82.8144V84.1838C165.76 84.6749 166.547 85.2453 167.274 85.8872C167.668 86.2582 167.902 86.7676 167.928 87.3079C167.928 88.2357 167.248 88.2458 166.675 87.7103C166.138 87.2109 165.553 86.7667 164.927 86.3846V91.8978C166.13 93.1569 167.177 94.5563 168.045 96.0656C169.265 98.4401 169.131 100.766 167.838 101.483C167.14 101.87 166.17 101.812 164.927 101.31ZM163.653 90.4808V85.7085C163.459 85.6162 163.245 85.5729 163.03 85.5823C162.816 85.5917 162.606 85.6535 162.421 85.7623C161.78 86.2161 161.866 87.6001 162.338 88.5848C162.698 89.2675 163.14 89.9041 163.653 90.4808V90.4808ZM164.927 94.5289V99.1333C166.101 99.5237 166.688 99.1568 166.688 98.0326C166.688 97.0922 166.101 95.9243 164.927 94.5289Z" fill="#0078D4"/>
<path d="M200.401 52.755L200.392 55.9994C200.381 59.6428 197.976 63.2808 193.171 66.0606C183.505 71.6532 167.772 71.6533 158.037 66.0578C153.137 63.2417 150.691 59.5449 150.701 55.8542L150.71 52.6099C150.7 56.3006 153.147 59.9973 158.046 62.8135C167.781 68.409 183.514 68.4089 193.181 62.8163C197.985 60.0364 200.39 56.3985 200.401 52.755Z" fill="#C8C8C8"/>
<path d="M193.065 43.303C202.801 48.9308 202.853 58.0558 193.179 63.6837C183.511 69.3087 167.775 69.3087 158.038 63.6809C148.301 58.0531 148.25 48.9281 157.918 43.3032C167.592 37.6752 183.328 37.6751 193.065 43.303Z" fill="white"/>
<path d="M165.547 47.7898L187.455 53.6601L184.846 63.396L162.938 57.5257L165.547 47.7898Z" fill="url(#paint1_radial)"/>
<path d="M190.267 50.3746C189.051 49.7624 188.443 50.3653 188.443 52.1832V56.2334C188.443 58.9873 187.25 59.6939 184.865 58.3531V56.6522C185.544 57.0257 186.025 57.0787 186.309 56.8111C186.594 56.5435 186.736 55.9146 186.736 54.9244V51.0227C186.736 49.1235 187.317 48.3067 188.478 48.5722V48.5182C187.888 47.9347 187.428 47.2333 187.128 46.4598C186.828 45.6862 186.694 44.8581 186.736 44.0294V40.0738C186.736 38.3276 186.113 37.0764 184.865 36.3201V34.5921C185.99 35.2056 186.92 36.1209 187.552 37.2349C188.184 38.3488 188.493 39.6172 188.443 40.8971V44.8395C188.443 46.6934 189.051 48.0164 190.267 48.8086V50.3746Z" fill="#0078D4"/>
<path d="M165.732 47.5115C164.61 46.9062 163.68 45.9996 163.045 44.894C162.411 43.7883 162.098 42.5275 162.142 41.2536V37.2034C162.142 35.3852 161.534 34.0802 160.318 33.2886V31.7224C161.534 32.3344 162.142 31.7133 162.142 29.8588V25.9166C162.142 23.1265 163.338 22.4043 165.732 23.7501V25.4781C164.492 24.7986 163.872 25.3318 163.872 27.0778V31.0338C163.872 32.9238 163.288 33.7473 162.119 33.5043V33.5583C162.714 34.1341 163.178 34.8311 163.481 35.602C163.784 36.373 163.917 37.2 163.872 38.0271V41.9287C163.838 42.7424 163.979 43.554 164.287 44.3079C164.608 44.9418 165.111 45.4651 165.732 45.8104V47.5115Z" fill="#0078D4"/>
<path d="M182.232 38.9012L180.424 37.8582C181.182 36.8382 180.665 34.6582 179.261 33.1452C178.108 31.9002 176.227 31.3572 175.232 32.5062C174.25 30.2482 172.455 28.6262 171.193 28.4872C169.931 28.3482 169.25 29.8692 170.04 31.8622L168.232 30.8182C167.68 30.5002 167.232 30.7582 167.232 31.3962V43.2962C167.251 43.6432 167.352 43.9808 167.525 44.2818C167.699 44.5827 167.941 44.8384 168.232 45.0282L174.402 48.5912V34.3782C171.938 32.9612 171.957 33.0082 171.674 32.6952C170.215 31.0782 170.974 28.7592 173.117 31.0182C174.008 31.9628 174.539 33.1902 174.617 34.4862L175.852 35.1992C175.885 33.4782 177.083 33.1132 178.309 33.7942C178.665 34.0307 178.961 34.3461 179.175 34.716C179.388 35.0858 179.513 35.5 179.54 35.9262C179.551 36.6262 179.04 37.0592 178.309 36.6362L175.902 35.2472V49.4592L182.232 53.1132C182.784 53.4322 183.232 53.1742 183.232 52.5362V40.6362C183.214 40.2888 183.114 39.9506 182.94 39.6492C182.766 39.3477 182.524 39.0915 182.232 38.9012V38.9012Z" fill="#0078D4"/>
<path d="M144.615 38.0518L144.605 41.2962C144.595 44.9396 142.19 48.5775 137.385 51.3573C127.719 56.95 111.986 56.9501 102.251 51.3546C97.3512 48.5385 94.9045 44.8417 94.9151 41.151L94.9243 37.9067C94.9138 41.5973 97.3605 45.294 102.26 48.1102C111.995 53.7057 127.728 53.7057 137.394 48.113C142.199 45.3332 144.604 41.6953 144.615 38.0518Z" fill="#C8C8C8"/>
<path d="M137.278 28.5997C147.015 34.2275 147.067 43.3525 137.393 48.9805C127.725 54.6054 111.989 54.6055 102.252 48.9777C92.5152 43.3499 92.4639 34.2249 102.132 28.6C111.806 22.972 127.542 22.9719 137.278 28.5997Z" fill="white"/>
<path d="M108.502 32.6628L130.41 38.5331L127.801 48.2691L105.893 42.3988L108.502 32.6628Z" fill="url(#paint2_radial)"/>
<path d="M134.74 36.7132C133.524 36.101 132.916 36.7038 132.916 38.5218V42.572C132.916 45.3259 131.723 46.0325 129.338 44.6917V42.9908C130.016 43.3643 130.498 43.4173 130.782 43.1497C131.067 42.882 131.209 42.2531 131.209 41.263V37.3613C131.209 35.4621 131.79 34.6453 132.951 34.9108V34.8568C132.361 34.2733 131.901 33.5718 131.601 32.7983C131.301 32.0248 131.167 31.1966 131.209 30.368V26.4123C131.209 24.6662 130.585 23.415 129.338 22.6586V20.9306C130.462 21.5441 131.393 22.4594 132.025 23.5734C132.657 24.6874 132.966 25.9558 132.916 27.2356V31.1781C132.916 33.0319 133.524 34.355 134.74 35.1471V36.7132Z" fill="#0078D4"/>
<path d="M110.202 33.8501C109.081 33.2448 108.15 32.3382 107.516 31.2325C106.882 30.1269 106.569 28.8661 106.612 27.5922V23.5419C106.612 21.7237 106.005 20.4188 104.789 19.6272V18.0609C106.005 18.673 106.613 18.0518 106.612 16.1974V12.2552C106.612 9.46501 107.809 8.74284 110.202 10.0887V11.8167C108.963 11.1372 108.343 11.6704 108.343 13.4163V17.3723C108.343 19.2623 107.759 20.0858 106.589 19.8429V19.8969C107.185 20.4727 107.649 21.1696 107.952 21.9406C108.254 22.7116 108.388 23.5386 108.343 24.3656V28.2673C108.308 29.081 108.45 29.8925 108.758 30.6465C109.078 31.2804 109.582 31.8037 110.202 32.1489V33.8501Z" fill="#0078D4"/>
<path d="M128.775 36.0219C128.421 34.3295 127.702 32.7349 126.667 31.3499V23.0839C126.667 22.9084 126.62 22.736 126.533 22.584C126.445 22.4319 126.319 22.3057 126.167 22.2179L124.401 21.1999V19.8889L123.267 19.2349V20.5429L115.334 15.9629V14.6539L114.201 13.9999V15.3089L112.684 14.4329C112.608 14.3891 112.521 14.366 112.434 14.366C112.346 14.366 112.26 14.3891 112.184 14.4329C112.108 14.4768 112.044 14.5399 112.001 14.616C111.957 14.692 111.934 14.7782 111.934 14.8659V29.1269C111.934 29.3025 111.98 29.4749 112.068 29.6269C112.155 29.7789 112.282 29.9052 112.434 29.9929L119.026 33.7999C119.594 35.8998 120.717 37.8083 122.276 39.3259C123.226 40.3083 124.468 40.9573 125.817 41.1759C126.378 41.248 126.947 41.1346 127.437 40.8529C127.928 40.5712 128.313 40.1368 128.534 39.6159C128.975 38.4697 129.059 37.2168 128.775 36.0219ZM116.184 29.2129L113.917 27.9049V25.2869L116.184 26.5999V29.2129ZM116.184 25.2869L113.917 23.9789V21.3609L116.184 22.6699V25.2869ZM119.584 28.9049C119.161 29.4296 118.894 30.0616 118.811 30.7299L117.317 29.8679V27.2499L119.584 28.5589V28.9049ZM119.584 27.2499L117.317 25.9419V23.3239L119.584 24.6329V27.2499ZM113.067 18.5799V15.9629L114.201 16.6169V17.9259L115.334 18.5799V17.2719L123.267 21.8519V23.1609L124.401 23.8149V22.5059L125.534 23.1609V25.7779L113.067 18.5799ZM122.984 26.5999V28.3199C122.363 28.0581 121.682 27.9743 121.017 28.0779L120.717 27.9049V25.2869L122.984 26.5999ZM127.584 38.7339C127.413 39.1467 127.111 39.4921 126.725 39.7173C126.339 39.9425 125.89 40.0351 125.447 39.9809C124.22 39.7519 123.112 39.1014 122.314 38.1419C121.334 37.0681 120.606 35.7899 120.182 34.3999C119.762 33.2183 119.765 31.9276 120.191 30.7479C120.361 30.335 120.663 29.9894 121.049 29.764C121.435 29.5386 121.884 29.4459 122.328 29.4999C123.554 29.7285 124.663 30.3787 125.461 31.3379C126.442 32.411 127.172 33.6889 127.598 35.0789C128.017 36.2603 128.014 37.5507 127.589 38.7299L127.584 38.7339Z" fill="#0078D4"/>
<path d="M125.817 36.9219C125.686 36.922 125.557 36.8875 125.443 36.8219L123.459 35.6769C123.345 35.6113 123.25 35.5168 123.184 35.4028C123.118 35.2889 123.084 35.1595 123.084 35.0279V31.7549C123.084 31.556 123.163 31.3653 123.304 31.2246C123.444 31.084 123.635 31.0049 123.834 31.0049C124.033 31.0049 124.224 31.084 124.364 31.2246C124.505 31.3653 124.584 31.556 124.584 31.7549V34.5929L126.193 35.5219C126.336 35.6044 126.448 35.732 126.512 35.8847C126.575 36.0374 126.586 36.2068 126.543 36.3665C126.5 36.5262 126.406 36.6672 126.274 36.7677C126.143 36.8681 125.982 36.9224 125.817 36.9219V36.9219Z" fill="#0078D4"/>
<rect x="52.707" y="108.654" width="34.8985" height="17.8847" transform="rotate(15 52.707 108.654)" fill="url(#paint3_radial)"/>
<path d="M88.5144 99.9035C87.5603 85.2235 83.8181 69.9738 83.8181 59.9062C83.809 55.2556 85.0976 50.6947 87.5388 46.7364L52.0554 26.25L49.479 27.7201C49.479 27.7201 49.2937 28.1884 49.0137 28.9883L83.9879 49.1821C81.5466 53.1404 80.2581 57.7013 80.2672 62.3519C80.2672 72.4195 84.0084 87.6692 84.9634 102.349C85.4625 110.176 85.2064 118.032 84.1986 125.809L84.9634 126.25L87.5388 124.78C88.74 116.545 89.067 108.207 88.5144 99.9035V99.9035Z" fill="url(#paint4_linear)"/>
<path d="M85.4395 101.406L85.4396 101.407C85.9735 109.43 85.6828 117.485 84.5724 125.447L50.0332 105.506C51.257 98.6608 51.6054 91.6867 51.0698 84.7522C50.6005 78.2374 49.4965 71.5045 48.4665 65.2233C48.4065 64.8574 48.3468 64.4931 48.2875 64.1304C47.2066 57.5257 46.2596 51.4936 46.2588 46.7497C46.4204 40.4998 47.597 34.3191 49.7413 28.4492L84.2717 48.3848C81.9539 52.3184 80.7333 56.8054 80.7422 61.3774C80.7423 66.4568 81.6853 72.8265 82.7383 79.7209C82.7844 80.0227 82.8307 80.3257 82.8772 80.6296C83.8949 87.2838 84.9849 94.4115 85.4395 101.406Z" fill="url(#paint5_linear)" stroke="#2195DC"/>
<path d="M71.8863 49.5557L58.3682 41.7514V39.6332L71.8863 47.4375L71.8863 49.5557Z" fill="#0078D4"/>
<path d="M69.3515 51.9946L60.9023 47.1169V45.1658L69.3515 50.0435V51.9946Z" fill="#0078D4"/>
<path d="M53.5254 57.3601L65.3529 64.1889V62.2378L53.5254 55.409V57.3601Z" fill="#0078D4"/>
<path d="M71.2676 67.6657L75.4917 70.1046V68.1535L71.2676 65.7146V67.6657Z" fill="#0078D4"/>
<path d="M53.5254 51.5068L65.3529 58.3356V56.3845L53.5254 49.5557V51.5068Z" fill="#0078D4"/>
<path d="M70.4219 61.2622L75.4908 64.1889V62.2378L70.4219 59.3111V61.2622Z" fill="#0078D4"/>
<path d="M54.5 63.2133L62.9482 68.091V66.1399L54.5 61.2622V63.2133Z" fill="#0078D4"/>
<path d="M55.9639 74.7306L64.4121 79.6083V77.6572L55.9639 72.7795V74.7306Z" fill="#0078D4"/>
<path d="M70.5527 72.5434L76.4665 75.9578V74.0067L70.5527 70.5923V72.5434Z" fill="#0078D4"/>
<path d="M55.4766 69.0032L65.6144 74.8564V72.9054L55.4766 67.0521V69.0032Z" fill="#0078D4"/>
<path d="M72.373 78.822L77.442 81.7487V79.7976L72.373 76.8709V78.822Z" fill="#0078D4"/>
<path d="M72.8613 84.486L77.9303 87.4126V85.4616L72.8613 82.5349V84.486Z" fill="#0078D4"/>
<path d="M64.54 107.113L75.1852 113.259V111.308L64.54 105.162V107.113Z" fill="#0078D4"/>
<path d="M70.5821 104.04V105.698C70.5821 106.061 70.3265 106.208 70.0124 106.027C69.8467 105.919 69.7088 105.773 69.6099 105.602C69.5109 105.43 69.4536 105.238 69.4427 105.041V103.468C68.3778 102.866 67.4142 102.101 66.5872 101.2C66.2931 100.879 66.1205 100.465 66.0995 100.029V99.9318C66.0995 99.2275 66.718 99.1231 67.2828 99.7143C67.9185 100.404 68.6448 101.003 69.4417 101.498V96.7437C68.3386 95.611 67.3876 94.3396 66.6126 92.9616C66.1981 92.1208 65.9781 91.1976 65.9688 90.2603C65.9688 88.0516 67.4935 87.2956 69.4407 88.1141V86.8459C69.4407 86.482 69.6963 86.3347 70.0104 86.5171C70.1761 86.625 70.3141 86.7705 70.413 86.9417C70.512 87.1129 70.5693 87.305 70.5801 87.5024V88.7267C71.3284 89.1672 72.0328 89.6784 72.6834 90.2534C73.0352 90.5846 73.2449 91.0391 73.2687 91.5216C73.2687 92.3509 72.661 92.3606 72.1488 91.8816C71.6695 91.4353 71.1466 91.0382 70.5879 90.6963V95.6248C71.6602 96.7514 72.593 98.0029 73.3663 99.3523C74.4579 101.475 74.3418 103.554 73.1809 104.195C72.7634 104.363 72.3135 104.437 71.864 104.41C71.4146 104.383 70.9767 104.257 70.5821 104.04V104.04ZM69.4427 94.3595V90.0944C69.2693 90.0113 69.0781 89.9722 68.886 89.9806C68.6939 89.9889 68.5068 90.0444 68.3413 90.1422C67.7686 90.5471 67.8447 91.786 68.2671 92.665C68.5897 93.2749 68.9843 93.8438 69.4427 94.3595V94.3595ZM70.5821 97.9788V102.095C71.6311 102.444 72.1556 102.116 72.1556 101.111C71.9938 99.9212 71.4401 98.819 70.5821 97.9788Z" fill="#0078D4"/>
<defs>
<radialGradient id="paint0_radial" cx="0" cy="0" r="1" gradientUnits="userSpaceOnUse" gradientTransform="translate(164.115 105.667) rotate(105) scale(5.03971 11.3405)">
<stop stop-opacity="0.15"/>
<stop offset="1" stop-opacity="0"/>
</radialGradient>
<radialGradient id="paint1_radial" cx="0" cy="0" r="1" gradientUnits="userSpaceOnUse" gradientTransform="translate(175.197 55.5929) rotate(105) scale(5.03971 11.3406)">
<stop stop-opacity="0.15"/>
<stop offset="1" stop-opacity="0"/>
</radialGradient>
<radialGradient id="paint2_radial" cx="0" cy="0" r="1" gradientUnits="userSpaceOnUse" gradientTransform="translate(118.152 40.4659) rotate(105) scale(5.03971 11.3406)">
<stop stop-opacity="0.15"/>
<stop offset="1" stop-opacity="0"/>
</radialGradient>
<radialGradient id="paint3_radial" cx="0" cy="0" r="1" gradientUnits="userSpaceOnUse" gradientTransform="translate(70.1563 117.597) rotate(90) scale(8.94233 17.4493)">
<stop stop-opacity="0.15"/>
<stop offset="1" stop-opacity="0"/>
</radialGradient>
<linearGradient id="paint4_linear" x1="68.8942" y1="29.2958" x2="68.8942" y2="124.485" gradientUnits="userSpaceOnUse">
<stop offset="0.208333" stop-color="#6EDDFF"/>
<stop offset="0.369792" stop-color="#32B0E7"/>
<stop offset="0.885417" stop-color="#32B0E7"/>
<stop offset="1" stop-color="#156AB3"/>
</linearGradient>
<linearGradient id="paint5_linear" x1="76.9762" y1="44.5414" x2="55.2703" y2="109.415" gradientUnits="userSpaceOnUse">
<stop stop-color="white"/>
<stop offset="0.583333" stop-color="white"/>
<stop offset="1" stop-color="#B1F4FF"/>
</linearGradient>
</defs>
</svg>
