<svg width="260" height="153" viewBox="0 0 260 153" fill="none"
    xmlns="http://www.w3.org/2000/svg">
    <path d="M0 8C0 3.58172 3.58172 0 8 0H252C256.418 0 260 3.58172 260 8V153H0V8Z" fill="#F2F2F2"/>
    <path d="M199.75 73.9972L199.735 79.2195C199.718 85.0842 195.846 90.94 188.112 95.4146C172.552 104.417 147.228 104.417 131.558 95.4101C123.671 90.8771 119.733 84.9265 119.75 78.9858L119.765 73.7635C119.748 79.7043 123.686 85.6547 131.573 90.1878C147.243 99.1947 172.567 99.1946 188.127 90.1923C195.861 85.7177 199.733 79.8619 199.75 73.9972Z" fill="#C8C8C8"/>
    <path d="M187.941 58.7826C203.613 67.8414 203.696 82.5296 188.125 91.5886C172.562 100.643 147.233 100.643 131.56 91.5841C115.887 82.5252 115.804 67.8371 131.367 58.783C146.938 49.7238 172.268 49.7237 187.941 58.7826Z" fill="white"/>
    <path d="M135.756 69.0251L164.685 76.7768L161.332 89.2915L132.403 81.5398L135.756 69.0251Z" fill="url(#paint0_radial)"/>
    <path d="M158.758 71.125L189.033 79.2372L185.68 91.7519L155.405 83.6396L158.758 71.125Z" fill="url(#paint1_radial)" fill-opacity="0.8"/>
    <path d="M170.593 23.9585C180.348 29.5915 188.228 43.2415 188.193 54.4515C188.158 65.6615 180.233 70.1885 170.476 64.5555C160.719 58.9225 152.836 45.2645 152.867 34.0555C152.898 22.8465 160.838 18.3265 170.593 23.9585Z" fill="url(#paint2_linear)"/>
    <path d="M162.897 33.5834C163.411 33.9168 163.838 34.3668 164.145 34.8969C164.451 35.427 164.628 36.022 164.661 36.6334C164.661 37.7534 163.861 38.2024 162.885 37.6394C162.373 37.3058 161.947 36.856 161.641 36.3265C161.336 35.797 161.159 35.2029 161.127 34.5924C161.13 33.4684 161.922 33.0164 162.897 33.5834Z" fill="#1D4A79"/>
    <path d="M178.204 42.4185C178.717 42.7518 179.145 43.2019 179.451 43.7319C179.758 44.262 179.935 44.857 179.968 45.4685C179.968 46.5885 179.168 47.0365 178.193 46.4745C177.68 46.1412 177.253 45.6914 176.948 45.1619C176.642 44.6323 176.466 44.038 176.434 43.4275C176.437 42.3075 177.229 41.8555 178.204 42.4185Z" fill="#1D4A79"/>
    <path d="M170.883 50.8595C174.231 52.9425 176.988 55.8513 178.889 59.3065C179.343 60.0935 179.341 60.9515 178.883 61.2185C178.748 61.2767 178.6 61.2994 178.453 61.2845C178.306 61.2694 178.165 61.2163 178.045 61.1305C177.699 60.9127 177.413 60.6115 177.214 60.2545C175.71 57.5174 173.527 55.213 170.876 53.5625C168.476 52.1835 166.22 51.9545 164.519 52.9235C164.385 52.9839 164.238 53.008 164.091 52.9935C163.945 52.9789 163.805 52.9261 163.686 52.8405C163.338 52.6243 163.052 52.3223 162.855 51.9635C162.395 51.1635 162.398 50.3085 162.86 50.0515C165.008 48.8275 167.858 49.1125 170.883 50.8595Z" fill="#1D4A79"/>
    <path d="M167.838 20.5194C166.297 20.1404 164.694 20.0815 163.129 20.3464C161.139 20.7214 160.011 21.5704 158.021 22.7274C160.315 21.5019 162.99 21.1999 165.498 21.8834C177.041 24.5594 188.234 41.0714 188.198 54.4554C188.182 60.0264 186.216 63.9464 183.044 65.7894L185.384 64.4304C188.555 62.5864 190.522 58.6664 190.537 53.0954C190.576 39.6474 179.306 23.1764 167.838 20.5194Z" fill="url(#paint3_linear)"/>
    <path opacity="0.15" d="M170.854 64.7613C170.729 64.6923 170.604 64.6283 170.479 64.5553C161.579 59.4193 154.263 47.6113 153.062 37.0693C161.814 42.7043 169.083 54.1473 170.854 64.7613Z" fill="black"/>
    <path d="M143.493 31.9325C153.248 37.5645 161.133 51.2175 161.101 62.4275C161.069 73.6375 153.133 78.1555 143.375 72.5225C133.617 66.8895 125.743 53.2405 125.775 42.0305C125.807 30.8205 133.738 26.2995 143.493 31.9325Z" fill="url(#paint4_linear)"/>
    <path d="M135.802 41.5504C136.316 41.8838 136.743 42.3343 137.048 42.8649C137.354 43.3954 137.529 43.9909 137.56 44.6024C137.56 45.7224 136.765 46.1744 135.79 45.6114C135.277 45.2783 134.851 44.8286 134.545 44.299C134.239 43.7695 134.063 43.1751 134.031 42.5644C134.035 41.4384 134.827 40.9834 135.802 41.5504Z" fill="#1D4A79"/>
    <path d="M151.111 50.3884C151.624 50.7223 152.051 51.173 152.357 51.7037C152.663 52.2343 152.839 52.8298 152.87 53.4414C152.87 54.5614 152.07 55.0134 151.1 54.4504C150.586 54.1171 150.159 53.667 149.852 53.137C149.546 52.6069 149.369 52.0119 149.336 51.4004C149.339 50.2744 150.136 49.8254 151.111 50.3884Z" fill="#1D4A79"/>
    <path d="M150.894 62.9735C151.241 63.1897 151.527 63.4917 151.725 63.8505C152.185 64.6405 152.182 65.4995 151.72 65.7625C149.593 66.9745 146.771 66.6925 143.772 64.9625C140.455 62.898 137.724 60.0167 135.84 56.5945C135.385 55.8015 135.388 54.9425 135.845 54.6825C135.979 54.6226 136.127 54.5985 136.274 54.6125C136.42 54.6273 136.561 54.6808 136.681 54.7675C137.029 54.9841 137.316 55.2868 137.514 55.6465C139.001 58.3479 141.157 60.6221 143.776 62.2515C146.145 63.6195 148.376 63.8515 150.059 62.8905C150.192 62.8301 150.339 62.806 150.486 62.8205C150.633 62.8341 150.774 62.8869 150.894 62.9735Z" fill="#1D4A79"/>
    <path d="M163.358 58.9715C162.824 52.2715 159.726 45.1715 155.628 39.6475C151.2 33.6765 143.247 26.9575 136.035 28.3195C134.151 28.6755 133.226 29.3645 130.928 30.7005C134.805 28.4475 139.597 29.6835 143.495 31.9325C151.695 36.6645 159.102 47.6135 160.763 58.1925C161.657 63.8925 160.953 70.8475 155.952 73.7545L158.291 72.3945C162.706 69.8295 163.768 64.0835 163.358 58.9715Z" fill="url(#paint5_linear)"/>
    <rect x="78.3125" y="109.5" width="47.711" height="24.6427" transform="rotate(15 78.3125 109.5)" fill="url(#paint6_radial)"/>
    <path d="M75.5 103.954V35.2832L108.943 54.5499L122.38 76.9893V131.132L75.5 103.954Z" fill="url(#paint7_linear)" stroke="#ACACAC" stroke-linecap="round" stroke-linejoin="round"/>
    <path d="M75 34.4242L79.1998 32L113.379 51.7606L109.297 54.1848L75 34.4242Z" fill="#CCCCCC"/>
    <path d="M109.307 54.1816L113.397 51.7573L127.091 74.424L122.891 76.8482L109.307 54.1816Z" fill="#BABABA"/>
    <path d="M122.883 76.8486L127.083 74.4243V129.493L122.883 132V76.8486Z" fill="url(#paint8_linear)"/>
    <path d="M109.307 54.1816L122.882 76.8574L109.307 68.918V54.1816Z" fill="#D8D8D8"/>
    <path d="M91.7907 94.2333L79.873 87.353V78.1787L91.7907 85.059V94.2333Z" fill="#FFC483" stroke="#D15900" stroke-miterlimit="10"/>
    <path d="M118.008 98.362L103.707 90.1059V80.9302L118.008 89.1878V98.362Z" fill="#FFC483" stroke="#D15900" stroke-miterlimit="10"/>
    <path d="M100.052 76.9861L88.9297 70.5634V61.3892L100.052 67.8119V76.9861Z" fill="#AAE2A6" stroke="#1B9117" stroke-miterlimit="10"/>
    <path d="M109.466 115.45L95.9609 107.651V98.4771L109.466 106.276V115.45Z" fill="#C3ADF7" stroke="#341A6E" stroke-miterlimit="10"/>
    <path d="M115.624 82.3075L102.912 74.9681V73.1333L115.624 80.4727V82.3075Z" fill="#949494"/>
    <path d="M97.6683 71.9411L91.3125 68.2714V66.4365L97.6683 70.1062V71.9411Z" fill="#1B9117"/>
    <path d="M86.0724 65.2439L82.2559 63.0409V61.2061L86.0724 63.4091V65.2439Z" fill="#949494"/>
    <path d="M94.1735 80.9305L82.2559 74.0502V72.2153L94.1735 79.0956V80.9305Z" fill="#949494"/>
    <path d="M100.53 84.5999L97.3516 82.765V80.9302L100.53 82.765V84.5999Z" fill="#949494"/>
    <path d="M115.624 93.3164L106.09 87.8119V85.9771L115.624 91.4816V93.3164Z" fill="#D15900"/>
    <path d="M89.4056 89.1878L82.2559 85.059V83.2241L89.4056 87.3529V89.1878Z" fill="#D15900"/>
    <path d="M115.625 104.326L94.9688 92.3983V90.5635L115.625 102.491V104.326Z" fill="#949494"/>
    <path d="M112.447 111.665L115.624 113.5V115.335L112.447 113.5V111.665Z" fill="#949494"/>
    <path d="M98.9414 103.867L106.887 108.455V110.289L98.9414 105.702V103.867Z" fill="#341A6E"/>
    <path d="M82.2559 94.2334L93.3781 100.656V102.491L82.2559 96.0682V94.2334Z" fill="#949494"/>
    <defs>
        <radialGradient id="paint0_radial" cx="0" cy="0" r="1" gradientUnits="userSpaceOnUse" gradientTransform="translate(148.929 80.4465) rotate(105) scale(6.47805 14.9751)">
            <stop stop-opacity="0.15"/>
            <stop offset="1" stop-opacity="0"/>
        </radialGradient>
        <radialGradient id="paint1_radial" cx="0" cy="0" r="1" gradientUnits="userSpaceOnUse" gradientTransform="translate(170.619 82.1974) rotate(105) scale(6.47805 15.6716)">
            <stop stop-opacity="0.15"/>
            <stop offset="1" stop-opacity="0"/>
        </radialGradient>
        <linearGradient id="paint2_linear" x1="160.388" y1="24.8185" x2="179.977" y2="62.3454" gradientUnits="userSpaceOnUse">
            <stop stop-color="#32B0E7"/>
            <stop offset="1" stop-color="#2195DC"/>
        </linearGradient>
        <linearGradient id="paint3_linear" x1="174.278" y1="20.1834" x2="174.278" y2="65.7854" gradientUnits="userSpaceOnUse">
            <stop stop-color="#45CAF2"/>
            <stop offset="0.911" stop-color="#2195DC"/>
            <stop offset="1" stop-color="#156AB3"/>
        </linearGradient>
        <linearGradient id="paint4_linear" x1="131.292" y1="32.5455" x2="155.211" y2="71.3095" gradientUnits="userSpaceOnUse">
            <stop stop-color="#7BDDEF"/>
            <stop offset="1" stop-color="#28C2D1"/>
        </linearGradient>
        <linearGradient id="paint5_linear" x1="147.184" y1="31.6545" x2="147.184" y2="73.7545" gradientUnits="userSpaceOnUse">
            <stop offset="0.328" stop-color="#84ECFD"/>
            <stop offset="0.651" stop-color="#28C2D1"/>
            <stop offset="0.938" stop-color="#18A7B5"/>
        </linearGradient>
        <radialGradient id="paint6_radial" cx="0" cy="0" r="1" gradientUnits="userSpaceOnUse" gradientTransform="translate(102.168 121.821) rotate(90) scale(12.3214 23.8555)">
            <stop stop-opacity="0.15"/>
            <stop offset="1" stop-opacity="0"/>
        </radialGradient>
        <linearGradient id="paint7_linear" x1="67.4034" y1="53.7074" x2="127.203" y2="115.255" gradientUnits="userSpaceOnUse">
            <stop offset="0.375" stop-color="#FEFEFE"/>
            <stop offset="1" stop-color="#D5D5D5"/>
        </linearGradient>
        <linearGradient id="paint8_linear" x1="124.983" y1="132" x2="124.983" y2="74.4319" gradientUnits="userSpaceOnUse">
            <stop stop-color="#797775"/>
            <stop offset="0.157" stop-color="#868482"/>
            <stop offset="1" stop-color="#AFACA9"/>
        </linearGradient>
    </defs>
</svg>
