<svg width="260" height="153" viewBox="0 0 260 153" fill="none" xmlns="http://www.w3.org/2000/svg">
<path d="M0 8C0 3.58172 3.58172 0 8 0H252C256.418 0 260 3.58172 260 8V153H0V8Z" fill="#F2F2F2"/>
<path d="M192.802 64.9591L192.789 69.7898C192.775 75.2146 189.387 80.6313 182.62 84.7702C169.005 93.0973 146.846 93.0974 133.135 84.7661C126.234 80.5731 122.788 75.0688 122.803 69.5736L122.816 64.743C122.801 70.2382 126.247 75.7423 133.148 79.9355C146.859 88.2668 169.018 88.2667 182.633 79.9396C189.4 75.8006 192.788 70.384 192.802 64.9591Z" fill="#C8C8C8"/>
<path d="M182.47 50.8856C196.183 59.265 196.256 72.8515 182.631 81.2312C169.013 89.6063 146.85 89.6064 133.136 81.227C119.423 72.8475 119.35 59.261 132.968 50.886C146.593 42.5062 168.756 42.5061 182.47 50.8856Z" fill="white"/>
<path d="M141.021 57.3379L174.095 66.1999L170.157 80.8975L137.083 72.0356L141.021 57.3379Z" fill="url(#paint0_radial_69750_29205)"/>
<path d="M180.895 65.5802C178.844 64.4885 177.818 65.5635 177.818 68.8052V76.0275C177.818 80.9383 175.806 82.1982 171.783 79.8073V76.7743C172.928 77.4404 173.74 77.5348 174.219 77.0576C174.699 76.5804 174.939 75.459 174.939 73.6933V66.7358C174.939 63.3492 175.919 61.8926 177.877 62.3661V62.2698C176.882 61.2293 176.106 59.9785 175.6 58.5992C175.094 57.2199 174.869 55.7431 174.939 54.2654V47.2117C174.939 44.098 173.887 41.8668 171.783 40.5181V37.4368C173.68 38.5308 175.25 40.163 176.316 42.1494C177.382 44.1358 177.902 46.3976 177.818 48.6798V55.7099C177.818 59.0157 178.844 61.3749 180.895 62.7875V65.5802Z" fill="#0078D4"/>
<path d="M139.504 60.4746C137.612 59.3953 136.043 57.7787 134.973 55.8071C133.903 53.8355 133.375 51.5872 133.449 49.3156V42.0933C133.449 38.851 132.424 36.5241 130.373 35.1125V32.3195C132.424 33.411 133.449 32.3033 133.449 28.9965V21.9668C133.449 16.9914 135.467 15.7036 139.504 18.1035V21.1849C137.413 19.9731 136.368 20.9239 136.368 24.0374V31.0916C136.368 34.4619 135.382 35.9304 133.41 35.4971V35.5934C134.414 36.6202 135.197 37.863 135.708 39.2378C136.218 40.6126 136.443 42.0873 136.367 43.562V50.5195C136.309 51.9704 136.548 53.4176 137.067 54.7621C137.608 55.8924 138.457 56.8255 139.504 57.4412V60.4746Z" fill="#0078D4"/>
<path d="M170.618 66.2535L141 48.1417V29.6067L170.618 47.7184L170.618 66.2535Z" fill="#0078D4"/>
<path d="M165.324 52.255L145.783 40.3286V37.1486L165.324 49.0746V52.255Z" fill="#F8F8F8"/>
<path d="M160.239 55.5769L145.783 46.7197V43.5397L160.239 52.3968V55.5769Z" fill="#F8F8F8"/>
<rect x="80.7188" y="106.96" width="47.7109" height="24.6427" transform="rotate(15 80.7188 106.96)" fill="url(#paint1_radial_69750_29205)"/>
<path d="M77.0332 101.954V33.2832L110.477 52.5499L123.915 74.9893V129.132L77.0332 101.954Z" fill="url(#paint2_linear_69750_29205)" stroke="#ACACAC" stroke-linecap="round" stroke-linejoin="round"/>
<path d="M76.5312 32.4242L80.7313 30L114.912 49.7606L110.83 52.1848L76.5312 32.4242Z" fill="#CCCCCC"/>
<path d="M110.838 52.1821L114.929 49.7578L128.623 72.4245L124.423 74.8487L110.838 52.1821Z" fill="#BABABA"/>
<path d="M124.416 74.8486L128.616 72.4243V127.492L124.416 130V74.8486Z" fill="url(#paint3_linear_69750_29205)"/>
<path d="M110.838 52.1816L124.414 74.8574L110.838 66.918V52.1816Z" fill="#D8D8D8"/>
<path d="M119.224 85.1695L81.0879 63.1513V53.9771L119.224 75.9952V85.1695Z" fill="#AAE2A6" stroke="#1B9117" stroke-miterlimit="10"/>
<path d="M119.224 99.9801L81.0879 77.9619V97.8816L102.539 110.266V99.9119L119.224 109.545V99.9801Z" fill="#AAE2A6" stroke="#1B9117" stroke-miterlimit="10"/>
<path d="M116.842 80.1241L103.336 72.3256V70.4907L116.842 78.2892V80.1241Z" fill="#1B9117"/>
<path d="M99.6798 70.2152L91.7344 65.6288V63.7939L99.6798 68.3803V70.2152Z" fill="#1B9117"/>
<path d="M88.0828 63.5199L83.4707 60.8578V59.0229L88.0828 61.6851V63.5199Z" fill="#1B9117"/>
<path d="M91.4162 77.6771L83.4707 73.0892V71.2544L91.4162 75.8423V77.6771Z" fill="#949494"/>
<path d="M116.842 92.3559L95.3906 79.9711V78.1362L116.842 90.5211V92.3559Z" fill="#949494"/>
<path d="M104.605 104.251L116.84 111.317V113.151L104.605 106.086V104.251Z" fill="#949494"/>
<path d="M83.4707 92.0498L99.3616 101.224V103.059L83.4707 93.8847V92.0498Z" fill="#1B9117"/>
<path d="M112.074 100.001L116.841 102.753V104.588L112.074 101.836V100.001Z" fill="#1B9117"/>
<path d="M99.3633 92.6621L108.103 97.7076V99.5424L99.3633 94.497V92.6621Z" fill="#1B9117"/>
<path d="M83.4707 83.4878L95.3889 90.3681V92.2029L83.4707 85.3226V83.4878Z" fill="#1B9117"/>
<defs>
<radialGradient id="paint0_radial_69750_29205" cx="0" cy="0" r="1" gradientUnits="userSpaceOnUse" gradientTransform="translate(155.589 69.1177) rotate(105) scale(7.60808 17.12)">
<stop stop-opacity="0.15"/>
<stop offset="1" stop-opacity="0"/>
</radialGradient>
<radialGradient id="paint1_radial_69750_29205" cx="0" cy="0" r="1" gradientUnits="userSpaceOnUse" gradientTransform="translate(104.574 119.282) rotate(90) scale(12.3213 23.8554)">
<stop stop-opacity="0.15"/>
<stop offset="1" stop-opacity="0"/>
</radialGradient>
<linearGradient id="paint2_linear_69750_29205" x1="68.9362" y1="51.7074" x2="128.736" y2="113.257" gradientUnits="userSpaceOnUse">
<stop offset="0.375" stop-color="#FEFEFE"/>
<stop offset="1" stop-color="#D5D5D5"/>
</linearGradient>
<linearGradient id="paint3_linear_69750_29205" x1="126.516" y1="130" x2="126.516" y2="72.4319" gradientUnits="userSpaceOnUse">
<stop stop-color="#797775"/>
<stop offset="0.157" stop-color="#868482"/>
<stop offset="1" stop-color="#AFACA9"/>
</linearGradient>
</defs>
</svg>
