<svg width="242" height="138" viewBox="0 0 242 138" fill="none" xmlns="http://www.w3.org/2000/svg">
<g id="W-2-form" clip-path="url(#clip0_113018_314043)">
<g id="W-2 Form">
<g id="lines">
<path id="Vector 34" d="M116.203 41.8809L76.6934 103.143" stroke="#B3B0AD" stroke-width="2" stroke-linecap="round"/>
<path id="Line 6" d="M76.6943 103.086L164.104 54.1115" stroke="#B3B0AD" stroke-width="2" stroke-linecap="round"/>
<line id="Line 23" x1="76.7278" y1="103.356" x2="173.277" y2="103.356" stroke="#B3B0AD" stroke-width="2" stroke-linecap="round"/>
</g>
<g id="Money">
<g id="base disc">
<path id="Vector" d="M141.663 41.4653L141.654 44.4882C141.644 47.883 139.402 51.2726 134.922 53.8627C125.909 59.0736 111.24 59.0736 102.164 53.8601C97.5956 51.2362 95.3144 47.7917 95.3243 44.353L95.3328 41.3301C95.3231 44.7688 97.6043 48.2132 102.172 50.8372C111.249 56.0508 125.918 56.0507 134.931 50.8398C139.411 48.2497 141.653 44.8601 141.663 41.4653Z" fill="#C8C8C8"/>
<path id="Vector_2" d="M134.823 32.6593C143.901 37.9029 143.949 46.4051 134.929 51.6489C125.915 56.8899 111.243 56.8899 102.165 51.6463C93.0867 46.4026 93.0388 37.9004 102.053 32.6595C111.073 27.4157 125.744 27.4156 134.823 32.6593Z" fill="white"/>
</g>
<path id="shadow in rectangle" d="M107.993 36.4414L128.42 41.911L125.987 50.9824L105.561 45.5128L107.993 36.4414Z" fill="url(#paint0_radial_113018_314043)"/>
<g id="Layer 1">
<path id="Vector_3" d="M132.457 39.2854C131.323 38.715 130.756 39.2767 130.756 40.9705V44.7442C130.756 47.3102 129.644 47.9685 127.42 46.7193V45.1345C128.052 45.4825 128.501 45.5318 128.767 45.2825C129.032 45.0331 129.164 44.4472 129.165 43.5246V39.8892C129.165 38.1197 129.706 37.3586 130.788 37.606V37.5557C130.238 37.012 129.81 36.3584 129.53 35.6377C129.25 34.917 129.125 34.1454 129.165 33.3733V29.6876C129.165 28.0607 128.583 26.8948 127.42 26.1901V24.5801C128.468 25.1517 129.336 26.0045 129.925 27.0425C130.515 28.0804 130.802 29.2622 130.756 30.4547V34.128C130.756 35.8554 131.323 37.0881 132.457 37.8262V39.2854Z" fill="#0078D4"/>
<path id="Vector_4" d="M109.579 36.6168C108.533 36.0528 107.665 35.2081 107.074 34.1779C106.482 33.1477 106.191 31.973 106.231 30.786V27.0123C106.231 25.3181 105.665 24.1023 104.531 23.3647V21.9054C105.665 22.4757 106.231 21.8969 106.231 20.169V16.4959C106.231 13.8962 107.347 13.2233 109.578 14.4773V16.0874C108.423 15.4542 107.845 15.951 107.845 17.5778V21.2638C107.845 23.0248 107.3 23.7921 106.21 23.5657V23.616C106.765 24.1525 107.198 24.8019 107.48 25.5202C107.762 26.2386 107.886 27.0091 107.845 27.7797V31.4151C107.813 32.1732 107.944 32.9294 108.232 33.6319C108.531 34.2225 109 34.7101 109.579 35.0318V36.6168Z" fill="#0078D4"/>
</g>
<path id="Vector_5" d="M119.295 38.2343V39.9673C119.295 40.3458 119.029 40.4987 118.704 40.3103C118.532 40.1976 118.388 40.0458 118.285 39.8673C118.181 39.6887 118.122 39.4883 118.111 39.2824V37.638C117 37.0116 115.995 36.2146 115.132 35.2762C114.825 34.9408 114.646 34.5092 114.625 34.0558V33.9578C114.625 33.2238 115.269 33.1152 115.858 33.7316C116.521 34.4501 117.279 35.0752 118.111 35.5897V30.63C116.96 29.4497 115.968 28.1246 115.16 26.6883C114.727 25.8115 114.497 24.8485 114.486 23.8707C114.486 21.5679 116.076 20.7809 118.108 21.6364V20.3162C118.108 19.9377 118.373 19.7848 118.701 19.9732C118.874 20.0862 119.017 20.2381 119.12 20.4167C119.222 20.5953 119.281 20.7955 119.292 21.0011V22.2771C120.072 22.7346 120.806 23.2661 121.484 23.8642C121.851 24.2098 122.069 24.6845 122.093 25.1879C122.093 26.0523 121.459 26.0618 120.925 25.5629C120.424 25.0975 119.878 24.6837 119.295 24.3277V29.4645C120.417 30.6377 121.393 31.9415 122.202 33.3478C123.34 35.5602 123.215 37.7271 122.009 38.3955C121.359 38.7557 120.454 38.702 119.295 38.2343ZM118.108 28.1443V23.6977C117.926 23.6117 117.727 23.5714 117.527 23.5801C117.326 23.5889 117.131 23.6464 116.958 23.7479C116.361 24.1706 116.441 25.4601 116.881 26.3777C117.217 27.0138 117.629 27.6069 118.108 28.1443V28.1443ZM119.295 31.916V36.2062C120.389 36.5699 120.937 36.228 120.937 35.1806C120.937 34.3044 120.39 33.2162 119.295 31.916Z" fill="#0078D4"/>
</g>
<g id="Person">
<g id="base disc_2">
<path id="Vector_6" d="M195 53.6746L194.99 56.9234C194.98 60.5719 192.57 64.2148 187.755 66.9984C178.069 72.5987 162.304 72.5988 152.549 66.9956C147.639 64.1757 145.188 60.4738 145.198 56.7781L145.208 53.5293C145.197 57.225 147.649 60.9268 152.558 63.7469C162.313 69.35 178.078 69.35 187.764 63.7496C192.579 60.966 194.989 57.3231 195 53.6746Z" fill="#C8C8C8"/>
<path id="Vector_7" d="M187.648 44.211C197.405 49.8465 197.456 58.984 187.763 64.6196C178.075 70.2523 162.307 70.2524 152.55 64.6168C142.793 58.9813 142.742 49.8438 152.43 44.2112C162.124 38.5755 177.892 38.5754 187.648 44.211Z" fill="white"/>
</g>
<path id="shadow in rectangle_2" d="M158.813 48.2793L180.767 54.1576L178.152 63.907L156.199 58.0286L158.813 48.2793Z" fill="url(#paint1_radial_113018_314043)"/>
<g id="brackets">
<path id="Vector_8" d="M185.104 52.3355C183.886 51.7224 183.277 52.3261 183.276 54.1465V58.2022C183.276 60.96 182.081 61.6675 179.691 60.3249V58.6216C180.371 58.9957 180.854 59.0487 181.139 58.7807C181.424 58.5127 181.566 57.883 181.566 56.8915V52.9844C181.566 51.0826 182.148 50.2647 183.312 50.5306V50.4765C182.721 49.8922 182.26 49.1898 181.959 48.4152C181.658 47.6406 181.524 46.8113 181.566 45.9816V42.0205C181.566 40.2719 180.941 39.019 179.691 38.2616V36.5312C180.818 37.1456 181.751 38.0622 182.384 39.1777C183.017 40.2932 183.326 41.5633 183.276 42.8449V46.7927C183.276 48.6491 183.886 49.974 185.104 50.7672V52.3355Z" fill="#0078D4"/>
<path id="Vector_9" d="M160.517 49.4693C159.393 48.8632 158.461 47.9554 157.825 46.8482C157.19 45.741 156.876 44.4785 156.92 43.2028V39.1471C156.92 37.3263 156.311 36.0196 155.093 35.227V33.6585C156.311 34.2715 156.92 33.6494 156.92 31.7925V27.8449C156.92 25.0508 158.119 24.3277 160.517 25.6754V27.4058C159.275 26.7253 158.654 27.2592 158.654 29.0076V32.969C158.654 34.8616 158.068 35.6862 156.897 35.4429V35.497C157.493 36.0736 157.959 36.7715 158.262 37.5435C158.565 38.3156 158.699 39.1437 158.654 39.9719V43.8789C158.619 44.6937 158.761 45.5063 159.07 46.2614C159.391 46.8961 159.895 47.4201 160.517 47.7658V49.4693Z" fill="#0078D4"/>
</g>
<g id="person">
<path id="Vector_10" d="M169.96 42.1219C172.521 43.5555 175.083 46.3202 176.927 49.9041C177.408 50.7879 177.688 51.7669 177.747 52.7713C177.747 54 176.825 54.5121 175.698 53.8976L169.857 50.5185L164.017 47.1392C163.43 46.7807 162.937 46.2867 162.58 45.6988C162.224 45.1108 162.014 44.446 161.967 43.7601C161.951 43.3954 162.016 43.0316 162.158 42.6952C162.3 42.3587 162.515 42.0579 162.787 41.8146C164.836 40.3812 167.398 40.6883 169.96 42.1219Z" fill="#0078D4"/>
<path id="Vector_11" d="M169.96 42.7361C172.419 44.1697 174.468 43.0435 174.468 40.0738C174.468 37.2066 172.419 33.7251 169.96 32.1892C167.501 30.7556 165.451 31.8818 165.451 34.8515C165.451 37.8212 167.398 41.3026 169.96 42.7361Z" fill="#0078D4"/>
</g>
</g>
<g id="Gov Building">
<g id="base disc_3">
<path id="Vector_12" d="M185.06 99.3836L185.051 102.632C185.04 106.281 182.63 109.924 177.816 112.707C168.129 118.308 152.364 118.308 142.609 112.705C137.7 109.885 135.248 106.183 135.259 102.487L135.268 99.2383C135.258 102.934 137.709 106.636 142.619 109.456C152.373 115.059 168.139 115.059 177.825 109.459C182.64 106.675 185.05 103.032 185.06 99.3836Z" fill="#C8C8C8"/>
<path id="Vector_13" d="M177.709 89.92C187.466 95.5555 187.517 104.693 177.824 110.329C168.135 115.961 152.367 115.961 142.611 110.326C132.854 104.69 132.803 95.5528 142.491 89.9202C152.184 84.2845 167.952 84.2844 177.709 89.92Z" fill="white"/>
</g>
<path id="shadow in rectangle_3" d="M149.394 97.1992L171.347 103.078L168.733 112.827L146.779 106.949L149.394 97.1992Z" fill="url(#paint2_radial_113018_314043)"/>
<path id="Vector_14" d="M167.243 94.9093L165.918 94.1449L165.918 101.789L167.243 102.554L167.243 104.082L150.02 94.1449L150.02 92.6161L151.344 93.3805L151.344 85.7363L150.02 84.9719L150.02 83.4431L151.344 84.2075L151.344 83.4431C151.344 82.7185 151.42 82.0616 151.572 81.4723C151.724 80.8831 151.941 80.3715 152.224 79.9375C152.507 79.5036 152.849 79.1512 153.249 78.8805C153.649 78.6098 154.094 78.4246 154.584 78.3251C155.074 78.2256 155.602 78.2196 156.168 78.3072C156.734 78.3948 157.334 78.5898 157.969 78.8924L157.969 74.2701L161.944 76.5633L161.944 79.621L159.294 78.0922L159.294 79.6568C159.915 80.0789 160.512 80.5745 161.085 81.1439C161.657 81.7132 162.189 82.3263 162.679 82.9832C163.168 83.6402 163.614 84.3389 164.014 85.0794C164.414 85.82 164.752 86.5684 165.028 87.3249C165.304 88.0814 165.522 88.8438 165.68 89.6122C165.839 90.3806 165.918 91.1271 165.918 91.8517L165.918 92.6161L167.243 93.3805L167.243 94.9093ZM153.994 94.9093L153.994 87.2652L152.669 86.5008L152.669 94.1449L153.994 94.9093ZM156.644 96.4382L156.644 88.794L155.319 88.0296L155.319 95.6738L156.644 96.4382ZM159.294 97.967L159.294 90.3228L157.969 89.5584L157.969 97.2026L159.294 97.967ZM161.944 99.4958L161.944 91.8517L160.619 91.0873L160.619 98.7314L161.944 99.4958ZM164.593 101.025L164.593 93.3805L163.269 92.6161L163.269 100.26L164.593 101.025ZM164.593 91.8517L164.593 91.0873C164.593 90.1397 164.438 89.1583 164.128 88.1431C163.817 87.1278 163.389 86.1524 162.844 85.2168C162.299 84.2812 161.668 83.4272 160.95 82.6548C160.232 81.8824 159.459 81.2534 158.631 80.7676C157.81 80.2939 157.037 80.0271 156.313 79.9674C155.588 79.9077 154.957 80.0371 154.419 80.3556C153.88 80.6741 153.456 81.1578 153.145 81.8068C152.835 82.4557 152.676 83.256 152.669 84.2075L152.669 84.9719L164.593 91.8517Z" fill="#0078D4"/>
<g id="Layer 1_2">
<path id="Vector_15" d="M173.28 100.179C172.024 99.5471 171.396 100.169 171.396 102.045V106.224C171.396 109.065 170.165 109.794 167.702 108.411V106.656C168.403 107.041 168.9 107.096 169.193 106.82C169.487 106.544 169.634 105.895 169.634 104.873V100.847C169.634 98.8879 170.234 98.0451 171.432 98.3191V98.2633C170.823 97.6613 170.348 96.9376 170.038 96.1395C169.729 95.3413 169.591 94.4869 169.634 93.6319V89.5505C169.634 87.7488 168.99 86.4578 167.702 85.6775V83.8945C168.863 84.5275 169.824 85.4719 170.477 86.6213C171.129 87.7707 171.448 89.0794 171.396 90.3999V94.4677C171.396 96.3805 172.024 97.7455 173.28 98.5629V100.179Z" fill="#0078D4"/>
<path id="Vector_16" d="M147.948 97.2256C146.789 96.6011 145.829 95.6657 145.174 94.5249C144.519 93.3841 144.196 92.0832 144.241 90.7688V86.5899C144.241 84.7139 143.613 83.3675 142.358 82.5507V80.9347C143.614 81.5662 144.241 80.9253 144.241 79.0119V74.9444C144.241 72.0655 145.476 71.3204 147.947 72.709V74.492C146.668 73.7908 146.028 74.341 146.028 76.1424V80.2242C146.028 82.1743 145.424 83.0239 144.217 82.7733V82.829C144.832 83.4231 145.311 84.1422 145.624 84.9376C145.936 85.7332 146.074 86.5864 146.028 87.4398V91.4654C145.992 92.305 146.138 93.1423 146.456 93.9203C146.787 94.5743 147.307 95.1142 147.948 95.4704V97.2256Z" fill="#0078D4"/>
</g>
</g>
<g id="Doc w/ w-2">
<rect id="shadow in rectangle_4" width="44.4826" height="22.9616" transform="matrix(0.96588 0.246036 -0.258961 0.969272 56.0303 101.215)" fill="url(#paint3_radial_113018_314043)"/>
<path id="Vector_17" d="M48.501 99.0463V30.2832L82.0115 49.1368L95.4748 71.4307V125.648L48.501 99.0463Z" fill="url(#paint4_linear_113018_314043)"/>
<path id="Vector_18" d="M82 48.7539L94.9756 70.9394L82 63.2813V48.7539Z" fill="#D8D8D8"/>
<path id="Frame" d="M49.002 31.1431L81.6478 49.5114L94.9739 71.5754V124.785L49.002 98.7536V31.1431ZM48 29.4238V99.3435L95.9758 126.511V71.2849L82.3732 48.7639L48 29.4238Z" fill="#ACACAC"/>
<path id="Vector_19" d="M48 29.4223L52.2082 26.9449L86.4612 46.2836L82.3722 48.7594L48 29.4223Z" fill="#CCCCCC"/>
<path id="Vector_20" d="M82.373 48.7641L86.465 46.2883L100.192 68.8051L95.9837 71.2824L82.373 48.7641Z" fill="#BABABA"/>
<path id="Vector_21" d="M95.9775 71.2856L100.186 68.8083V123.946L95.9775 126.511V71.2856Z" fill="url(#paint5_linear_113018_314043)"/>
<rect id="Rectangle 3466573" width="20.9971" height="12.9918" transform="matrix(1.21347 0.671095 0 1 52.8535 51.1289)" fill="#2195DC"/>
<rect id="Rectangle 3466574" width="5.99897" height="28.999" transform="matrix(1.21351 0.671028 0 1 81.9727 67.2383)" fill="#2195DC"/>
<rect id="Rectangle 3466582" width="20.9973" height="12.9996" transform="matrix(1.21347 0.671094 0 1 52.8535 67.1211)" fill="#2195DC"/>
<rect id="Rectangle 3466584" width="29.9954" height="2.98785" transform="matrix(1.21349 0.67107 0 1 52.8535 83.1328)" fill="#2195DC"/>
<path id="W-2" d="M61.2613 99.7737L59.0859 98.5699L58.1428 94.8566C58.1143 94.7497 58.0827 94.5056 58.048 94.1244L58.029 94.1139C57.9816 94.408 57.9358 94.6092 57.8916 94.7176L56.8726 97.3451L54.5692 96.0705L52.9483 89.572L55.1948 90.8151L55.7635 94.4267C55.773 94.4736 55.7872 94.6026 55.8062 94.8136L55.8346 95.1536L55.8631 95.1693C55.8694 95.1051 55.8884 95.001 55.9199 94.857C55.9515 94.7104 55.9816 94.6046 56.01 94.5397L57.0574 91.8458L59.2897 93.0811L60.1618 96.884L60.2234 97.2501L60.2708 97.6005L60.2897 97.611L60.304 97.4822L60.3656 96.9733L60.958 94.0043L62.977 95.1215L61.2613 99.7737ZM63.759 99.6207V98.4996L66.3515 99.9341V101.055L63.759 99.6207ZM67.4605 103.204V102.755C67.4605 102.437 67.5079 102.187 67.6027 102.005C67.6975 101.824 67.846 101.686 68.0482 101.592C68.2536 101.5 68.6091 101.432 69.1146 101.389C69.4748 101.354 69.7134 101.318 69.8303 101.281C69.9503 101.243 70.0388 101.192 70.0957 101.127C70.1557 101.064 70.1857 100.976 70.1857 100.864C70.1857 100.492 69.914 100.156 69.3705 99.8548C68.8176 99.5488 68.2947 99.4248 67.8018 99.4828V98.1195C68.1778 98.1713 68.5285 98.2573 68.8539 98.3775C69.1825 98.4994 69.519 98.6557 69.8634 98.8463C70.6028 99.2554 71.1747 99.7164 71.5791 100.229C71.9836 100.742 72.1858 101.262 72.1858 101.788C72.1858 102.191 72.0799 102.475 71.8682 102.639C71.6565 102.803 71.2632 102.879 70.6881 102.865C70.2489 102.856 69.9567 102.867 69.8113 102.896C69.6691 102.924 69.5965 102.975 69.5933 103.048L72.2474 104.517V105.853L67.4605 103.204Z" fill="#2195DC"/>
</g>
</g>
</g>
<defs>
<radialGradient id="paint0_radial_113018_314043" cx="0" cy="0" r="1" gradientUnits="userSpaceOnUse" gradientTransform="translate(116.99 43.7119) rotate(105.01) scale(4.69593 10.5731)">
<stop stop-opacity="0.15"/>
<stop offset="1" stop-opacity="0"/>
</radialGradient>
<radialGradient id="paint1_radial_113018_314043" cx="0" cy="0" r="1" gradientUnits="userSpaceOnUse" gradientTransform="translate(168.483 56.0931) rotate(105.01) scale(5.04685 11.3632)">
<stop stop-opacity="0.15"/>
<stop offset="1" stop-opacity="0"/>
</radialGradient>
<radialGradient id="paint2_radial_113018_314043" cx="0" cy="0" r="1" gradientUnits="userSpaceOnUse" gradientTransform="translate(159.063 105.013) rotate(105.01) scale(5.04685 11.3632)">
<stop stop-opacity="0.15"/>
<stop offset="1" stop-opacity="0"/>
</radialGradient>
<radialGradient id="paint3_radial_113018_314043" cx="0" cy="0" r="1" gradientUnits="userSpaceOnUse" gradientTransform="translate(22.2413 11.4808) rotate(90) scale(11.4808 22.2413)">
<stop stop-opacity="0.15"/>
<stop offset="1" stop-opacity="0"/>
</radialGradient>
<linearGradient id="paint4_linear_113018_314043" x1="40.3881" y1="48.8354" x2="100.287" y2="109.706" gradientUnits="userSpaceOnUse">
<stop offset="0.375" stop-color="#FEFEFE"/>
<stop offset="1" stop-color="#D5D5D5"/>
</linearGradient>
<linearGradient id="paint5_linear_113018_314043" x1="98.0817" y1="126.484" x2="97.3287" y2="68.8456" gradientUnits="userSpaceOnUse">
<stop stop-color="#797775"/>
<stop offset="0.157" stop-color="#868482"/>
<stop offset="1" stop-color="#AFACA9"/>
</linearGradient>
<clipPath id="clip0_113018_314043">
<rect width="242" height="138" fill="white"/>
</clipPath>
</defs>
</svg>
