<svg width="260" height="153" viewBox="0 0 260 153" fill="none" xmlns="http://www.w3.org/2000/svg"><rect x="142.17" y="70.9033" width="49" height="28" transform="rotate(15 142.17 70.9033)" fill="url(#paint0_radial-md99pszzz7)"></rect><path d="M171.425 46.1741L180.383 51.4131V87.8131L148.783 69.4931V23.4131L171.425 36.4531V46.1741Z" fill="url(#paint1_linear-md99pszzz7)"></path><path d="M148.783 23.413L151.557 21.813L174.118 34.855L171.424 36.455L148.783 23.413Z" fill="#B2E17D"></path><path d="M171.425 36.453L174.125 34.853L183.16 49.813L180.383 51.413L171.425 36.453Z" fill="#87BF43"></path><path d="M180.383 51.413L183.156 49.813V86.159L180.383 87.813V51.413Z" fill="#498205"></path><path d="M171.425 36.4531L180.383 51.4191L171.423 46.1791L171.425 36.4531Z" fill="#B2E17D"></path><path d="M163.262 41.269L153.605 64.124L156.217 65.632L158.754 59.632L169.032 65.563L171.255 74.319L174.874 76.419L166.413 43.09L163.262 41.269ZM159.928 56.846L164.236 46.657L168.007 61.513L159.928 56.846Z" fill="#DBFAD9"></path><rect x="97.9111" y="103.703" width="54.0884" height="26.0544" transform="rotate(15 97.9111 103.703)" fill="url(#paint2_radial-md99pszzz7)"></rect><path d="M121.511 29.8393C111.691 24.17 102.793 23.6435 96.364 27.3775L91.0192 30.4853C97.4445 26.7523 106.342 27.2779 116.159 32.9518C135.701 44.2344 151.437 71.5788 151.374 93.9513C151.342 105.089 147.409 112.925 141.066 116.61L146.42 113.503C152.761 109.815 156.699 101.978 156.726 90.8415C156.794 68.3239 140.927 41.0487 121.511 29.8393Z" fill="url(#paint3_linear-md99pszzz7)"></path><path d="M116.164 32.9481C135.673 44.2117 151.442 71.5248 151.378 93.9475C151.315 116.37 135.441 125.411 115.933 114.147C96.4256 102.882 80.6483 75.568 80.7119 53.151C80.7754 30.7339 96.6495 21.6808 116.164 32.9481Z" fill="#156AB3"></path><path d="M116.164 32.9481C135.673 44.2117 151.442 71.5248 151.378 93.9475C151.315 116.37 135.441 125.411 115.933 114.147C96.4256 102.882 80.6483 75.568 80.7119 53.151C80.7754 30.7339 96.6495 21.6808 116.164 32.9481Z" fill="url(#paint4_linear-md99pszzz7)"></path><path d="M116.918 46.0399V102.486C116.919 102.668 116.873 102.847 116.784 103.005C116.695 103.164 116.566 103.296 116.41 103.39L118.131 102.39C118.296 102.301 118.434 102.171 118.534 102.012C118.634 101.854 118.691 101.673 118.7 101.486V45.04L116.918 46.0399Z" fill="#1D4A79"></path><path d="M117.288 42.5913C117.119 42.4884 116.929 42.4237 116.733 42.4016C116.576 42.3851 116.417 42.4183 116.279 42.4964L114.559 43.4916C114.721 43.4163 114.899 43.3853 115.077 43.402C115.254 43.4187 115.423 43.4824 115.568 43.5864C115.971 43.8576 116.304 44.2213 116.539 44.6472C116.774 45.0731 116.903 45.5489 116.917 46.035L118.702 45.0351C118.675 44.5452 118.533 44.0687 118.287 43.6441C118.041 43.2196 117.699 42.8589 117.288 42.5913Z" fill="#84ECFD"></path><path d="M115.568 43.5912C115.972 43.8624 116.305 44.2261 116.54 44.652C116.774 45.0779 116.904 45.5536 116.917 46.0397V102.486C116.917 103.381 116.183 103.743 115.4 103.29C115.008 103.015 114.69 102.649 114.472 102.223C114.253 101.798 114.142 101.325 114.146 100.847V44.4023C114.147 43.5068 114.784 43.1377 115.568 43.5912Z" fill="#45CAF2"></path><path d="M110.34 52.5292L110.245 87.2704C110.263 87.4441 110.234 87.6192 110.162 87.778C110.089 87.9369 109.976 88.0737 109.834 88.1745L111.554 87.1746C111.696 87.0739 111.81 86.9371 111.882 86.7783C111.955 86.6195 111.984 86.4442 111.966 86.2705L112.061 51.5293L110.34 52.5292Z" fill="#1D4A79"></path><path d="M110.647 49.0885C110.479 48.9853 110.29 48.9205 110.094 48.8987C109.937 48.8821 109.779 48.9153 109.643 48.9936L107.922 49.9935C108.082 49.9181 108.26 49.8872 108.437 49.9038C108.614 49.9205 108.783 49.9842 108.926 50.0884C109.338 50.3552 109.681 50.7156 109.926 51.1401C110.172 51.5647 110.314 52.0413 110.341 52.5312L112.061 51.5313C112.034 51.0415 111.893 50.5648 111.647 50.1402C111.401 49.7157 111.059 49.3552 110.647 49.0885Z" fill="#84ECFD"></path><path d="M108.926 50.0863C109.338 50.3532 109.68 50.7136 109.926 51.1381C110.172 51.5627 110.314 52.0393 110.341 52.5292L110.246 87.2704C110.246 88.1659 109.607 88.5283 108.823 88.0748C108.412 87.8079 108.071 87.4478 107.826 87.0237C107.581 86.5997 107.44 86.1238 107.414 85.6349L107.509 50.8936C107.511 49.9981 108.147 49.6357 108.926 50.0863Z" fill="#45CAF2"></path><path d="M103.698 58.4805L103.656 73.6782C103.674 73.8531 103.645 74.0296 103.572 74.1898C103.499 74.3499 103.386 74.488 103.242 74.5898L104.962 73.5899C105.106 73.4883 105.22 73.3504 105.293 73.1902C105.366 73.03 105.395 72.8534 105.378 72.6783L105.42 57.4844L103.698 58.4805Z" fill="#1D4A79"></path><path d="M104.01 55.0377C103.866 54.933 103.697 54.8686 103.519 54.851C103.342 54.8335 103.163 54.8636 103.001 54.9381L101.28 55.938C101.442 55.8635 101.621 55.8334 101.798 55.8509C101.976 55.8684 102.145 55.9329 102.289 56.0376C102.7 56.305 103.042 56.6657 103.287 57.0902C103.531 57.5147 103.672 57.9911 103.698 58.4805L105.419 57.4806C105.393 56.9912 105.252 56.5148 105.007 56.0903C104.763 55.6658 104.421 55.3051 104.01 55.0377Z" fill="#84ECFD"></path><path d="M102.291 56.0375C102.701 56.3051 103.043 56.6659 103.287 57.0903C103.532 57.5148 103.673 57.9911 103.699 58.4804L103.656 73.678C103.656 74.5802 103.018 74.9426 102.238 74.492C101.826 74.2249 101.483 73.864 101.237 73.4389C100.992 73.0138 100.85 72.5366 100.824 72.0463L100.867 56.8515C100.87 55.9474 101.505 55.585 102.291 56.0375Z" fill="#45CAF2"></path><path d="M97.0757 59.0092L97.0567 65.5227C97.0721 65.7996 96.9865 66.0726 96.8158 66.2912C96.7665 66.3475 96.7085 66.3955 96.644 66.4335L98.364 65.4336C98.5074 65.332 98.6213 65.1941 98.6939 65.0341C98.7666 64.8741 98.7955 64.6977 98.7776 64.5228L98.7966 58.0093L97.0757 59.0092Z" fill="#1D4A79"></path><path d="M97.3824 55.5597C97.2378 55.4554 97.068 55.3917 96.8906 55.375C96.7131 55.3583 96.5344 55.3893 96.373 55.4648L94.6559 56.46C94.8174 56.3848 94.996 56.3539 95.1734 56.3706C95.3508 56.3873 95.5206 56.4509 95.6653 56.5548C96.0776 56.8226 96.4207 57.1841 96.6665 57.6098C96.9123 58.0355 97.0539 58.5134 97.0797 59.0043L98.7968 58.0063C98.7706 57.5159 98.6288 57.0386 98.383 56.6134C98.1372 56.1882 97.7943 55.8271 97.3824 55.5597Z" fill="#84ECFD"></path><path d="M95.6615 56.5596C96.0738 56.8274 96.4169 57.1889 96.6627 57.6146C96.9086 58.0403 97.0502 58.5182 97.076 59.0091L97.057 65.5227C97.057 66.4239 96.4185 66.7863 95.634 66.3338C95.2221 66.0665 94.8794 65.7056 94.6337 65.2806C94.388 64.8555 94.2464 64.3784 94.2205 63.8881L94.2385 57.3745C94.2413 56.4695 94.8769 56.109 95.6615 56.5596Z" fill="#45CAF2"></path><path d="M123.561 60.7098L123.466 95.451C123.466 95.5545 123.457 95.6578 123.437 95.7594C123.42 95.8803 123.378 95.9963 123.312 96.0993C123.247 96.2023 123.16 96.2899 123.057 96.3561L124.778 95.3552C124.921 95.2545 125.034 95.1176 125.107 94.9586C125.179 94.7995 125.208 94.6241 125.191 94.4502L125.286 59.709L123.561 60.7098Z" fill="#1D4A79"></path><path d="M123.876 57.27C123.732 57.1647 123.562 57.1 123.384 57.0825C123.206 57.0649 123.027 57.0953 122.865 57.1704L121.145 58.1703C121.307 58.0953 121.486 58.065 121.664 58.0825C121.841 58.1 122.011 58.1647 122.155 58.2699C122.566 58.5368 122.907 58.897 123.152 59.321C123.397 59.7451 123.538 60.2209 123.564 60.7099L125.281 59.7138C125.256 59.2245 125.116 58.7481 124.872 58.3234C124.628 57.8987 124.287 57.5377 123.876 57.27Z" fill="#84ECFD"></path><path d="M122.151 58.2698C122.562 58.5367 122.903 58.8969 123.148 59.3209C123.393 59.745 123.534 60.2208 123.56 60.7098L123.465 95.451C123.465 96.3465 122.827 96.7089 122.048 96.2583C121.636 95.9915 121.294 95.6311 121.048 95.2065C120.802 94.782 120.66 94.3053 120.634 93.8155L120.728 59.0743C120.731 58.1787 121.367 57.8163 122.151 58.2698Z" fill="#45CAF2"></path><path d="M130.149 74.3017L130.106 89.4965C130.123 89.6713 130.094 89.8476 130.022 90.0075C129.949 90.1675 129.836 90.3054 129.692 90.4072L131.413 89.4073C131.556 89.3056 131.67 89.1677 131.743 89.0077C131.815 88.8477 131.844 88.6713 131.826 88.4966L131.87 73.3018L130.149 74.3017Z" fill="#1D4A79"></path><path d="M130.455 70.8531C130.311 70.7492 130.142 70.6856 129.966 70.669C129.789 70.6523 129.612 70.6831 129.451 70.7582L127.73 71.7581C127.891 71.683 128.069 71.6522 128.245 71.6689C128.422 71.6856 128.591 71.7491 128.735 71.8529C129.147 72.1204 129.49 72.4817 129.736 72.9073C129.982 73.3329 130.123 73.8107 130.148 74.3015L131.869 73.3016C131.843 72.8108 131.702 72.333 131.456 71.9075C131.21 71.4819 130.867 71.1206 130.455 70.8531Z" fill="#84ECFD"></path><path d="M128.734 71.8567C129.147 72.1241 129.49 72.4854 129.736 72.911C129.981 73.3366 130.123 73.8144 130.148 74.3052L130.105 89.5C130.105 90.4013 129.467 90.7637 128.682 90.3111C128.271 90.0433 127.93 89.6822 127.685 89.2571C127.44 88.8321 127.3 88.3552 127.274 87.8655L127.317 72.6706C127.319 71.7618 127.957 71.4032 128.734 71.8567Z" fill="#45CAF2"></path><path d="M136.747 82.4613L136.729 88.9749C136.747 89.1497 136.718 89.326 136.645 89.4859C136.573 89.6459 136.459 89.7838 136.316 89.8856L138.037 88.8857C138.18 88.784 138.293 88.6461 138.366 88.4861C138.438 88.3261 138.467 88.1497 138.449 87.975L138.468 81.4614L136.747 82.4613Z" fill="#1D4A79"></path><path d="M137.054 79.0119C136.91 78.9079 136.74 78.8443 136.562 78.8276C136.385 78.811 136.206 78.8418 136.045 78.917L134.324 79.9179C134.486 79.8422 134.664 79.8111 134.842 79.8278C135.02 79.8444 135.19 79.9083 135.334 80.0127C135.747 80.2801 136.09 80.6415 136.335 81.0671C136.581 81.4927 136.722 81.9705 136.748 82.4613L138.469 81.4614C138.443 80.9704 138.302 80.4924 138.056 80.0666C137.81 79.6408 137.467 79.2794 137.054 79.0119Z" fill="#84ECFD"></path><path d="M135.334 80.0157C135.747 80.2831 136.09 80.6445 136.335 81.0701C136.581 81.4957 136.722 81.9735 136.748 82.4643L136.73 88.9778C136.73 89.8791 136.091 90.2414 135.307 89.7889C134.894 89.5212 134.551 89.1597 134.305 88.734C134.06 88.3083 133.918 87.8304 133.892 87.3395L133.911 80.8259C133.913 79.9209 134.55 79.5594 135.334 80.0157Z" fill="#45CAF2"></path><defs><radialGradient id="paint0_radial-md99pszzz7" cx="0" cy="0" r="1" gradientUnits="userSpaceOnUse" gradientTransform="translate(166.67 84.9033) rotate(90) scale(14 24.5)"><stop stop-opacity="0.15"></stop><stop offset="1" stop-opacity="0"></stop></radialGradient><linearGradient id="paint1_linear-md99pszzz7" x1="176.295" y1="82.8354" x2="131.358" y2="54.9436" gradientUnits="userSpaceOnUse"><stop stop-color="#4E9528"></stop><stop offset="1" stop-color="#87CC3F"></stop></linearGradient><radialGradient id="paint2_radial-md99pszzz7" cx="0" cy="0" r="1" gradientUnits="userSpaceOnUse" gradientTransform="translate(124.955 116.73) rotate(90) scale(13.0272 27.0442)"><stop stop-opacity="0.15"></stop><stop offset="1" stop-opacity="0"></stop></radialGradient><linearGradient id="paint3_linear-md99pszzz7" x1="123.873" y1="117.711" x2="123.873" y2="26.0939" gradientUnits="userSpaceOnUse"><stop stop-color="#156AB3"></stop><stop offset="0.4" stop-color="#45CAF2"></stop><stop offset="0.485" stop-color="#45CAF2"></stop><stop offset="1" stop-color="#45CAF2"></stop></linearGradient><linearGradient id="paint4_linear-md99pszzz7" x1="86.9577" y1="32.1148" x2="134.444" y2="119.141" gradientUnits="userSpaceOnUse"><stop stop-color="#2FA5D9"></stop><stop offset="0.697917" stop-color="#1B77BD"></stop><stop offset="1" stop-color="#156AB3"></stop></linearGradient></defs></svg>